# Blender 3.6.5
# www.blender.org
mtllib Barn1.mtl
o Barn.005
v -5.179192 -0.000000 4.000000
v 1.008748 -0.000000 4.000000
v -5.179192 3.750000 4.000000
v 1.008748 3.750000 4.000000
v 2.038748 3.750000 4.000000
v -0.753544 -0.000000 4.000000
v -1.796860 -0.000000 4.000000
v -1.796860 3.750000 4.000000
v -0.753544 3.750000 4.000000
v 2.038748 -0.000000 4.000000
v 3.068748 3.750000 4.000000
v 3.068748 -0.000000 4.000000
v 4.106456 3.750000 4.000000
v 4.098748 -0.000000 4.000000
v 5.136456 -0.000000 4.000000
v 5.136456 3.750000 4.000000
v -3.082146 3.750000 4.000000
v -1.954138 -0.000000 4.000000
v -4.210154 -0.000000 4.000000
v -4.210154 3.750000 4.000000
v -1.954138 3.750000 4.000000
v -5.179192 3.013984 4.000000
v 1.008748 3.013984 4.000000
v 2.038748 3.013984 4.000000
v -0.753544 3.013984 4.000000
v -1.796860 3.013984 4.000000
v 3.068748 3.013984 4.000000
v 5.136456 3.013984 4.000000
v 4.104943 3.013984 4.000000
v -3.082146 3.013984 4.000000
v -1.954138 3.013984 4.000000
v -4.210154 3.013984 4.000000
vn -0.0000 -0.0000 1.0000
vt 0.000000 0.780257
vt 0.156459 0.780257
vt 0.156459 0.953914
vt 0.000000 0.953914
vt 0.714558 0.780257
vt 0.714558 0.953914
vt 0.546106 0.953914
vt 0.546106 0.780257
vt 1.000000 0.780257
vt 1.000000 0.953914
vt 0.546106 0.780257
vt 0.520712 0.780257
vt 0.520712 0.953914
vt 0.338586 0.953914
vt 0.338586 0.780257
vt 0.520712 0.069129
vt 0.546106 0.069129
vt 0.714558 0.069129
vt 1.000000 0.069129
vt 0.000000 0.069129
vt 0.156459 0.069129
s 0
usemtl TCom_BuildingsBarn0010_1_S
f 22/1/1 32/2/1 20/3/1 3/4/1
f 24/5/1 5/6/1 4/7/1 23/8/1
f 25/5/1 9/6/1 8/7/1 26/8/1
f 25/5/1 23/9/1 4/10/1 9/6/1
f 27/5/1 11/6/1 5/7/1 24/8/1
f 29/5/1 13/6/1 11/7/1 27/8/1
f 28/5/1 16/6/1 13/7/1 29/11/1
f 31/12/1 21/13/1 17/14/1 30/15/1
f 30/15/1 17/14/1 20/3/1 32/2/1
f 31/12/1 26/8/1 8/7/1 21/13/1
f 18/16/1 7/17/1 26/8/1 31/12/1
f 15/18/1 28/5/1 29/11/1 14/17/1
f 14/18/1 29/5/1 27/8/1 12/17/1
f 12/18/1 27/5/1 24/8/1 10/17/1
f 6/18/1 2/19/1 23/9/1 25/5/1
f 6/18/1 25/5/1 26/8/1 7/17/1
f 10/18/1 24/5/1 23/8/1 2/17/1
f 1/20/1 19/21/1 32/2/1 22/1/1
o TCom_BuildingsBarn0010_1_S.001
v -3.082148 -0.000000 4.000000
v -1.954140 -0.000000 4.000000
v -4.210155 -0.000000 4.000000
v -3.082148 3.013984 4.000000
v -1.954140 3.013984 4.000000
v -4.210155 3.013984 4.000000
vn -0.0000 -0.0000 1.0000
vt 0.338586 0.069129
vt 0.338586 0.780257
vt 0.156459 0.780257
vt 0.156459 0.069129
vt 0.520712 0.069129
vt 0.520712 0.780257
s 0
usemtl TCom_BuildingsBarn0010_1_S
f 33/22/2 36/23/2 38/24/2 35/25/2
f 34/26/2 37/27/2 36/23/2 33/22/2
o TCom_BuildingsBarn0010_1_S.002
v 5.158298 -0.000001 -4.000006
v -1.029642 -0.000001 -3.999999
v 5.158298 5.030090 -4.000005
v -1.029642 5.030090 -3.999999
v -2.059641 5.030090 -3.999997
v 0.732651 -0.000001 -4.000001
v 1.775966 -0.000001 -4.000002
v 1.775966 5.030090 -4.000001
v 0.732651 5.030090 -4.000000
v -2.059641 -0.000001 -3.999998
v -3.089641 5.030090 -3.999996
v -3.089641 -0.000001 -3.999997
v -4.127349 5.030090 -3.999995
v -4.119641 -0.000001 -3.999995
v -5.157349 -0.000001 -3.999994
v -5.157349 5.030090 -3.999994
v 3.061253 5.030090 -4.000003
v 4.189260 5.030090 -4.000004
v 1.933245 5.030090 -4.000002
v 5.158298 3.013983 -4.000006
v -1.029642 3.013983 -3.999999
v -2.059641 3.013983 -3.999998
v 0.732651 3.013983 -4.000000
v 1.775966 3.013983 -4.000002
v -3.089641 3.013983 -3.999996
v -5.157349 3.013983 -3.999994
v -4.125836 3.013983 -3.999995
v 3.061253 3.013983 -4.000003
v 3.061254 -0.000001 -4.000003
v 1.933246 -0.000001 -4.000002
v 4.189261 -0.000001 -4.000005
v 1.933246 3.013983 -4.000002
v 4.189261 3.013983 -4.000004
vn -0.0000 -0.0000 -1.0000
vt 0.000000 0.780257
vt 0.156459 0.780257
vt 0.156459 0.953914
vt 0.000000 0.953914
vt 0.714558 0.780257
vt 0.714558 0.953914
vt 0.546106 0.953914
vt 0.546106 0.780257
vt 1.000000 0.780257
vt 1.000000 0.953914
vt 0.546106 0.780257
vt 0.926863 0.780257
vt 0.926863 0.953914
vt 0.744737 0.953914
vt 0.744737 0.780257
vt 0.713586 0.780257
vt 0.713586 0.953914
vt 0.531459 0.953914
vt 0.531459 0.780257
vt 0.520712 0.780257
vt 0.520712 0.953914
vt 0.520712 0.069129
vt 0.546106 0.069129
vt 0.714558 0.069129
vt 1.000000 0.069129
vt 0.000000 0.069129
vt 0.156459 0.069129
vt 0.713586 0.069129
vt 0.531459 0.069129
vt 0.926863 0.069129
vt 0.744737 0.069129
s 0
usemtl TCom_BuildingsBarn0010_1_S
f 58/28/3 71/29/3 56/30/3 41/31/3
f 60/32/3 43/33/3 42/34/3 59/35/3
f 61/32/3 47/33/3 46/34/3 62/35/3
f 61/32/3 59/36/3 42/37/3 47/33/3
f 63/32/3 49/33/3 43/34/3 60/35/3
f 65/32/3 51/33/3 49/34/3 63/35/3
f 64/32/3 54/33/3 51/34/3 65/38/3
f 70/39/3 57/40/3 55/41/3 66/42/3
f 66/43/3 55/44/3 56/45/3 71/46/3
f 70/47/3 62/35/3 46/34/3 57/48/3
f 68/49/3 45/50/3 62/35/3 70/47/3
f 53/51/3 64/32/3 65/38/3 52/50/3
f 52/51/3 65/32/3 63/35/3 50/50/3
f 50/51/3 63/32/3 60/35/3 48/50/3
f 44/51/3 40/52/3 59/36/3 61/32/3
f 44/51/3 61/32/3 62/35/3 45/50/3
f 48/51/3 60/32/3 59/35/3 40/50/3
f 39/53/3 69/54/3 71/29/3 58/28/3
f 67/55/3 66/43/3 71/46/3 69/56/3
f 68/57/3 70/39/3 66/42/3 67/58/3
o TCom_BuildingsBarn0016_S
v 5.117782 0.016101 4.005122
v 5.117781 0.016101 -4.041521
v 5.117782 3.743863 4.005122
v 5.117782 5.034704 -4.041521
v -4.865014 0.016101 4.005133
v -4.865030 0.016101 -4.041510
v -4.865014 3.743863 4.005133
v -4.865031 5.034704 -4.041510
vn 1.0000 -0.0000 -0.0000
vn -1.0000 -0.0000 -0.0000
vt 0.019548 0.018904
vt 0.980452 0.018904
vt 0.980452 0.948182
vt 0.019548 0.501642
s 0
usemtl TCom_BuildingsBarn0016_S
f 72/59/4 73/60/4 75/61/4 74/62/4
f 76/59/5 78/62/5 79/61/5 77/60/5
o TCom_RooftilesCeramicOld0112_S
v -5.136720 4.544348 -1.078463
v -2.011593 4.544348 -1.078463
v -5.136720 5.096733 -4.027169
v -2.011593 5.096733 -4.027169
v 1.113535 4.544348 -1.078463
v 1.113535 5.096733 -4.027169
v 4.238661 4.544348 -1.078463
v 4.238661 5.096733 -4.027169
v -5.136720 3.991964 1.870244
v -2.011593 3.991964 1.870244
v 1.113535 3.991964 1.870244
v 4.238661 3.991964 1.870244
v 5.104406 4.544348 -1.078463
v 5.104406 5.096733 -4.027169
v 5.104406 3.991964 1.870244
v -5.136720 3.618766 3.862430
v -2.011593 3.618766 3.862430
v 1.113535 3.618766 3.862430
v 4.238661 3.618766 3.862430
v 5.104406 3.618766 3.862430
vn -0.0000 0.9829 0.1841
vt 0.000000 0.000000
vt 1.000000 0.000000
vt 1.000000 1.000000
vt 0.000000 1.000000
vt 0.000000 0.324387
vt 1.000000 0.324387
vt 0.277027 0.324387
vt 0.277027 1.000000
vt 0.277027 0.000000
s 0
usemtl TCom_RooftilesCeramicOld0112_S
f 80/63/6 81/64/6 83/65/6 82/66/6
f 81/63/6 84/64/6 85/65/6 83/66/6
f 84/63/6 86/64/6 87/65/6 85/66/6
f 88/63/6 89/64/6 81/65/6 80/66/6
f 89/63/6 90/64/6 84/65/6 81/66/6
f 90/63/6 91/64/6 86/65/6 84/66/6
f 95/67/6 96/68/6 89/65/6 88/66/6
f 96/67/6 97/68/6 90/65/6 89/66/6
f 97/67/6 98/68/6 91/65/6 90/66/6
f 98/67/6 99/69/6 94/70/6 91/66/6
f 91/63/6 94/71/6 92/70/6 86/66/6
f 86/63/6 92/71/6 93/70/6 87/66/6
o Barn_-col
v -5.254462 -0.112540 4.100000
v -5.254462 5.225350 4.100000
v -5.254462 -0.112540 -4.100000
v -5.254462 5.225350 -4.100000
v 5.183715 -0.112540 4.100000
v 5.183715 5.225350 4.100000
v 5.183715 -0.112540 -4.100000
v 5.183715 5.225350 -4.100000
v -5.254462 -0.112540 -2.050000
v -5.254462 -0.112540 0.000000
v -5.254462 -0.112540 2.050000
v -5.254462 1.221933 4.100000
v -5.254462 2.556406 4.100000
v -5.254462 3.890878 4.100000
v -5.254462 5.225350 2.050000
v -5.254462 5.225350 0.000000
v -5.254462 5.225350 -2.050000
v -5.254462 3.890878 -4.100000
v -5.254462 2.556406 -4.100000
v -5.254462 1.221933 -4.100000
v 2.574171 -0.112540 -4.100000
v -0.035373 -0.112540 -4.100000
v -2.644918 -0.112540 -4.100000
v -2.644918 5.225350 -4.100000
v -0.035373 5.225350 -4.100000
v 2.574171 5.225350 -4.100000
v 5.183715 3.890878 -4.100000
v 5.183715 2.556406 -4.100000
v 5.183715 1.221933 -4.100000
v 5.183715 -0.112540 2.050000
v 5.183715 -0.112540 0.000000
v 5.183715 -0.112540 -2.050000
v 5.183715 5.225350 -2.050000
v 5.183715 5.225350 0.000000
v 5.183715 5.225350 2.050000
v 5.183715 3.890878 4.100000
v 5.183715 2.556406 4.100000
v 5.183715 1.221933 4.100000
v -2.644918 -0.112540 4.100000
v -0.035373 -0.112540 4.100000
v 2.574171 -0.112540 4.100000
v 2.574171 5.225350 4.100000
v -0.035373 5.225350 4.100000
v -2.644918 5.225350 4.100000
v 2.574171 5.225350 -2.050000
v 2.574171 5.225350 0.000000
v 2.574171 5.225350 2.050000
v -0.035373 5.225350 -2.050000
v -0.035373 5.225350 0.000000
v -0.035373 5.225350 2.050000
v -2.644918 5.225350 -2.050000
v -2.644918 5.225350 0.000000
v -2.644918 5.225350 2.050000
v -2.644918 -0.112540 -2.050000
v -2.644918 -0.112540 0.000000
v -2.644918 -0.112540 2.050000
v -0.035373 -0.112540 -2.050000
v -0.035373 -0.112540 0.000000
v -0.035373 -0.112540 2.050000
v 2.574171 -0.112540 -2.050000
v 2.574171 -0.112540 0.000000
v 2.574171 -0.112540 2.050000
v 2.574171 1.221933 4.100000
v -0.035373 1.221933 4.100000
v -2.644918 1.221933 4.100000
v 2.574171 2.556406 4.100000
v -0.035373 2.556406 4.100000
v -2.644918 2.556406 4.100000
v 2.574171 3.890878 4.100000
v -0.035373 3.890878 4.100000
v -2.644918 3.890878 4.100000
v 5.183715 1.221933 -2.050000
v 5.183715 1.221933 0.000000
v 5.183715 1.221933 2.050000
v 5.183715 2.556406 -2.050000
v 5.183715 2.556406 0.000000
v 5.183715 2.556406 2.050000
v 5.183715 3.890878 -2.050000
v 5.183715 3.890878 0.000000
v 5.183715 3.890878 2.050000
v -2.644918 1.221933 -4.100000
v -0.035373 1.221933 -4.100000
v 2.574171 1.221933 -4.100000
v -2.644918 2.556406 -4.100000
v -0.035373 2.556406 -4.100000
v 2.574171 2.556406 -4.100000
v -2.644918 3.890878 -4.100000
v -0.035373 3.890878 -4.100000
v 2.574171 3.890878 -4.100000
v -5.254462 1.221933 2.050000
v -5.254462 1.221933 0.000000
v -5.254462 1.221933 -2.050000
v -5.254462 2.556406 2.050000
v -5.254462 2.556406 0.000000
v -5.254462 2.556406 -2.050000
v -5.254462 3.890878 2.050000
v -5.254462 3.890878 0.000000
v -5.254462 3.890878 -2.050000
vn -1.0000 -0.0000 -0.0000
vn -0.0000 -0.0000 -1.0000
vn 1.0000 -0.0000 -0.0000
vn -0.0000 -0.0000 1.0000
vn -0.0000 -1.0000 -0.0000
vn -0.0000 1.0000 -0.0000
vt 0.562500 0.187500
vt 0.625000 0.187500
vt 0.625000 0.250000
vt 0.562500 0.250000
vt 0.562500 0.437500
vt 0.625000 0.437500
vt 0.625000 0.500000
vt 0.562500 0.500000
vt 0.562500 0.687500
vt 0.625000 0.687500
vt 0.625000 0.750000
vt 0.562500 0.750000
vt 0.562500 0.937500
vt 0.625000 0.937500
vt 0.625000 1.000000
vt 0.562500 1.000000
vt 0.312500 0.687500
vt 0.375000 0.687500
vt 0.375000 0.750000
vt 0.312500 0.750000
vt 0.812500 0.687500
vt 0.875000 0.687500
vt 0.875000 0.750000
vt 0.812500 0.750000
vt 0.687500 0.687500
vt 0.687500 0.750000
vt 0.750000 0.687500
vt 0.750000 0.750000
vt 0.687500 0.500000
vt 0.687500 0.562500
vt 0.625000 0.562500
vt 0.687500 0.625000
vt 0.625000 0.625000
vt 0.750000 0.500000
vt 0.750000 0.562500
vt 0.750000 0.625000
vt 0.812500 0.500000
vt 0.812500 0.562500
vt 0.812500 0.625000
vt 0.875000 0.500000
vt 0.875000 0.562500
vt 0.875000 0.625000
vt 0.125000 0.687500
vt 0.187500 0.687500
vt 0.187500 0.750000
vt 0.125000 0.750000
vt 0.250000 0.687500
vt 0.250000 0.750000
vt 0.125000 0.500000
vt 0.187500 0.500000
vt 0.187500 0.562500
vt 0.125000 0.562500
vt 0.187500 0.625000
vt 0.125000 0.625000
vt 0.250000 0.500000
vt 0.250000 0.562500
vt 0.250000 0.625000
vt 0.312500 0.500000
vt 0.312500 0.562500
vt 0.312500 0.625000
vt 0.375000 0.500000
vt 0.375000 0.562500
vt 0.375000 0.625000
vt 0.375000 0.937500
vt 0.437500 0.937500
vt 0.437500 1.000000
vt 0.375000 1.000000
vt 0.500000 0.937500
vt 0.500000 1.000000
vt 0.437500 0.750000
vt 0.437500 0.812500
vt 0.375000 0.812500
vt 0.437500 0.875000
vt 0.375000 0.875000
vt 0.500000 0.750000
vt 0.500000 0.812500
vt 0.500000 0.875000
vt 0.562500 0.812500
vt 0.562500 0.875000
vt 0.625000 0.812500
vt 0.625000 0.875000
vt 0.437500 0.687500
vt 0.500000 0.687500
vt 0.437500 0.500000
vt 0.437500 0.562500
vt 0.437500 0.625000
vt 0.500000 0.500000
vt 0.500000 0.562500
vt 0.500000 0.625000
vt 0.562500 0.562500
vt 0.562500 0.625000
vt 0.375000 0.437500
vt 0.437500 0.437500
vt 0.500000 0.437500
vt 0.375000 0.250000
vt 0.437500 0.250000
vt 0.437500 0.312500
vt 0.375000 0.312500
vt 0.437500 0.375000
vt 0.375000 0.375000
vt 0.500000 0.250000
vt 0.500000 0.312500
vt 0.500000 0.375000
vt 0.562500 0.312500
vt 0.562500 0.375000
vt 0.625000 0.312500
vt 0.625000 0.375000
vt 0.375000 0.187500
vt 0.437500 0.187500
vt 0.500000 0.187500
vt 0.375000 0.000000
vt 0.437500 0.000000
vt 0.437500 0.062500
vt 0.375000 0.062500
vt 0.437500 0.125000
vt 0.375000 0.125000
vt 0.500000 0.000000
vt 0.500000 0.062500
vt 0.500000 0.125000
vt 0.562500 0.000000
vt 0.562500 0.062500
vt 0.562500 0.125000
vt 0.625000 0.000000
vt 0.625000 0.062500
vt 0.625000 0.125000
s 0
f 197/72/7 116/73/7 103/74/7 117/75/7
f 188/76/8 125/77/8 107/78/8 126/79/8
f 179/80/9 134/81/9 105/82/9 135/83/9
f 170/84/10 143/85/10 101/86/10 113/87/10
f 161/88/11 129/89/11 104/90/11 140/91/11
f 152/92/12 114/93/12 101/94/12 143/95/12
f 134/81/12 146/96/12 141/97/12 105/82/12
f 146/96/12 149/98/12 142/99/12 141/97/12
f 149/98/12 152/92/12 143/95/12 142/99/12
f 107/78/12 125/100/12 144/101/12 132/102/12
f 132/102/12 144/101/12 145/103/12 133/104/12
f 133/104/12 145/103/12 146/96/12 134/81/12
f 125/100/12 124/105/12 147/106/12 144/101/12
f 144/101/12 147/106/12 148/107/12 145/103/12
f 145/103/12 148/107/12 149/98/12 146/96/12
f 124/105/12 123/108/12 150/109/12 147/106/12
f 147/106/12 150/109/12 151/110/12 148/107/12
f 148/107/12 151/110/12 152/92/12 149/98/12
f 123/108/12 103/111/12 116/112/12 150/109/12
f 150/109/12 116/112/12 115/113/12 151/110/12
f 151/110/12 115/113/12 114/93/12 152/92/12
f 110/114/11 155/115/11 138/116/11 100/117/11
f 155/115/11 158/118/11 139/119/11 138/116/11
f 158/118/11 161/88/11 140/91/11 139/119/11
f 102/120/11 122/121/11 153/122/11 108/123/11
f 108/123/11 153/122/11 154/124/11 109/125/11
f 109/125/11 154/124/11 155/115/11 110/114/11
f 122/121/11 121/126/11 156/127/11 153/122/11
f 153/122/11 156/127/11 157/128/11 154/124/11
f 154/124/11 157/128/11 158/118/11 155/115/11
f 121/126/11 120/129/11 159/130/11 156/127/11
f 156/127/11 159/130/11 160/131/11 157/128/11
f 157/128/11 160/131/11 161/88/11 158/118/11
f 120/129/11 106/132/11 131/133/11 159/130/11
f 159/130/11 131/133/11 130/134/11 160/131/11
f 160/131/11 130/134/11 129/89/11 161/88/11
f 138/135/10 164/136/10 111/137/10 100/138/10
f 164/136/10 167/139/10 112/140/10 111/137/10
f 167/139/10 170/84/10 113/87/10 112/140/10
f 104/90/10 137/141/10 162/142/10 140/143/10
f 140/143/10 162/142/10 163/144/10 139/145/10
f 139/145/10 163/144/10 164/136/10 138/135/10
f 137/141/10 136/146/10 165/147/10 162/142/10
f 162/142/10 165/147/10 166/148/10 163/144/10
f 163/144/10 166/148/10 167/139/10 164/136/10
f 136/146/10 135/83/10 168/149/10 165/147/10
f 165/147/10 168/149/10 169/150/10 166/148/10
f 166/148/10 169/150/10 170/84/10 167/139/10
f 135/83/10 105/82/10 141/151/10 168/149/10
f 168/149/10 141/151/10 142/152/10 169/150/10
f 169/150/10 142/152/10 143/85/10 170/84/10
f 129/89/9 173/153/9 137/141/9 104/90/9
f 173/153/9 176/154/9 136/146/9 137/141/9
f 176/154/9 179/80/9 135/83/9 136/146/9
f 106/132/9 128/155/9 171/156/9 131/133/9
f 131/133/9 171/156/9 172/157/9 130/134/9
f 130/134/9 172/157/9 173/153/9 129/89/9
f 128/155/9 127/158/9 174/159/9 171/156/9
f 171/156/9 174/159/9 175/160/9 172/157/9
f 172/157/9 175/160/9 176/154/9 173/153/9
f 127/158/9 126/79/9 177/161/9 174/159/9
f 174/159/9 177/161/9 178/162/9 175/160/9
f 175/160/9 178/162/9 179/80/9 176/154/9
f 126/79/9 107/78/9 132/102/9 177/161/9
f 177/161/9 132/102/9 133/104/9 178/162/9
f 178/162/9 133/104/9 134/81/9 179/80/9
f 120/163/8 182/164/8 128/155/8 106/132/8
f 182/164/8 185/165/8 127/158/8 128/155/8
f 185/165/8 188/76/8 126/79/8 127/158/8
f 102/166/8 119/167/8 180/168/8 122/169/8
f 122/169/8 180/168/8 181/170/8 121/171/8
f 121/171/8 181/170/8 182/164/8 120/163/8
f 119/167/8 118/172/8 183/173/8 180/168/8
f 180/168/8 183/173/8 184/174/8 181/170/8
f 181/170/8 184/174/8 185/165/8 182/164/8
f 118/172/8 117/75/8 186/175/8 183/173/8
f 183/173/8 186/175/8 187/176/8 184/174/8
f 184/174/8 187/176/8 188/76/8 185/165/8
f 117/75/8 103/74/8 123/177/8 186/175/8
f 186/175/8 123/177/8 124/178/8 187/176/8
f 187/176/8 124/178/8 125/77/8 188/76/8
f 108/179/7 191/180/7 119/167/7 102/166/7
f 191/180/7 194/181/7 118/172/7 119/167/7
f 194/181/7 197/72/7 117/75/7 118/172/7
f 100/182/7 111/183/7 189/184/7 110/185/7
f 110/185/7 189/184/7 190/186/7 109/187/7
f 109/187/7 190/186/7 191/180/7 108/179/7
f 111/183/7 112/188/7 192/189/7 189/184/7
f 189/184/7 192/189/7 193/190/7 190/186/7
f 190/186/7 193/190/7 194/181/7 191/180/7
f 112/188/7 113/191/7 195/192/7 192/189/7
f 192/189/7 195/192/7 196/193/7 193/190/7
f 193/190/7 196/193/7 197/72/7 194/181/7
f 113/191/7 101/194/7 114/195/7 195/192/7
f 195/192/7 114/195/7 115/196/7 196/193/7
f 196/193/7 115/196/7 116/73/7 197/72/7
