# Blender 3.6.5
# www.blender.org
mtllib Axe.mtl
o Meatcleaver.002
v -0.169506 5.600497 -0.241231
v -0.248290 5.600497 -0.162209
v -0.248290 5.600497 0.405003
v -0.169506 5.600497 0.484025
v 0.248290 5.600497 -0.162209
v 0.169506 5.600497 -0.241231
v 0.169506 5.600497 0.484025
v 0.248290 5.600497 0.405003
v -0.116417 -3.474192 -0.201033
v -0.195208 -3.474192 -0.120574
v -0.195208 -3.474192 0.300451
v -0.116417 -3.474192 0.377325
v 0.195208 -3.474192 -0.120574
v 0.116417 -3.474192 -0.201033
v 0.116417 -3.474192 0.377325
v 0.195208 -3.474192 0.300451
v 0.271947 -4.205130 0.236998
v 0.193148 -4.205130 0.316054
v 0.193148 -4.205130 -0.478305
v 0.271947 -4.205130 -0.399249
v -0.271947 -4.205130 -0.399249
v -0.193148 -4.205130 -0.478305
v -0.193148 -4.205130 0.316054
v -0.271947 -4.205130 0.236998
v 0.127035 -1.804173 -0.203265
v 0.137653 -0.134155 -0.223748
v 0.148270 1.535864 -0.185599
v 0.158888 3.205883 -0.201105
v 0.237674 3.205883 -0.122079
v 0.227058 1.535864 -0.106570
v 0.216441 -0.134155 -0.144715
v 0.205825 -1.804173 -0.123930
v 0.158888 3.205883 0.493141
v 0.148270 1.535864 0.477636
v 0.137652 -0.134155 0.408477
v 0.127035 -1.804173 0.396508
v 0.205825 -1.804173 0.318076
v 0.216441 -0.134155 0.329445
v 0.227058 1.535864 0.398607
v 0.237674 3.205883 0.414115
v -0.158888 3.205883 -0.201105
v -0.148270 1.535864 -0.185600
v -0.137652 -0.134155 -0.223748
v -0.127035 -1.804173 -0.203265
v -0.205825 -1.804173 -0.123930
v -0.216441 -0.134155 -0.144715
v -0.227058 1.535864 -0.106570
v -0.237674 3.205883 -0.122079
v -0.127035 -1.804173 0.396508
v -0.137653 -0.134155 0.408477
v -0.148271 1.535864 0.477636
v -0.158888 3.205883 0.493141
v -0.237674 3.205883 0.414115
v -0.227058 1.535864 0.398607
v -0.216441 -0.134155 0.329445
v -0.205825 -1.804173 0.318075
v 0.200517 -2.639183 -0.122252
v 0.121726 -2.639183 0.386917
v -0.121726 -2.639183 -0.202149
v -0.200517 -2.639183 0.309263
v 0.121726 -2.639183 -0.202149
v 0.200517 -2.639183 0.309264
v -0.200517 -2.639183 -0.122252
v -0.121726 -2.639183 0.386917
v 0.132344 -0.969164 -0.213506
v 0.211133 -0.969164 -0.134323
v 0.132343 -0.969164 0.402493
v 0.211133 -0.969164 0.323760
v -0.132344 -0.969164 -0.213507
v -0.211133 -0.969164 -0.134323
v -0.132344 -0.969164 0.402493
v -0.211133 -0.969164 0.323760
v -0.112874 4.566713 0.930594
v -0.112874 5.513348 0.930594
v -0.112874 4.566713 -0.465005
v -0.112874 5.513348 -0.465005
v 0.112874 4.566713 0.930594
v 0.112874 5.513348 0.930594
v 0.112874 4.566713 -0.465005
v 0.112874 5.513348 -0.465005
v -0.025942 6.586921 -1.769920
v -0.025942 3.493139 -1.769919
v 0.025942 3.493139 -1.769919
v 0.025942 6.586921 -1.769920
v -0.112874 4.756040 0.930594
v -0.112874 4.945367 0.930594
v -0.112874 5.134694 0.930594
v -0.112874 5.324021 0.930594
v -0.112874 5.324021 -0.465005
v -0.112874 5.134694 -0.465005
v -0.112874 4.945367 -0.465005
v -0.112874 4.756040 -0.465005
v 0.112874 5.324021 -0.465005
v 0.112874 5.134694 -0.465005
v 0.112874 4.945367 -0.465005
v 0.112874 4.756040 -0.465005
v 0.112874 5.324021 0.930594
v 0.112874 5.134694 0.930594
v 0.112874 4.945367 0.930594
v 0.112874 4.756040 0.930594
v -0.025942 5.968164 -1.983405
v -0.025942 5.349408 -2.066811
v -0.025942 4.730652 -2.066811
v -0.025942 4.111896 -1.983404
v 0.025942 5.968164 -1.983405
v 0.025942 5.349408 -2.066811
v 0.025942 4.730652 -2.066811
v 0.025942 4.111896 -1.983404
v -0.112874 5.040030 0.930594
v -0.112874 5.040030 -0.465005
v 0.112874 5.040030 -0.465005
v 0.112874 5.040030 0.930594
v -0.025942 5.040030 -2.088253
v 0.025942 5.040030 -2.088253
v 0.000000 5.968164 -1.983405
v 0.000000 5.349408 -2.066811
v 0.000000 4.730652 -2.066811
v 0.000000 4.111896 -1.983404
v 0.000000 6.586920 -1.769920
v 0.000000 3.493140 -1.769919
v 0.000000 5.513348 0.930594
v 0.000000 4.566713 0.930594
v 0.000000 5.513348 -0.465005
v 0.000000 4.566713 -0.465005
v 0.112874 6.268188 -1.382504
v 0.112874 5.832081 -0.852422
v -0.112874 5.832081 -0.852422
v -0.112874 6.268188 -1.382504
v -0.112874 3.811873 -1.382503
v -0.112874 4.247980 -0.852421
v 0.112874 3.811873 -1.382503
v 0.112874 4.247980 -0.852421
v 0.112874 5.769710 -1.515601
v 0.112874 5.522475 -0.932809
v 0.112874 5.282408 -1.566976
v 0.112874 5.201694 -0.964840
v 0.112874 4.797652 -1.566976
v 0.112874 4.878366 -0.964840
v 0.112874 4.557586 -0.932809
v 0.112874 4.310350 -1.515601
v -0.112874 4.557586 -0.932809
v -0.112874 4.878366 -0.964840
v -0.112874 5.201694 -0.964840
v -0.112874 5.522475 -0.932809
v -0.112874 5.040030 -0.973059
v 0.112874 5.040030 -0.973059
v 0.112874 5.040030 -1.580199
v 0.000000 5.040030 -2.088253
v 0.000000 3.811873 -1.382503
v 0.000000 4.247980 -0.852421
v 0.000000 6.268188 -1.382504
v 0.000000 5.832081 -0.852422
vn -1.0000 -0.0054 -0.0000
vn -1.0000 -0.0044 -0.0000
vn -0.0000 0.3547 -0.9350
vn -0.0000 -1.0000 -0.0000
vn -0.0000 -0.0027 1.0000
vn -0.0000 0.0038 1.0000
vn -0.0000 1.0000 -0.0000
vn 1.0000 -0.0064 -0.0000
vn -0.0000 -0.0835 0.9965
vn -0.9945 0.1044 -0.0000
vn 0.9945 0.1044 -0.0000
vn 0.7081 -0.0130 -0.7060
vn 0.7081 -0.0150 -0.7060
vn 0.7019 -0.0123 0.7122
vn 0.7001 -0.0123 0.7139
vn -0.7120 -0.0057 -0.7021
vn -0.7132 -0.0057 -0.7009
vn -0.7120 -0.0057 -0.7022
vn -0.7082 -0.0058 0.7060
vn -0.7082 -0.0005 0.7060
vn -0.7082 -0.0057 0.7060
vn 0.7033 0.0132 0.7108
vn 0.6731 0.3236 -0.6650
vn -0.6731 0.3236 -0.6650
vn -0.7033 0.0132 0.7108
vn -0.0000 -0.0013 -1.0000
vn -0.0000 -0.0168 -0.9999
vn -0.0000 -0.0130 -0.9999
vn -0.0000 -0.0093 -1.0000
vn -0.0000 0.0228 -0.9997
vn -0.0000 -0.0123 -0.9999
vn -0.0000 -0.0068 -1.0000
vn -0.7019 -0.0123 0.7122
vn -0.7049 -0.0109 0.7092
vn -0.7068 -0.0094 0.7073
vn -0.7075 -0.0094 0.7067
vn -0.7078 -0.0337 0.7056
vn -0.7081 -0.0111 0.7060
vn -0.7081 -0.0150 -0.7060
vn -0.7081 -0.0130 -0.7060
vn -0.7081 -0.0111 -0.7060
vn -0.7081 0.0116 -0.7060
vn -0.7088 -0.0132 -0.7053
vn -0.7100 -0.0095 -0.7042
vn 0.7082 -0.0005 0.7060
vn 0.7082 -0.0058 0.7060
vn 0.7082 -0.0057 0.7060
vn 0.7081 -0.0111 0.7060
vn 0.7078 -0.0337 0.7056
vn 0.7068 -0.0094 0.7073
vn 0.7049 -0.0109 0.7092
vn 0.7120 -0.0057 -0.7021
vn 0.7100 -0.0095 -0.7042
vn 0.7120 -0.0057 -0.7022
vn 0.7088 -0.0132 -0.7053
vn 0.7085 -0.0132 -0.7056
vn 0.7081 0.0116 -0.7060
vn 0.7081 -0.0111 -0.7060
vn 1.0000 -0.0044 -0.0000
vn 1.0000 -0.0054 -0.0000
vn -0.0000 -0.0115 0.9999
vn -0.0000 -0.0093 1.0000
vn -0.0000 -0.0072 1.0000
vn -0.0000 -0.0414 0.9991
vn -1.0000 -0.0064 -0.0000
vn 0.7132 -0.0057 -0.7009
vn -0.7001 -0.0123 0.7139
vn 0.7075 -0.0094 0.7067
vn -0.7085 -0.0132 -0.7056
vn -0.0000 0.3262 -0.9453
vn -0.0000 -0.7722 0.6353
vn -0.0000 0.7722 0.6353
vn -0.0000 -0.3262 -0.9453
vn -0.0000 -0.1336 -0.9910
vn -0.0000 0.0691 -0.9976
vn -0.0000 0.1336 -0.9910
vn -1.0000 -0.0000 -0.0000
vn -0.0000 -0.0691 -0.9976
vn 1.0000 -0.0000 -0.0000
vn -0.9959 -0.0000 -0.0903
vn -0.0000 -0.0000 1.0000
vn 0.9855 -0.0000 -0.1699
vt 0.198717 0.246458
vt 0.144460 0.245094
vt 0.151455 0.002807
vt 0.208852 0.004250
vt 0.010330 0.924693
vt 0.033899 0.924631
vt 0.041860 0.997402
vt 0.002757 0.997506
vt 0.259882 0.316812
vt 0.266062 0.308835
vt 0.315797 0.308835
vt 0.321977 0.316812
vt 0.321977 0.355915
vt 0.315797 0.363891
vt 0.266062 0.363891
vt 0.259882 0.355915
vt 0.519305 0.043704
vt 0.364591 0.044779
vt 0.364591 0.010462
vt 0.519305 0.011537
vt 0.307897 0.010462
vt 0.314075 0.002487
vt 0.358414 0.002487
vt 0.358414 0.052754
vt 0.314075 0.052754
vt 0.307897 0.044779
vt 0.073648 0.837982
vt 0.117308 0.836809
vt 0.118674 0.921323
vt 0.076075 0.922468
vt 0.373774 0.324579
vt 0.373774 0.348147
vt 0.139030 0.921330
vt 0.181633 0.922401
vt 0.207911 0.997117
vt 0.143529 0.995498
vt 0.114347 0.995495
vt 0.049973 0.997225
vt 0.049755 0.246728
vt 0.039216 0.004537
vt 0.047325 0.004360
vt 0.057865 0.246551
vt 0.125051 0.836560
vt 0.126338 0.921076
vt 0.192071 0.838072
vt 0.189841 0.922562
vt 0.183919 0.837912
vt 0.136530 0.244849
vt 0.143526 0.002563
vt 0.122232 0.995241
vt 0.041860 0.997402
vt 0.067820 0.922649
vt 0.215977 0.997275
vt 0.135596 0.995254
vt 0.131317 0.921090
vt 0.034211 0.840170
vt 0.009568 0.840236
vt 0.036828 0.006619
vt 0.036399 0.248983
vt 0.004232 0.249068
vt 0.002512 0.006711
vt 0.035774 0.417958
vt 0.005757 0.418038
vt 0.035149 0.586714
vt 0.007281 0.586788
vt 0.034836 0.671212
vt 0.034524 0.755710
vt 0.008806 0.755778
vt 0.008043 0.671283
vt 0.132463 0.836573
vt 0.133609 0.752055
vt 0.141479 0.752298
vt 0.140254 0.836814
vt 0.135120 0.667547
vt 0.136631 0.583038
vt 0.144562 0.583283
vt 0.143020 0.667790
vt 0.133866 0.413875
vt 0.141796 0.414120
vt 0.216915 0.004408
vt 0.206781 0.246616
vt 0.200979 0.415563
vt 0.192915 0.415406
vt 0.200606 0.584647
vt 0.192542 0.584489
vt 0.197453 0.669114
vt 0.194300 0.753581
vt 0.186206 0.753423
vt 0.189374 0.668956
vt 0.112596 0.002564
vt 0.119998 0.244840
vt 0.112117 0.245093
vt 0.104715 0.002817
vt 0.122944 0.413862
vt 0.115062 0.414115
vt 0.120461 0.583031
vt 0.112579 0.583284
vt 0.122112 0.667537
vt 0.123764 0.752044
vt 0.115943 0.752295
vt 0.114261 0.667789
vt 0.065450 0.838162
vt 0.063080 0.753674
vt 0.071221 0.753497
vt 0.059786 0.669212
vt 0.056493 0.584750
vt 0.064604 0.584573
vt 0.067912 0.669035
vt 0.055839 0.415666
vt 0.063949 0.415489
vt 0.428225 0.324041
vt 0.482676 0.323504
vt 0.482676 0.349222
vt 0.428225 0.348685
vt 0.536845 0.322966
vt 0.591014 0.322429
vt 0.591014 0.350297
vt 0.536845 0.349759
vt 0.703822 0.321354
vt 0.703822 0.351371
vt 0.812436 0.320279
vt 0.812436 0.352446
vt 0.733912 0.041764
vt 0.733912 0.053190
vt 0.624818 0.053190
vt 0.624818 0.041764
vt 0.760908 0.013912
vt 0.760908 0.025338
vt 0.651813 0.025338
vt 0.651813 0.013912
vt 0.701048 0.060811
vt 0.639340 0.060811
vt 0.639340 0.058185
vt 0.701048 0.058185
vt 0.733912 0.030338
vt 0.784695 0.030338
vt 0.784695 0.041764
vt 0.760908 0.002486
vt 0.811690 0.002486
vt 0.811690 0.013912
vt 0.952253 0.060811
vt 0.888795 0.060811
vt 0.888795 0.058185
vt 0.952253 0.058185
vt 0.825871 0.060811
vt 0.825871 0.058185
vt 0.794492 0.060811
vt 0.763288 0.060811
vt 0.763288 0.058185
vt 0.794492 0.058185
vt 0.831589 0.189484
vt 0.831589 0.208648
vt 0.690323 0.208642
vt 0.690323 0.189477
vt 0.690323 0.170313
vt 0.690323 0.160731
vt 0.690323 0.151149
vt 0.690323 0.131984
vt 0.690323 0.112820
vt 0.831589 0.112826
vt 0.831589 0.131991
vt 0.831589 0.151155
vt 0.831589 0.160737
vt 0.831589 0.170319
vt 0.881174 0.002486
vt 0.881174 0.013912
vt 0.854178 0.041764
vt 0.854178 0.030338
vt 0.904961 0.039138
vt 0.904961 0.041764
vt 0.379733 0.112900
vt 0.379733 0.132065
vt 0.379733 0.151229
vt 0.379733 0.160811
vt 0.379733 0.170393
vt 0.379733 0.189558
vt 0.379733 0.208723
vt 0.340520 0.240989
vt 0.332384 0.209650
vt 0.329142 0.177179
vt 0.328310 0.160815
vt 0.329142 0.144450
vt 0.332384 0.111980
vt 0.340520 0.080639
vt 0.931956 0.011286
vt 0.931956 0.013912
vt 0.854178 0.053190
vt 0.784695 0.053190
vt 0.881174 0.025338
vt 0.811690 0.025338
vt 0.536556 0.066824
vt 0.558165 0.004192
vt 0.597452 0.036408
vt 0.651108 0.080554
vt 0.642971 0.111894
vt 0.639729 0.144364
vt 0.638897 0.160728
vt 0.639729 0.177093
vt 0.642971 0.209564
vt 0.651108 0.240903
vt 0.597452 0.285045
vt 0.558165 0.317356
vt 0.536556 0.254722
vt 0.528113 0.192089
vt 0.525943 0.160773
vt 0.528113 0.129456
vt 0.931956 0.016538
vt 0.904961 0.044390
vt 0.825871 0.063437
vt 0.794492 0.063437
vt 0.520989 0.112890
vt 0.520989 0.132054
vt 0.520989 0.151219
vt 0.520989 0.160801
vt 0.520989 0.170383
vt 0.520989 0.189548
vt 0.520989 0.208712
vt 0.763288 0.063437
vt 0.701048 0.063437
vt 0.888795 0.063437
vt 0.952253 0.063437
vt 0.639340 0.063437
vt 0.651813 0.002486
vt 0.624818 0.030338
vt 0.639638 0.025338
vt 0.627461 0.025338
vt 0.621373 0.025338
vt 0.615285 0.025338
vt 0.603110 0.025338
vt 0.590933 0.025338
vt 0.590933 0.013912
vt 0.590933 0.002486
vt 0.603110 0.002486
vt 0.615285 0.002486
vt 0.621373 0.002486
vt 0.627461 0.002486
vt 0.639638 0.002486
vt 0.266858 0.160819
vt 0.268196 0.136285
vt 0.273397 0.086958
vt 0.286868 0.036499
vt 0.286868 0.285137
vt 0.273397 0.234680
vt 0.268196 0.185354
vt 0.247531 0.317358
vt 0.225923 0.254727
vt 0.217481 0.192094
vt 0.215311 0.160778
vt 0.217481 0.129461
vt 0.225923 0.066828
vt 0.247531 0.004193
s 1
usemtl Axe
f 48/1/1 53/2/1 3/3/2 2/4/2
f 9/5/3 14/6/3 19/7/3 22/8/3
f 19/9/4 20/10/4 17/11/4 18/12/4 23/13/4 24/14/4 21/15/4 22/16/4
f 33/17/5 7/18/6 4/19/6 52/20/5
f 1/21/7 2/22/7 3/23/7 4/19/7 7/18/7 8/24/7 5/25/7 6/26/7
f 57/27/8 62/28/8 16/29/8 13/30/8
f 15/31/9 12/32/9 23/13/9 18/12/9
f 11/33/10 10/34/10 21/35/10 24/36/10
f 13/30/11 16/29/11 17/37/11 20/38/11
f 28/39/12 6/40/13 5/41/13 29/42/12
f 58/43/14 15/44/15 16/29/15 62/28/14
f 59/45/16 9/46/17 10/34/17 63/47/18
f 52/48/19 4/49/20 3/3/20 53/2/21
f 15/44/22 18/50/22 17/37/22 16/29/22
f 19/51/23 14/52/23 13/30/23 20/38/23
f 9/46/24 22/53/24 21/35/24 10/34/24
f 23/54/25 12/55/25 11/33/25 24/36/25
f 61/56/26 14/6/26 9/5/26 59/57/26
f 6/58/27 28/59/28 41/60/28 1/61/27
f 28/59/28 27/62/29 42/63/29 41/60/28
f 27/62/30 26/64/30 43/65/30 42/63/30
f 65/66/31 25/67/32 44/68/32 69/69/31
f 64/70/33 49/71/34 56/72/34 60/73/33
f 71/74/35 50/75/36 55/76/36 72/77/35
f 50/75/37 51/78/37 54/79/37 55/76/37
f 51/78/38 52/48/19 53/2/21 54/79/38
f 1/80/39 41/81/40 48/1/40 2/4/39
f 41/81/40 42/82/41 47/83/41 48/1/40
f 42/82/42 43/84/42 46/85/42 47/83/42
f 69/86/43 44/87/44 45/88/44 70/89/43
f 7/90/45 33/91/46 40/92/47 8/93/45
f 33/91/46 34/94/48 39/95/48 40/92/47
f 34/94/49 35/96/49 38/97/49 39/95/49
f 67/98/50 36/99/51 37/100/51 68/101/50
f 61/102/52 25/103/53 32/104/53 57/27/54
f 65/105/55 26/106/56 31/107/56 66/108/55
f 26/106/57 27/109/57 30/110/57 31/107/57
f 27/109/58 28/39/12 29/42/12 30/110/58
f 5/41/59 8/93/59 40/92/60 29/42/60
f 29/42/60 40/92/60 39/95/8 30/110/8
f 30/110/8 39/95/8 38/97/8 31/107/8
f 66/108/8 68/101/8 37/100/8 32/104/8
f 58/111/61 36/112/62 49/113/62 64/114/61
f 67/115/63 35/116/63 50/117/63 71/118/63
f 35/116/64 34/119/64 51/120/64 50/117/64
f 34/119/62 33/121/5 52/122/5 51/120/62
f 63/47/65 60/73/65 56/72/65 45/88/65
f 70/89/65 72/77/65 55/76/65 46/85/65
f 46/85/65 55/76/65 54/79/65 47/83/65
f 47/83/65 54/79/65 53/2/1 48/1/1
f 10/34/65 11/33/65 60/73/65 63/47/65
f 15/31/61 58/111/61 64/114/61 12/32/61
f 14/52/66 61/102/52 57/27/54 13/30/66
f 12/55/67 64/70/33 60/73/33 11/33/67
f 25/67/32 61/56/26 59/57/26 44/68/32
f 44/87/44 59/45/16 63/47/18 45/88/44
f 36/99/51 58/43/14 62/28/14 37/100/51
f 32/104/8 37/100/8 62/28/8 57/27/8
f 45/88/65 56/72/65 72/77/65 70/89/65
f 36/112/62 67/115/63 71/118/63 49/113/62
f 31/107/8 38/97/8 68/101/8 66/108/8
f 25/103/53 65/105/55 66/108/55 32/104/53
f 35/96/68 67/98/50 68/101/50 38/97/68
f 43/84/69 69/86/43 70/89/43 46/85/69
f 49/71/34 71/74/35 72/77/35 56/72/34
f 26/64/31 65/66/31 69/69/31 43/65/31
f 124/123/4 79/124/4 77/125/4 122/126/4
f 123/127/7 76/128/7 74/129/7 121/130/7
f 115/131/70 119/132/70 84/133/70 105/134/70
f 124/123/71 75/135/71 130/136/71 150/137/71
f 123/127/72 80/138/72 126/139/72 152/140/72
f 120/141/73 118/142/73 108/143/73 83/144/73
f 118/142/74 117/145/74 107/146/74 108/143/74
f 148/147/75 116/148/75 106/149/75 114/150/75
f 116/148/76 115/131/76 105/134/76 106/149/76
f 88/151/77 74/152/77 76/153/77 89/154/77 90/155/77 110/156/77 91/157/77 92/158/77 75/159/77 73/160/77 85/161/77 86/162/77 109/163/77 87/164/77
f 117/145/78 148/147/78 114/150/78 107/146/78
f 125/165/72 151/166/72 152/140/72 126/139/72
f 149/167/71 129/168/71 82/169/71 120/170/71
f 80/171/79 93/172/79 94/173/79 111/174/79 95/175/79 96/176/79 79/177/79 132/178/79 139/179/79 138/180/79 146/181/79 136/182/79 134/183/79 126/184/79
f 151/166/72 125/165/72 84/185/72 119/186/72
f 149/167/71 131/187/71 132/188/71 150/137/71
f 151/166/72 128/189/72 127/190/72 152/140/72
f 104/191/80 82/192/80 129/193/80 130/194/80 141/195/80 142/196/80 145/197/80 143/198/80 144/199/80 127/200/80 128/201/80 81/202/80 101/203/80 102/204/80 113/205/80 103/206/80
f 129/168/71 149/167/71 150/137/71 130/136/71
f 128/189/72 151/166/72 119/186/72 81/207/72
f 131/187/71 149/167/71 120/170/71 83/208/71
f 103/209/78 113/210/78 148/147/78 117/145/78
f 93/172/79 80/171/79 78/211/79 97/212/79 98/213/79 112/214/79 99/215/79 100/216/79 77/217/79 79/177/79 96/176/79 95/175/79 111/174/79 94/173/79
f 102/218/76 101/219/76 115/131/76 116/148/76
f 113/210/75 102/218/75 116/148/75 148/147/75
f 104/220/74 103/209/74 117/145/74 118/142/74
f 82/221/73 104/220/73 118/142/73 120/141/73
f 76/128/72 123/127/72 152/140/72 127/190/72
f 79/124/71 124/123/71 150/137/71 132/188/71
f 101/219/70 81/222/70 119/132/70 115/131/70
f 80/138/7 123/127/7 121/130/7 78/223/7
f 75/135/4 124/123/4 122/126/4 73/224/4
f 121/130/81 74/129/81 88/225/81 87/226/81 109/227/81 86/228/81 85/229/81 73/230/81 122/231/81 77/232/81 100/233/81 99/234/81 112/235/81 98/236/81 97/237/81 78/223/81
f 92/158/77 91/157/77 110/156/77 90/155/77 89/154/77 76/153/77 127/200/77 144/199/77 143/198/77 145/197/77 142/196/77 141/195/77 130/194/77 75/159/77
f 147/238/79 135/239/79 133/240/79 125/241/79 126/184/79 134/183/79 136/182/79 146/181/79 138/180/79 139/179/79 132/178/79 131/242/79 140/243/79 137/244/79
f 140/243/82 131/242/82 83/245/82 108/246/82 107/247/82 114/248/82 106/249/82 105/250/82 84/251/82 125/241/82 133/240/82 135/239/82 147/238/82 137/244/82
