# Blender 3.6.5
# www.blender.org
mtllib RocketLauncher.mtl
o Bazooka
v -5.088240 -0.484922 11.410411
v -5.088240 -0.192730 11.410411
v -5.088240 -0.484922 11.014829
v -5.088240 -0.192730 11.014829
v -4.851922 -0.484922 11.410411
v -4.851922 -0.192730 11.410411
v -4.851922 -0.484922 11.014829
v -4.851922 -0.192730 11.014829
v -5.088240 -0.484922 11.272907
v -5.088240 -0.192730 11.272907
v -4.851922 -0.484922 11.272907
v -4.851922 -0.192730 11.272907
v -4.718991 -0.484922 11.410411
v -4.718991 -0.192730 11.410411
v -4.718991 -0.484922 11.272907
v -4.718991 -0.192730 11.272907
v -4.851922 -1.453418 11.410411
v -4.851922 -1.453418 11.272907
v -4.718991 -1.453418 11.410411
v -4.718991 -1.453418 11.272907
v -1.726191 0.004775 11.868299
v -1.726191 0.119696 11.868299
v -1.726191 -0.175631 11.728312
v -1.726191 0.119696 11.728312
v -1.630260 0.004775 11.868299
v -1.630260 0.119696 11.868299
v -1.630260 -0.175631 11.559679
v -1.630260 0.119696 11.559679
v -1.874947 0.004775 11.868299
v -1.874947 0.119696 11.868299
v -1.874947 -0.175631 11.728312
v -1.874947 0.119696 11.728312
v -1.985723 0.004775 11.868299
v -1.985723 0.119696 11.868299
v -1.985723 -0.175631 11.559679
v -1.985723 0.119696 11.559679
v -2.257915 0.004775 11.868299
v -2.257915 0.119696 11.868299
v -2.257915 -0.175631 11.559679
v -2.257915 0.119696 11.559679
v -1.985723 0.502664 11.868299
v -1.985723 0.502664 11.559679
v -2.181954 0.353908 11.868299
v -2.181954 0.353908 11.559679
v -1.726191 1.442948 11.868299
v -1.726191 1.442948 11.728312
v -1.874947 1.442948 11.868299
v -1.874947 1.442948 11.728312
v 5.575498 -0.360868 11.612992
v 5.576047 0.123366 11.813569
v 5.283507 0.485013 11.574041
v 4.412465 0.486173 11.574041
v 5.283097 0.123592 11.723747
v 4.412055 0.124752 11.723747
v 5.282687 -0.237830 11.574041
v 4.411645 -0.236670 11.574041
v 5.576597 0.607601 11.612993
v -1.570086 0.492960 11.574049
v -1.570496 0.131539 11.723755
v -1.570906 -0.229882 11.574049
v -5.057387 0.496917 11.574048
v -5.057797 0.135495 11.723754
v -5.058208 -0.225926 11.574048
v -5.801197 0.497761 11.574047
v -5.801607 0.136339 11.723753
v -5.802017 -0.225082 11.574047
v -5.872168 0.610806 11.609886
v -5.872706 0.136383 11.806399
v -5.873244 -0.338041 11.609886
v -6.085476 0.611048 11.609886
v -6.086015 0.136625 11.806399
v -6.086553 -0.337799 11.609886
v 4.513273 0.692402 11.507277
v 4.513273 0.849546 11.306825
v 4.870868 0.692402 11.507277
v 4.870868 0.849546 11.306825
v 5.002744 0.410188 11.438701
v 4.697899 0.431288 11.438701
v 4.494810 0.692402 11.266878
v 4.494810 0.849546 11.306825
v -0.834333 0.692402 11.266878
v -0.834333 0.849546 11.306825
v -0.989293 0.547339 11.354795
v -0.989293 0.952409 11.306825
v -1.318982 0.547339 11.354795
v -1.318982 0.952409 11.306825
v -1.336566 0.547339 11.354795
v -1.336566 1.095275 11.306825
v -1.751974 0.547339 11.354795
v -1.751974 1.095275 11.306825
v -1.853079 0.547339 11.354795
v -1.853079 1.002962 11.306825
v -2.281676 0.547339 11.354795
v -2.281676 1.002962 11.306825
v -5.088240 -0.484922 11.014829
v -5.088240 -0.192730 11.014829
v -5.088240 -0.484922 11.410411
v -5.088240 -0.192730 11.410411
v -4.851922 -0.484922 11.014829
v -4.851922 -0.192730 11.014829
v -4.851922 -0.484922 11.410411
v -4.851922 -0.192730 11.410411
v -5.088240 -0.484922 11.152332
v -5.088240 -0.192730 11.152332
v -4.851922 -0.484922 11.152332
v -4.851922 -0.192730 11.152332
v -4.718991 -0.484922 11.014829
v -4.718991 -0.192730 11.014829
v -4.718991 -0.484922 11.152332
v -4.718991 -0.192730 11.152332
v -4.851922 -1.453418 11.014829
v -4.851922 -1.453418 11.152332
v -4.718991 -1.453418 11.014829
v -4.718991 -1.453418 11.152332
v -1.726191 0.004775 10.556940
v -1.726191 0.119696 10.556940
v -1.726191 -0.175631 10.696928
v -1.726191 0.119696 10.696928
v -1.630260 0.004775 10.556940
v -1.630260 0.119696 10.556940
v -1.630260 -0.175631 10.865561
v -1.630260 0.119696 10.865561
v -1.874947 0.004775 10.556940
v -1.874947 0.119696 10.556940
v -1.874947 -0.175631 10.696928
v -1.874947 0.119696 10.696928
v -1.985723 0.004775 10.556940
v -1.985723 0.119696 10.556940
v -1.985723 -0.175631 10.865561
v -1.985723 0.119696 10.865561
v -2.257915 0.004775 10.556940
v -2.257915 0.119696 10.556940
v -2.257915 -0.175631 10.865561
v -2.257915 0.119696 10.865561
v -1.985723 0.502664 10.556940
v -1.985723 0.502664 10.865561
v -2.181954 0.353908 10.556940
v -2.181954 0.353908 10.865561
v -1.726191 1.442948 10.556940
v -1.726191 1.442948 10.696928
v -1.874947 1.442948 10.556940
v -1.874947 1.442948 10.696928
v -1.569916 0.642666 11.212620
v 5.575271 -0.561444 11.212620
v 5.575498 -0.360868 10.812247
v 5.576047 0.123366 10.611670
v 5.283678 0.634719 11.212620
v 4.412635 0.635879 11.212620
v 5.283507 0.485013 10.851198
v 4.412465 0.486173 10.851198
v 5.283097 0.123592 10.701492
v 4.412055 0.124752 10.701492
v 5.282687 -0.237830 10.851198
v 4.411645 -0.236670 10.851198
v 5.282517 -0.387535 11.212620
v 4.411475 -0.386375 11.212620
v 5.576597 0.607601 10.812246
v 5.576825 0.808177 11.212620
v -1.570086 0.492960 10.851191
v -1.570496 0.131539 10.701485
v -1.570906 -0.229882 10.851191
v -1.571076 -0.379588 11.212620
v -5.057218 0.646622 11.212620
v -5.057387 0.496917 10.851192
v -5.057797 0.135495 10.701486
v -5.058208 -0.225926 10.851192
v -5.058377 -0.375631 11.212620
v -5.801027 0.647466 11.212620
v -5.801197 0.497761 10.851192
v -5.801607 0.136339 10.701487
v -5.802017 -0.225082 10.851192
v -5.802187 -0.374788 11.212620
v -5.871945 0.807318 11.212620
v -5.872168 0.610806 10.815353
v -5.872706 0.136383 10.618840
v -5.873244 -0.338041 10.815353
v -5.873467 -0.534553 11.212620
v -6.085254 0.807560 11.212620
v -6.085476 0.611048 10.815353
v -6.086015 0.136625 10.618840
v -6.086553 -0.337799 10.815353
v -6.086776 -0.534311 11.212620
v 4.513273 0.692402 10.917963
v 4.513273 0.849546 11.118415
v 5.002744 0.410188 11.212620
v 4.697899 0.431288 11.212620
v 4.870868 0.692402 10.917963
v 4.870868 0.849546 11.118415
v 5.002744 0.410188 10.986539
v 4.697899 0.431288 10.986539
v 4.513273 0.626465 11.212620
v 4.513273 0.849546 11.212620
v 4.870868 0.626465 11.212620
v 4.870868 0.849546 11.212620
v 4.494810 0.692402 11.158361
v 4.494810 0.849546 11.118415
v 4.494810 0.692402 11.212620
v 4.494810 0.849546 11.212620
v -0.834333 0.692402 11.158361
v -0.834333 0.849546 11.118415
v -0.834333 0.692402 11.212620
v -0.834333 0.849546 11.212620
v -0.989293 0.547339 11.070445
v -0.989293 0.952409 11.118415
v -0.989293 0.605364 11.212620
v -0.989293 0.952409 11.212620
v -1.318982 0.547339 11.070445
v -1.318982 0.952409 11.118415
v -1.318982 0.605364 11.212620
v -1.318982 0.952409 11.212620
v -1.336566 0.547339 11.070445
v -1.336566 1.095275 11.118415
v -1.336566 0.605364 11.212620
v -1.336566 1.095275 11.212620
v -1.751974 0.547339 11.070445
v -1.751974 1.095275 11.118415
v -1.751974 0.605364 11.212620
v -1.751974 1.095275 11.212620
v -1.853079 0.547339 11.070445
v -1.853079 1.002962 11.118415
v -1.853079 0.605364 11.212620
v -1.853079 1.002962 11.212620
v -2.281676 0.547339 11.070445
v -2.281676 1.002962 11.118415
v -2.281676 0.605364 11.212620
v -2.281676 1.002962 11.212620
vn -1.0000 -0.0000 -0.0000
vn -0.0000 -0.0000 -1.0000
vn -0.0000 -0.0000 1.0000
vn -0.0000 -1.0000 -0.0000
vn -0.0000 1.0000 -0.0000
vn 1.0000 -0.0000 -0.0000
vn -0.8692 -0.0000 -0.4945
vn 0.4825 -0.6825 0.5490
vn -0.0000 -0.6130 0.7900
vn -0.4306 -0.7033 0.5657
vn 0.8358 -0.0000 -0.5490
vn -0.0000 -0.8633 0.5047
vn -0.6041 0.7969 -0.0000
vn -0.9512 0.3085 -0.0000
vn -0.2723 0.3685 0.8889
vn -0.2728 -0.3679 0.8889
vn 0.0012 0.9239 0.3827
vn 0.0005 0.3827 0.9239
vn -0.0005 -0.3827 0.9239
vn -0.0012 -0.9239 0.3827
vn -0.4376 0.8171 0.3755
vn 1.0000 -0.0011 -0.0000
vn -0.4389 -0.8163 0.3756
vn -0.0010 -0.9239 0.3827
vn 0.0004 0.3827 0.9239
vn -0.0004 -0.3827 0.9239
vn 0.0010 0.9239 0.3827
vn 0.7316 -0.2616 0.6295
vn -0.0010 -0.8963 0.4434
vn 0.8801 0.4317 0.1974
vn 0.8793 -0.4335 0.1974
vn 0.7321 0.2600 0.6297
vn -1.0000 0.0011 -0.0000
vn 0.0010 0.8963 0.4434
vn -0.0000 0.7870 0.6170
vn 0.8789 0.4733 -0.0599
vn -0.0079 -0.2491 0.9684
vn -0.7689 -0.6343 0.0803
vn -0.0691 -0.9976 -0.0000
vn -0.9855 0.0773 0.1514
vn -0.0000 -0.2464 0.9692
vn -0.9475 -0.3142 0.0594
vn 0.2712 0.0137 0.9624
vn -0.0000 0.1176 0.9931
vn 0.5530 0.8331 -0.0000
vn 0.5378 -0.8085 -0.2388
vn 0.3769 0.0928 0.9216
vn -0.0000 -0.9259 -0.3779
vn 0.9925 0.1222 -0.0000
vn -0.6743 0.7385 -0.0000
vn -0.0000 0.0872 0.9962
vn -0.0434 0.0951 0.9945
vn -0.0000 0.1047 0.9945
vn -0.8692 -0.0000 0.4945
vn 0.4825 -0.6825 -0.5490
vn -0.0000 -0.6130 -0.7900
vn -0.4306 -0.7033 -0.5657
vn 0.8358 -0.0000 0.5490
vn -0.0000 -0.8633 -0.5047
vn -0.2723 0.3685 -0.8889
vn -0.2728 -0.3679 -0.8889
vn 0.0012 0.9239 -0.3827
vn 0.0005 0.3827 -0.9239
vn -0.0005 -0.3827 -0.9239
vn -0.0012 -0.9239 -0.3827
vn -0.4376 0.8171 -0.3755
vn -0.4389 -0.8163 -0.3756
vn -0.0010 -0.9239 -0.3827
vn 0.0004 0.3827 -0.9239
vn -0.0004 -0.3827 -0.9239
vn 0.0010 0.9239 -0.3827
vn 0.7316 -0.2616 -0.6295
vn -0.0010 -0.8963 -0.4434
vn 0.8801 0.4317 -0.1974
vn 0.8793 -0.4335 -0.1974
vn 0.7321 0.2600 -0.6297
vn 0.0010 0.8963 -0.4434
vn -0.0000 0.7870 -0.6170
vn 0.8789 0.4733 0.0599
vn -0.0079 -0.2491 -0.9684
vn -0.7689 -0.6343 -0.0803
vn -0.9855 0.0773 -0.1514
vn -0.0000 -0.2464 -0.9692
vn -0.9475 -0.3142 -0.0594
vn 0.2712 0.0137 -0.9624
vn -0.0000 0.1176 -0.9931
vn 0.5378 -0.8085 0.2388
vn 0.3769 0.0928 -0.9216
vn -0.0000 -0.9259 0.3779
vn -0.0000 0.0872 -0.9962
vn -0.0434 0.0951 -0.9945
vn -0.0000 0.1047 -0.9945
vt 0.026243 0.571675
vt 0.026243 0.609320
vt 0.013342 0.609320
vt 0.013342 0.571675
vt 0.103370 0.407175
vt 0.103370 0.440861
vt 0.118312 0.440861
vt 0.118312 0.407175
vt 0.130859 0.407175
vt 0.130859 0.440861
vt 0.026243 0.541229
vt 0.033116 0.541229
vt 0.033116 0.571675
vt 0.013342 0.541229
vt 0.033116 0.609320
vt 0.040009 0.541229
vt 0.040009 0.578874
vt 0.033135 0.578874
vt 0.033135 0.541229
vt 0.118312 0.299613
vt 0.130859 0.299613
vt 0.033135 0.416453
vt 0.040009 0.416453
vt 0.026243 0.416453
vt 0.033116 0.416453
vt 0.369714 0.481522
vt 0.369714 0.433974
vt 0.360421 0.433974
vt 0.360421 0.481522
vt 0.375706 0.481522
vt 0.375706 0.433974
vt 0.375706 0.463020
vt 0.369714 0.463020
vt 0.353501 0.481522
vt 0.360421 0.463020
vt 0.360421 0.694569
vt 0.353501 0.433974
vt 0.336497 0.433974
vt 0.336497 0.481522
vt 0.353501 0.463020
vt 0.336497 0.463020
vt 0.353501 0.543181
vt 0.341243 0.519231
vt 0.369714 0.694569
vt 0.926593 0.595237
vt 0.926561 0.530407
vt 0.949617 0.530366
vt 0.949660 0.617226
vt 0.926528 0.465576
vt 0.949573 0.443507
vt 0.926606 0.622090
vt 0.858051 0.622298
vt 0.858038 0.595445
vt 0.858006 0.530615
vt 0.857974 0.465785
vt 0.857960 0.438931
vt 0.926515 0.438723
vt 0.949678 0.653205
vt 0.949028 0.612536
vt 0.948348 0.453216
vt 0.966518 0.476035
vt 0.975811 0.532108
vt 0.966999 0.588692
vt 0.949556 0.407528
vt 0.387108 0.440149
vt 0.387121 0.467002
vt 0.112655 0.456339
vt 0.112642 0.424611
vt 0.387185 0.596662
vt 0.387153 0.531832
vt 0.387199 0.623516
vt 0.112687 0.532937
vt 0.112720 0.609535
vt 0.054179 0.600367
vt 0.054146 0.533120
vt 0.112733 0.641263
vt 0.054114 0.465873
vt 0.048551 0.533128
vt 0.048508 0.444855
vt 0.054192 0.628222
vt 0.054101 0.438018
vt 0.048491 0.408292
vt 0.031720 0.444900
vt 0.031703 0.408337
vt 0.048611 0.657965
vt 0.048593 0.621401
vt 0.949263 0.612530
vt 0.948597 0.456438
vt 0.966625 0.478788
vt 0.975730 0.533724
vt 0.967096 0.589162
vt 0.031805 0.621446
vt 0.031762 0.533173
vt 0.031822 0.658009
vt 0.422339 0.184942
vt 0.422339 0.347788
vt 0.395657 0.347788
vt 0.338882 0.233076
vt 0.894116 0.650965
vt 0.894116 0.684270
vt 0.865972 0.684270
vt 0.865972 0.650965
vt 0.356358 0.004634
vt 0.420367 0.000099
vt 0.880503 0.595626
vt 0.904496 0.591154
vt 0.865972 0.636991
vt 0.864519 0.684270
vt 0.864519 0.650965
vt 0.445092 0.684270
vt 0.445092 0.650965
vt 0.432896 0.706070
vt 0.432896 0.620221
vt 0.406948 0.706070
vt 0.406948 0.620221
vt 0.432896 0.632519
vt 0.405565 0.736348
vt 0.405565 0.620221
vt 0.406948 0.632519
vt 0.372870 0.736348
vt 0.405565 0.632519
vt 0.364913 0.716784
vt 0.372870 0.620221
vt 0.372870 0.632519
vt 0.331180 0.716784
vt 0.364913 0.620221
vt 0.364913 0.632519
vt 0.331180 0.620221
vt 0.331180 0.632519
s 0
usemtl Material.004
f 9/1/1 10/2/1 4/3/1 3/4/1
f 3/5/2 4/6/2 8/7/2 7/8/2
f 6/7/3 5/8/3 13/9/3 14/10/3
f 5/8/3 6/7/3 2/6/3 1/5/3
f 9/1/4 11/11/4 5/12/4 1/13/4
f 12/7/5 10/6/5 2/6/5 6/7/5
f 8/7/5 4/6/5 10/6/5 12/7/5
f 3/4/4 7/14/4 11/11/4 9/1/4
f 7/8/6 8/7/6 12/7/6 11/8/6
f 1/13/1 2/15/1 10/2/1 9/1/1
f 15/16/6 16/17/6 14/18/6 13/19/6
f 11/8/2 12/7/2 16/10/2 15/9/2
f 13/9/3 5/8/3 17/20/3 19/21/3
f 12/7/5 6/7/5 14/10/5 16/10/5
f 17/20/4 18/20/4 20/21/4 19/21/4
f 15/16/6 13/19/6 19/22/6 20/23/6
f 11/8/2 15/9/2 20/21/2 18/20/2
f 5/12/1 11/11/1 18/24/1 17/25/1
f 24/26/2 23/27/2 31/28/2 32/29/2
f 23/27/7 24/26/7 28/30/7 27/31/7
f 27/31/6 28/30/6 26/30/6 25/32/6
f 25/32/3 26/30/3 22/26/3 21/33/3
f 23/27/8 27/31/8 25/32/8 21/33/8
f 28/30/5 24/26/5 22/26/5 26/30/5
f 30/29/5 32/29/5 36/34/5 34/34/5
f 21/33/3 22/26/3 30/29/3 29/35/3
f 32/29/1 30/29/1 47/36/1 48/36/1
f 23/27/9 21/33/9 29/35/9 31/28/9
f 36/34/2 35/37/2 39/38/2 40/39/2
f 31/28/10 29/35/10 33/40/10 35/37/10
f 32/29/11 31/28/11 35/37/11 36/34/11
f 29/35/3 30/29/3 34/34/3 33/40/3
f 37/41/1 38/39/1 40/39/1 39/38/1
f 33/40/3 34/34/3 38/39/3 37/41/3
f 38/39/3 34/34/3 41/42/3 43/43/3
f 35/37/12 33/40/12 37/41/12 39/38/12
f 41/42/13 42/42/13 44/43/13 43/43/13
f 40/39/14 38/39/14 43/43/14 44/43/14
f 34/34/6 36/34/6 42/42/6 41/42/6
f 36/34/2 40/39/2 44/43/2 42/42/2
f 45/44/5 46/44/5 48/36/5 47/36/5
f 24/26/2 32/29/2 48/36/2 46/44/2
f 22/26/6 24/26/6 46/44/6 45/44/6
f 30/29/3 22/26/3 45/44/3 47/36/3
f 51/45/15 53/46/15 50/47/15 57/48/15
f 53/46/16 55/49/16 49/50/16 50/47/16
f 147/51/17 148/52/17 52/53/17 51/45/17
f 51/45/18 52/53/18 54/54/18 53/46/18
f 53/46/19 54/54/19 56/55/19 55/49/19
f 55/49/20 56/55/20 156/56/20 155/57/20
f 147/51/21 51/45/21 57/48/21 158/58/21
f 144/59/22 158/60/22 57/61/22 50/62/22 49/63/22
f 55/49/23 155/57/23 144/64/23 49/50/23
f 162/65/24 60/66/24 63/67/24 167/68/24
f 54/54/25 52/53/25 58/69/25 59/70/25
f 156/56/24 56/55/24 60/66/24 162/65/24
f 56/55/26 54/54/26 59/70/26 60/66/26
f 52/53/27 148/52/27 143/71/27 58/69/27
f 62/72/25 61/73/25 64/74/25 65/75/25
f 59/70/25 58/69/25 61/73/25 62/72/25
f 58/69/27 143/71/27 163/76/27 61/73/27
f 60/66/26 59/70/26 62/72/26 63/67/26
f 66/77/28 65/75/28 68/78/28 69/79/28
f 63/67/26 62/72/26 65/75/26 66/77/26
f 61/73/27 163/76/27 168/80/27 64/74/27
f 167/68/24 63/67/24 66/77/24 172/81/24
f 177/82/29 69/79/29 72/83/29 182/84/29
f 64/74/30 168/80/30 173/85/30 67/86/30
f 172/81/31 66/77/31 69/79/31 177/82/31
f 65/75/32 64/74/32 67/86/32 68/78/32
f 178/87/33 182/88/33 72/89/33 71/90/33 70/91/33
f 68/78/25 67/86/25 70/92/25 71/93/25
f 69/79/26 68/78/26 71/93/26 72/83/26
f 67/86/34 173/85/34 178/94/34 70/92/34
f 193/95/6 194/96/6 76/97/6 75/98/6
f 75/99/35 76/100/35 74/101/35 73/102/35
f 193/95/36 75/98/36 77/103/36 185/104/36
f 194/100/5 192/101/5 74/101/5 76/100/5
f 75/99/37 73/102/37 78/105/37 77/106/37
f 73/102/38 191/107/38 186/105/38 78/105/38
f 186/105/39 185/106/39 77/106/39 78/105/39
f 73/102/40 74/101/40 80/108/40 79/109/40
f 79/109/41 80/108/41 82/110/41 81/111/41
f 74/101/5 192/101/5 198/108/5 80/108/5
f 191/107/42 73/102/42 79/109/42 197/109/42
f 81/111/43 82/110/43 84/112/43 83/113/43
f 80/108/5 198/108/5 202/110/5 82/110/5
f 197/109/4 79/109/4 81/111/4 201/111/4
f 83/113/44 84/112/44 86/114/44 85/115/44
f 82/110/45 202/110/45 206/112/45 84/112/45
f 201/111/46 81/111/46 83/113/46 205/116/46
f 85/115/47 86/114/47 88/117/47 87/118/47
f 84/112/5 206/112/5 210/114/5 86/114/5
f 205/116/48 83/113/48 85/115/48 209/119/48
f 88/117/5 214/117/5 218/120/5 90/120/5
f 86/114/49 210/114/49 214/117/49 88/117/49
f 209/119/48 85/115/48 87/118/48 213/121/48
f 90/120/50 218/120/50 222/122/50 92/122/50
f 213/121/48 87/118/48 89/123/48 217/124/48
f 87/118/51 88/117/51 90/120/51 89/123/51
f 92/122/5 222/122/5 226/125/5 94/125/5
f 217/124/48 89/123/48 91/126/48 221/127/48
f 89/123/52 90/120/52 92/122/52 91/126/52
f 93/128/1 94/125/1 226/125/1 225/129/1
f 221/127/48 91/126/48 93/128/48 225/129/48
f 91/126/53 92/122/53 94/125/53 93/128/53
f 103/1/1 97/4/1 98/3/1 104/2/1
f 97/5/3 101/8/3 102/7/3 98/6/3
f 100/7/2 108/10/2 107/9/2 99/8/2
f 99/8/2 95/5/2 96/6/2 100/7/2
f 103/1/4 95/13/4 99/12/4 105/11/4
f 106/7/5 100/7/5 96/6/5 104/6/5
f 102/7/5 106/7/5 104/6/5 98/6/5
f 97/4/4 103/1/4 105/11/4 101/14/4
f 101/8/6 105/8/6 106/7/6 102/7/6
f 95/13/1 103/1/1 104/2/1 96/15/1
f 109/16/6 107/19/6 108/18/6 110/17/6
f 105/8/3 109/9/3 110/10/3 106/7/3
f 107/9/2 113/21/2 111/20/2 99/8/2
f 106/7/5 110/10/5 108/10/5 100/7/5
f 111/20/4 113/21/4 114/21/4 112/20/4
f 109/16/6 114/23/6 113/22/6 107/19/6
f 105/8/3 112/20/3 114/21/3 109/9/3
f 99/12/1 111/25/1 112/24/1 105/11/1
f 118/26/3 126/29/3 125/28/3 117/27/3
f 117/27/54 121/31/54 122/30/54 118/26/54
f 121/31/6 119/32/6 120/30/6 122/30/6
f 119/32/2 115/33/2 116/26/2 120/30/2
f 117/27/55 115/33/55 119/32/55 121/31/55
f 122/30/5 120/30/5 116/26/5 118/26/5
f 124/29/5 128/34/5 130/34/5 126/29/5
f 115/33/2 123/35/2 124/29/2 116/26/2
f 126/29/1 142/36/1 141/36/1 124/29/1
f 117/27/56 125/28/56 123/35/56 115/33/56
f 130/34/3 134/39/3 133/38/3 129/37/3
f 125/28/57 129/37/57 127/40/57 123/35/57
f 126/29/58 130/34/58 129/37/58 125/28/58
f 123/35/2 127/40/2 128/34/2 124/29/2
f 131/41/1 133/38/1 134/39/1 132/39/1
f 127/40/2 131/41/2 132/39/2 128/34/2
f 132/39/2 137/43/2 135/42/2 128/34/2
f 129/37/59 133/38/59 131/41/59 127/40/59
f 135/42/13 137/43/13 138/43/13 136/42/13
f 134/39/14 138/43/14 137/43/14 132/39/14
f 128/34/6 135/42/6 136/42/6 130/34/6
f 130/34/3 136/42/3 138/43/3 134/39/3
f 139/44/5 141/36/5 142/36/5 140/44/5
f 118/26/3 140/44/3 142/36/3 126/29/3
f 116/26/6 139/44/6 140/44/6 118/26/6
f 124/29/2 141/36/2 139/44/2 116/26/2
f 149/45/60 157/48/60 146/47/60 151/46/60
f 151/46/61 146/47/61 145/50/61 153/49/61
f 147/51/62 149/45/62 150/53/62 148/52/62
f 149/45/63 151/46/63 152/54/63 150/53/63
f 151/46/64 153/49/64 154/55/64 152/54/64
f 153/49/65 155/57/65 156/56/65 154/55/65
f 147/51/66 158/58/66 157/48/66 149/45/66
f 144/59/22 145/63/22 146/62/22 157/61/22 158/60/22
f 153/49/67 145/50/67 144/64/67 155/57/67
f 162/65/68 167/68/68 166/67/68 161/66/68
f 152/54/69 160/70/69 159/69/69 150/53/69
f 155/57/3 144/64/3 158/58/3 147/51/3
f 156/56/68 162/65/68 161/66/68 154/55/68
f 148/52/3 143/71/3 162/65/3 156/56/3
f 154/55/70 161/66/70 160/70/70 152/54/70
f 150/53/71 159/69/71 143/71/71 148/52/71
f 165/72/69 170/75/69 169/74/69 164/73/69
f 160/70/69 165/72/69 164/73/69 159/69/69
f 159/69/71 164/73/71 163/76/71 143/71/71
f 143/71/3 163/76/3 167/68/3 162/65/3
f 161/66/70 166/67/70 165/72/70 160/70/70
f 171/77/72 176/79/72 175/78/72 170/75/72
f 163/76/3 168/80/3 172/81/3 167/68/3
f 166/67/70 171/77/70 170/75/70 165/72/70
f 164/73/71 169/74/71 168/80/71 163/76/71
f 167/68/68 172/81/68 171/77/68 166/67/68
f 177/82/73 182/84/73 181/83/73 176/79/73
f 169/74/74 174/86/74 173/85/74 168/80/74
f 172/81/75 177/82/75 176/79/75 171/77/75
f 170/75/76 175/78/76 174/86/76 169/74/76
f 168/80/3 173/85/3 177/82/3 172/81/3
f 178/87/33 179/91/33 180/90/33 181/89/33 182/88/33
f 175/78/69 180/93/69 179/92/69 174/86/69
f 173/85/3 178/94/3 182/84/3 177/82/3
f 176/79/70 181/83/70 180/93/70 175/78/70
f 174/86/77 179/92/77 178/94/77 173/85/77
f 193/95/6 187/98/6 188/97/6 194/96/6
f 187/99/78 183/102/78 184/101/78 188/100/78
f 193/95/79 185/104/79 189/103/79 187/98/79
f 194/100/5 188/100/5 184/101/5 192/101/5
f 187/99/80 189/106/80 190/105/80 183/102/80
f 183/102/81 190/105/81 186/105/81 191/107/81
f 186/105/39 190/105/39 189/106/39 185/106/39
f 183/102/82 195/109/82 196/108/82 184/101/82
f 195/109/83 199/111/83 200/110/83 196/108/83
f 184/101/5 196/108/5 198/108/5 192/101/5
f 191/107/84 197/109/84 195/109/84 183/102/84
f 199/111/85 203/113/85 204/112/85 200/110/85
f 196/108/5 200/110/5 202/110/5 198/108/5
f 197/109/4 201/111/4 199/111/4 195/109/4
f 203/113/86 207/115/86 208/114/86 204/112/86
f 200/110/45 204/112/45 206/112/45 202/110/45
f 201/111/87 205/116/87 203/113/87 199/111/87
f 207/115/88 211/118/88 212/117/88 208/114/88
f 204/112/5 208/114/5 210/114/5 206/112/5
f 205/116/89 209/119/89 207/115/89 203/113/89
f 212/117/5 216/120/5 218/120/5 214/117/5
f 208/114/49 212/117/49 214/117/49 210/114/49
f 209/119/89 213/121/89 211/118/89 207/115/89
f 216/120/50 220/122/50 222/122/50 218/120/50
f 213/121/89 217/124/89 215/123/89 211/118/89
f 211/118/90 215/123/90 216/120/90 212/117/90
f 220/122/5 224/125/5 226/125/5 222/122/5
f 217/124/89 221/127/89 219/126/89 215/123/89
f 215/123/91 219/126/91 220/122/91 216/120/91
f 223/128/1 225/129/1 226/125/1 224/125/1
f 221/127/89 225/129/89 223/128/89 219/126/89
f 219/126/92 223/128/92 224/125/92 220/122/92
