# Blender 3.3.1
# www.blender.org
mtllib ColtPyton.mtl
o CPBody
v -0.098997 0.685246 0.020727
v 0.090313 0.685492 0.020727
v -0.109640 0.648388 -0.000312
v 0.099973 0.648139 -0.000312
v -0.255594 0.835765 0.020728
v -0.266237 0.798911 -0.000311
v 0.226406 0.813259 0.019608
v 0.257954 0.790656 -0.000311
v 0.219259 0.945744 0.020728
v 0.261842 0.944226 -0.000311
v 0.198621 1.004483 0.020728
v 0.296798 1.002964 -0.000311
v 0.601039 1.635876 0.093888
v 0.526903 1.059382 0.093886
v -0.885623 0.794550 0.133362
v -1.054553 0.265870 0.133361
v -1.175099 0.154740 -0.000312
v 0.601039 1.657443 -0.000309
v -1.013705 0.785133 -0.000311
v 0.526903 0.993999 -0.000311
v -0.688515 1.145369 0.133362
v -0.672808 0.281374 0.133361
v -0.544726 0.166479 -0.000312
v -0.688515 1.320025 -0.000311
v -0.429009 0.954658 0.133362
v -0.379286 1.375203 -0.000311
v -0.379286 1.375203 0.093886
v -0.429009 0.860480 -0.000311
v -0.244391 1.070282 0.094115
v -0.215794 1.657443 -0.000309
v -0.157842 1.635876 0.093888
v -0.164693 1.002801 -0.000311
v -0.264257 0.795990 -0.000311
v -0.280067 0.868029 0.093886
v -0.533902 1.241802 0.133362
v -0.556562 0.786142 -0.000311
v -0.636613 0.853634 0.133362
v -0.533902 1.328129 -0.000311
v -0.199204 1.330122 0.093886
v -0.156659 1.584949 0.093888
v 0.594218 1.578814 0.093888
v 0.539813 1.152149 0.093886
v 0.542987 1.152146 -0.000311
v -0.228526 1.153360 0.094041
v -0.097940 1.584468 0.093888
v -0.096802 1.153186 0.094021
v 0.379104 1.580572 0.093888
v 0.377922 1.152413 0.093920
v -0.097940 1.584468 -0.000309
v -0.096802 1.153186 -0.000311
v 0.379104 1.580572 -0.000309
v 0.377922 1.152413 -0.000311
v 0.538635 1.347860 0.064890
v 1.988365 1.347860 0.064890
v 0.538635 1.282576 -0.000311
v 0.538635 1.413144 -0.000311
v 1.988365 1.282576 -0.000311
v 1.988365 1.413144 -0.000311
v 0.565124 1.497544 0.090966
v 2.004498 1.497544 0.090966
v 0.565124 1.406186 -0.000311
v 0.565124 1.588900 -0.000309
v 2.004498 1.406186 -0.000311
v 2.004498 1.588900 -0.000309
v -0.098997 0.685246 -0.021351
v 0.090313 0.685492 -0.021351
v -0.255594 0.835765 -0.021350
v 0.226406 0.813259 -0.020230
v 0.219259 0.945744 -0.021350
v 0.198621 1.004483 -0.021350
v 0.601039 1.635876 -0.094505
v 0.526903 1.059382 -0.094508
v -0.885623 0.794550 -0.133986
v -1.054553 0.265870 -0.133986
v -0.688515 1.145369 -0.133985
v -0.672808 0.281374 -0.133986
v -0.429009 0.954658 -0.133985
v -0.379286 1.375203 -0.094507
v -0.244391 1.070282 -0.094737
v -0.157842 1.635876 -0.094505
v -0.280067 0.868029 -0.094508
v -0.533902 1.241802 -0.133984
v -0.636613 0.853634 -0.133985
v -0.199204 1.330122 -0.094507
v -0.156659 1.584949 -0.094505
v 0.594218 1.578814 -0.094505
v 0.539813 1.152149 -0.094508
v -0.228526 1.153360 -0.094663
v -0.097940 1.584468 -0.094505
v -0.096802 1.153186 -0.094643
v 0.379104 1.580572 -0.094505
v 0.377922 1.152413 -0.094542
v 0.538635 1.347860 -0.065511
v 1.988365 1.347860 -0.065511
v 0.565124 1.497544 -0.091582
v 2.004498 1.497544 -0.091582
v 0.597701 1.585213 -0.000392
v 2.003554 1.585213 -0.000392
v 0.597701 1.649533 -0.000392
v 2.003554 1.732148 -0.000392
v 0.592422 1.649871 0.016585
v 2.003135 1.732999 0.016585
v 0.592422 1.649871 -0.017368
v 2.003135 1.732999 -0.017368
v -0.199315 1.655361 0.051278
v -0.199315 1.733104 0.051278
v 0.078434 1.656912 0.051278
v -0.199315 1.655361 0.000004
v -0.199315 1.670060 0.000004
v 0.078434 1.656922 0.000004
v -0.199315 1.733104 0.021034
v -0.199315 1.670060 0.000004
v -0.199315 1.655361 -0.051270
v -0.199315 1.733104 -0.051270
v 0.078434 1.656912 -0.051270
v -0.199315 1.733104 -0.021026
v 0.597701 1.585213 -0.000392
v 2.003554 1.585213 -0.000392
v 0.597701 1.649533 -0.000392
v 2.003554 1.732148 -0.000392
vn -0.0000 -0.4932 0.8699
vn -0.3651 -0.3798 0.8500
vn 0.3365 -0.3625 0.8691
vn 0.4841 0.0021 0.8750
vn 0.2855 -0.0348 0.9577
vn -0.6968 0.4109 0.5878
vn -0.0109 -0.8197 0.5727
vn -0.7617 0.2171 0.6105
vn 0.0205 -0.7632 0.6458
vn 0.0878 0.0321 0.9956
vn -0.2351 0.6955 0.6790
vn 0.3843 -0.7345 0.5593
vn -0.0000 0.9748 0.2232
vn 0.7729 -0.2559 0.5806
vn -0.3065 -0.7790 0.5470
vn 0.7836 -0.0160 0.6210
vn -0.4476 0.8362 0.3168
vn 0.0003 0.0003 1.0000
vn 0.9918 -0.1146 0.0565
vn -0.0000 -0.0000 1.0000
vn -0.7776 0.5513 0.3023
vn 0.1290 0.0252 0.9913
vn -0.0082 -1.0000 -0.0000
vn 0.0016 1.0000 -0.0000
vn 0.0001 0.0003 1.0000
vn -1.0000 -0.0026 -0.0000
vn -1.0000 0.0028 -0.0000
vn 0.0001 -0.0000 1.0000
vn 0.9928 -0.1197 0.0030
vn 1.0000 -0.0000 -0.0000
vn -0.0000 -0.7067 0.7076
vn -0.0000 0.7067 0.7076
vn -1.0000 -0.0000 -0.0000
vn -0.0000 -0.7068 0.7074
vn -0.0000 0.7068 0.7074
vn -0.0000 -0.4932 -0.8699
vn -0.3651 -0.3798 -0.8500
vn 0.3365 -0.3625 -0.8691
vn 0.4841 0.0021 -0.8750
vn 0.2855 -0.0348 -0.9577
vn -0.6968 0.4109 -0.5878
vn -0.0109 -0.8197 -0.5727
vn -0.7617 0.2171 -0.6105
vn 0.0205 -0.7632 -0.6458
vn 0.0878 0.0321 -0.9956
vn -0.2351 0.6955 -0.6790
vn 0.3843 -0.7345 -0.5593
vn -0.0000 0.9748 -0.2232
vn 0.7729 -0.2559 -0.5806
vn -0.3065 -0.7790 -0.5470
vn 0.7836 -0.0160 -0.6210
vn -0.4476 0.8362 -0.3168
vn 0.0003 0.0003 -1.0000
vn 0.9918 -0.1146 -0.0565
vn -0.0000 -0.0000 -1.0000
vn -0.7776 0.5513 -0.3023
vn 0.1290 0.0252 -0.9913
vn 0.0001 0.0003 -1.0000
vn 0.0001 -0.0000 -1.0000
vn 0.9928 -0.1197 -0.0030
vn -0.0000 -0.7067 -0.7076
vn -0.0000 0.7067 -0.7076
vn -0.0000 -0.7068 -0.7074
vn -0.0000 0.7068 -0.7074
vn 0.0056 -1.0000 -0.0001
vn 0.1357 0.8440 -0.5188
vn 0.0056 -1.0000 0.0001
vn 0.1357 0.8440 0.5188
vn -0.0588 0.9983 -0.0000
vn 0.6930 0.7210 -0.0000
vn -0.0013 1.0000 -0.0000
vn -0.6845 0.7291 -0.0000
vn -0.9985 -0.0539 -0.0000
vn -0.9435 -0.3315 -0.0000
vt 0.827320 0.839268
vt 0.809123 0.849206
vt 0.831398 0.842712
vt 0.810087 0.857688
vt 0.851048 0.814769
vt 0.856010 0.815152
vt 0.786824 0.855192
vt 0.786511 0.863906
vt 0.770780 0.849919
vt 0.767768 0.857521
vt 0.765512 0.836194
vt 0.761486 0.856868
vt 0.548165 0.914163
vt 0.933459 0.839114
vt 0.527235 0.598131
vt 0.755925 0.833125
vt 0.112809 0.441257
vt 0.063906 0.152197
vt 0.046721 0.102207
vt 0.548165 0.925987
vt 0.936058 0.826707
vt 0.087254 0.430596
vt 0.527235 0.562287
vt 0.747625 0.819324
vt 0.184095 0.645267
vt 0.171713 0.158997
vt 0.206984 0.103938
vt 0.181528 0.705404
vt 0.182520 0.737191
vt 0.257359 0.540721
vt 0.271397 0.771264
vt 0.259489 0.761240
vt 0.259489 0.761240
vt 0.271397 0.771264
vt 0.251847 0.498267
vt 0.309481 0.604105
vt 0.360077 0.925987
vt 0.311506 0.863376
vt 0.376438 0.914163
vt 0.327158 0.869333
vt 0.333916 0.914163
vt 0.331982 0.567114
vt 0.323857 0.578643
vt 0.299541 0.455269
vt 0.299409 0.493231
vt 0.227746 0.698132
vt 0.196468 0.447276
vt 0.183244 0.472538
vt 0.227746 0.745458
vt 0.322238 0.746550
vt 0.334250 0.897804
vt 0.334250 0.886246
vt 0.546239 0.894442
vt 0.546239 0.882883
vt 0.530880 0.648985
vt 0.786117 0.833381
vt 0.792483 0.821948
vt 0.313960 0.649647
vt 0.350827 0.897541
vt 0.350827 0.885983
vt 0.604010 0.787512
vt 0.351148 0.649554
vt 0.415466 0.784978
vt 0.485508 0.895405
vt 0.602627 0.761658
vt 0.494957 0.883846
vt 0.485174 0.649130
vt 0.417757 0.758895
vt 0.494623 0.649130
vt 0.604010 0.787512
vt 0.415466 0.784978
vt 0.602627 0.761658
vt 0.417757 0.758895
vt 0.559609 0.758648
vt 0.625000 0.000000
vt 0.537570 0.776019
vt 0.951980 0.758648
vt 0.559609 0.732267
vt 0.375000 0.125000
vt 0.559609 0.785028
vt 0.625000 0.125000
vt 0.514454 0.778551
vt 0.951980 0.732267
vt 0.523170 0.669984
vt 0.951980 0.785028
vt 0.727933 0.847723
vt 0.625000 0.000000
vt 0.775522 0.307157
vt 0.963934 0.842681
vt 0.727768 0.813688
vt 0.375000 0.125000
vt 0.728098 0.881757
vt 0.625000 0.125000
vt 0.821647 0.221379
vt 0.963769 0.808646
vt 0.818956 0.396066
vt 0.964099 0.876716
vt 0.827320 0.839268
vt 0.809123 0.849206
vt 0.851048 0.814769
vt 0.786824 0.855192
vt 0.770780 0.849919
vt 0.765512 0.836194
vt 0.548165 0.914163
vt 0.933459 0.839114
vt 0.527235 0.598131
vt 0.755925 0.833125
vt 0.112809 0.441257
vt 0.063906 0.152197
vt 0.184095 0.645267
vt 0.171713 0.158997
vt 0.257359 0.540721
vt 0.259489 0.761240
vt 0.271397 0.771264
vt 0.309481 0.604105
vt 0.376438 0.914163
vt 0.327158 0.869333
vt 0.333916 0.914163
vt 0.299409 0.493231
vt 0.227746 0.698132
vt 0.183244 0.472538
vt 0.322238 0.746550
vt 0.334250 0.897804
vt 0.334250 0.886246
vt 0.546239 0.894442
vt 0.546239 0.882883
vt 0.530880 0.648985
vt 0.786117 0.833381
vt 0.313960 0.649647
vt 0.350827 0.897541
vt 0.350827 0.885983
vt 0.604010 0.787512
vt 0.351148 0.649554
vt 0.415466 0.784978
vt 0.485508 0.895405
vt 0.602627 0.761658
vt 0.494957 0.883846
vt 0.485174 0.649130
vt 0.417757 0.758895
vt 0.494623 0.649130
vt 0.559609 0.758648
vt 0.625000 0.000000
vt 0.537570 0.776019
vt 0.951980 0.758648
vt 0.727933 0.847723
vt 0.625000 0.000000
vt 0.775522 0.307157
vt 0.963934 0.842681
vt 0.558603 0.888065
vt 0.960630 0.873078
vt 0.558603 0.921152
vt 0.960630 0.938244
vt 0.594952 0.831829
vt 0.725048 0.831829
vt 0.594952 0.858580
vt 0.725048 0.858580
vt 0.525134 0.835291
vt 0.510401 0.820558
vt 0.525134 0.776360
vt 0.539866 0.835291
vt 0.539866 0.776360
vt 0.554599 0.820558
vt 0.525134 0.820558
vt 0.539866 0.820558
vt 0.510401 0.813192
vt 0.525134 0.783726
vt 0.539866 0.783726
vt 0.554599 0.813192
vt 0.525134 0.813192
vt 0.539866 0.813192
vt 0.554599 0.820558
vt 0.554599 0.813192
vt 0.525134 0.835291
vt 0.510401 0.820558
vt 0.525134 0.776360
vt 0.539866 0.835291
vt 0.539866 0.776360
vt 0.554599 0.820558
vt 0.525134 0.820558
vt 0.539866 0.820558
vt 0.554599 0.820558
vt 0.558603 0.888065
vt 0.960630 0.873078
vt 0.558603 0.921152
vt 0.960630 0.938244
s 0
usemtl Material.031
f 1/1/1 3/3/1 4/4/1 2/2/1
f 1/1/2 5/5/2 6/6/2 3/3/2
f 4/4/3 8/8/3 7/7/3 2/2/3
f 8/8/4 10/10/4 9/9/4 7/7/4
f 10/10/5 12/12/5 11/11/5 9/9/5
f 24/28/6 19/22/6 15/17/6 21/25/6
f 32/42/7 20/23/7 14/15/7 29/36/7
f 19/22/8 17/19/8 16/18/8 15/17/8
f 17/19/9 23/27/9 22/26/9 16/18/9
f 37/48/10 25/30/10 27/34/10 35/46/10
f 38/49/11 24/29/11 21/25/11 35/46/11
f 36/47/12 28/35/12 25/30/12 37/48/12
f 18/20/13 30/37/13 31/39/13 13/13/13
f 33/44/14 32/43/14 29/36/14 34/45/14
f 28/35/15 33/44/15 34/45/15 25/30/15
f 23/27/16 36/47/16 37/48/16 22/26/16
f 26/31/17 38/49/17 35/46/17 27/34/17
f 14/15/18 42/55/18 48/67/18 46/62/18 44/58/18 29/36/18
f 20/24/19 43/57/19 42/56/19 14/16/19
f 22/26/20 37/48/20 15/17/20 16/18/20
f 30/38/21 26/32/21 27/33/21 31/40/21
f 25/30/22 34/45/22 39/50/22 27/34/22
f 15/17/20 37/48/20 35/46/20 21/25/20
f 31/41/20 27/34/20 39/50/20 40/52/20
f 40/51/20 45/59/20 47/64/20 41/53/20 13/13/20 31/41/20
f 47/65/23 45/61/23 49/70/23 51/72/23
f 46/63/24 48/68/24 52/73/24 50/71/24
f 44/58/25 46/62/25 45/60/25 40/52/25
f 50/71/26 46/63/26 45/61/26 49/70/26
f 52/73/27 48/68/27 47/65/27 51/72/27
f 47/66/28 48/69/28 42/55/28 41/54/28
f 43/57/29 18/21/29 13/14/29 42/56/29
f 57/82/30 58/84/30 54/76/30
f 55/78/31 57/83/31 54/77/31 53/74/31
f 58/85/32 56/80/32 53/74/32 54/77/32
f 53/75/33 56/81/33 55/79/33
f 63/94/30 64/96/30 60/88/30
f 61/90/34 63/95/34 60/89/34 59/86/34
f 64/97/35 62/92/35 59/86/35 60/89/35
f 59/87/33 62/93/33 61/91/33
f 65/98/36 66/99/36 4/4/36 3/3/36
f 65/98/37 3/3/37 6/6/37 67/100/37
f 4/4/38 66/99/38 68/101/38 8/8/38
f 8/8/39 68/101/39 69/102/39 10/10/39
f 10/10/40 69/102/40 70/103/40 12/12/40
f 24/28/41 75/110/41 73/108/41 19/22/41
f 32/42/42 79/115/42 72/106/42 20/23/42
f 19/22/43 73/108/43 74/109/43 17/19/43
f 17/19/44 74/109/44 76/111/44 23/27/44
f 83/121/45 82/120/45 78/114/45 77/112/45
f 38/49/46 82/120/46 75/110/46 24/29/46
f 36/47/47 83/121/47 77/112/47 28/35/47
f 18/20/48 71/104/48 80/116/48 30/37/48
f 33/44/49 81/119/49 79/115/49 32/43/49
f 28/35/50 77/112/50 81/119/50 33/44/50
f 23/27/51 76/111/51 83/121/51 36/47/51
f 26/31/52 78/114/52 82/120/52 38/49/52
f 72/106/53 79/115/53 88/129/53 90/133/53 92/138/53 87/127/53
f 20/24/54 72/107/54 87/128/54 43/57/54
f 76/111/55 74/109/55 73/108/55 83/121/55
f 30/38/56 80/117/56 78/113/56 26/32/56
f 77/112/57 78/114/57 84/122/57 81/119/57
f 73/108/55 75/110/55 82/120/55 83/121/55
f 80/118/55 85/124/55 84/122/55 78/114/55
f 85/123/55 80/118/55 71/104/55 86/125/55 91/135/55 89/130/55
f 91/136/23 51/72/23 49/70/23 89/132/23
f 90/134/24 50/71/24 52/73/24 92/139/24
f 88/129/58 85/124/58 89/131/58 90/133/58
f 50/71/26 49/70/26 89/132/26 90/134/26
f 52/73/27 51/72/27 91/136/27 92/139/27
f 91/137/59 86/126/59 87/127/59 92/140/59
f 43/57/60 87/128/60 71/105/60 18/21/60
f 57/82/30 94/143/30 58/84/30
f 55/78/61 93/141/61 94/144/61 57/83/61
f 58/85/62 94/144/62 93/141/62 56/80/62
f 93/142/33 55/79/33 56/81/33
f 63/94/30 96/147/30 64/96/30
f 61/90/63 95/145/63 96/148/63 63/95/63
f 64/97/64 96/148/64 95/145/64 62/92/64
f 95/146/33 61/91/33 62/93/33
f 107/164/20 106/160/20 105/157/20
f 108/165/65 110/169/65 107/163/65 105/158/65
f 110/170/66 109/168/66 106/162/66 107/164/66
f 105/159/33 106/161/33 109/167/33 108/166/33
f 109/168/33 106/162/33 111/171/33 112/172/33
f 115/180/55 113/173/55 114/176/55
f 108/165/67 113/174/67 115/179/67 110/169/67
f 110/170/68 115/180/68 114/178/68 109/168/68
f 113/175/33 108/166/33 109/167/33 114/177/33
f 109/168/33 112/172/33 116/181/33 114/178/33
f 5/5/70 1/1/70 65/98/70 67/100/70
f 2/2/71 66/99/71 65/98/71 1/1/71
f 7/7/72 68/101/72 66/99/72 2/2/72
f 9/9/73 69/102/73 68/101/73 7/7/73
f 11/11/74 70/103/74 69/102/74 9/9/74
usemtl Material.032
f 97/149/20 98/150/20 100/152/20 99/151/20
f 101/153/69 102/154/69 104/156/69 103/155/69
f 117/182/55 119/184/55 120/185/55 118/183/55
o CPBullet
v 0.763219 0.636960 -0.009981
v 0.763219 0.972815 -0.009980
v 0.708885 0.636960 -0.064315
v 0.708885 0.972815 -0.064314
v 0.817553 0.636960 -0.064315
v 0.817553 0.972815 -0.064314
v 0.763219 1.072474 -0.037251
v 0.737880 1.072474 -0.064314
v 0.788558 1.072474 -0.064314
v 0.763219 0.636960 -0.118650
v 0.763219 0.972815 -0.118649
v 0.763219 1.072474 -0.091375
vn 0.7071 -0.0000 0.7071
vn -0.7071 -0.0000 0.7071
vn -0.0000 -1.0000 -0.0000
vn 0.7008 0.1958 0.6860
vn -0.7008 0.1958 0.6860
vn 0.7071 -0.0000 -0.7071
vn -0.7071 -0.0000 -0.7071
vn -0.0000 1.0000 -0.0000
vn 0.7008 0.1958 -0.6860
vn -0.7008 0.1958 -0.6860
vt 0.721409 0.769745
vt 0.872245 0.896722
vt 0.225979 0.761354
vt 0.208918 0.745377
vt 0.770126 0.719124
vt 0.722189 0.654546
vt 0.226760 0.646155
vt 0.209698 0.630177
vt 0.974364 0.719124
vt 0.720628 0.875814
vt 0.225198 0.876553
vt 0.208137 0.860576
vt 0.087423 0.742887
vt 0.089100 0.693729
vt 0.087059 0.789763
vt 0.872245 0.541525
vt 0.721409 0.769745
vt 0.225979 0.761354
vt 0.208918 0.745377
vt 0.087423 0.742887
s 0
usemtl Material.033
f 125/195/75 126/196/75 122/188/75 121/186/75
f 121/186/76 122/188/76 124/192/76 123/191/76
f 121/187/77 123/190/77 130/201/77 125/194/77
f 122/189/78 126/197/78 129/200/78 127/198/78
f 124/193/79 122/189/79 127/198/79 128/199/79
f 125/195/80 130/202/80 131/203/80 126/196/80
f 130/202/81 123/191/81 124/192/81 131/203/81
f 128/199/82 127/198/82 129/200/82 132/205/82
f 131/204/83 132/205/83 129/200/83 126/197/83
f 124/193/84 128/199/84 132/205/84 131/204/84
o CPCyilnder
v -0.074722 1.248481 0.185630
v -0.074722 1.469367 0.185631
v 0.366969 1.248481 0.185630
v 0.366969 1.469367 0.185631
v -0.074722 1.138178 -0.000372
v -0.074722 1.579867 -0.000370
v 0.366969 1.138178 -0.000372
v 0.366969 1.579867 -0.000370
v -0.074722 1.248481 -0.186374
v -0.074722 1.469367 -0.186374
v 0.366969 1.248481 -0.186374
v 0.366969 1.469367 -0.186374
vn 1.0000 -0.0000 -0.0000
vn -0.0000 -0.0000 1.0000
vn -0.0000 -0.8601 0.5101
vn -0.0000 0.8597 0.5107
vn -1.0000 -0.0000 -0.0000
vn -0.0000 -0.0000 -1.0000
vn -0.0000 -0.8601 -0.5101
vn -0.0000 0.8597 -0.5107
vt 0.661896 0.678423
vt 0.385894 0.021731
vt 0.661896 0.828984
vt 0.510360 0.252345
vt -0.002613 0.781862
vt 0.962961 0.678423
vt 0.160275 0.995188
vt 0.962961 0.828984
vt 0.661896 0.603239
vt 0.129142 0.011161
vt 0.661896 0.904304
vt 0.378027 0.472304
vt 0.095684 0.538174
vt 0.962961 0.603239
vt 0.417458 0.954244
vt 0.962961 0.904304
vt 0.661896 0.678423
vt -0.003302 0.230914
vt 0.661896 0.828984
vt 0.121163 0.461528
vt -0.002613 0.781862
vt 0.962961 0.678423
vt 0.160275 0.995188
vt 0.962961 0.828984
s 0
usemtl Material.034
f 139/218/85 140/220/85 136/212/85 135/210/85
f 135/211/86 136/213/86 134/208/86 133/206/86
f 137/214/87 139/219/87 135/211/87 133/206/87
f 140/221/88 138/216/88 134/208/88 136/213/88
f 133/207/89 134/209/89 138/217/89 137/215/89
f 139/218/85 143/226/85 144/228/85 140/220/85
f 143/227/90 141/222/90 142/224/90 144/229/90
f 137/214/91 141/222/91 143/227/91 139/219/91
f 140/221/92 144/229/92 142/224/92 138/216/92
f 141/223/89 137/215/89 138/217/89 142/225/89
o CPCyilnderFull
v -0.074722 1.248481 -0.284882
v -0.074722 1.469367 -0.284881
v 0.366969 1.248481 -0.284882
v 0.366969 1.469367 -0.284881
v -0.074722 1.138178 -0.470884
v -0.074722 1.579867 -0.470883
v 0.366969 1.138178 -0.470884
v 0.366969 1.579867 -0.470883
v -0.074722 1.248481 -0.656886
v -0.074722 1.469367 -0.656886
v 0.366969 1.248481 -0.656886
v 0.366969 1.469367 -0.656886
vn 1.0000 -0.0000 -0.0000
vn -0.0000 -0.0000 1.0000
vn -0.0000 -0.8601 0.5101
vn -0.0000 0.8597 0.5107
vn -1.0000 -0.0000 -0.0000
vn -0.0000 -0.0000 -1.0000
vn -0.0000 -0.8601 -0.5101
vn -0.0000 0.8597 -0.5107
vt 0.661896 0.678423
vt 0.883576 0.013889
vt 0.661896 0.828984
vt 1.008041 0.244503
vt -0.002613 0.781862
vt 0.962961 0.678423
vt 0.160275 0.995188
vt 0.962961 0.828984
vt 0.661896 0.603239
vt 0.626824 0.003320
vt 0.661896 0.904304
vt 0.875709 0.464462
vt 0.095684 0.538174
vt 0.962961 0.603239
vt 0.417458 0.954244
vt 0.962961 0.904304
vt 0.661896 0.678423
vt 0.494380 0.223072
vt 0.661896 0.828984
vt 0.618845 0.453686
vt -0.002613 0.781862
vt 0.962961 0.678423
vt 0.160275 0.995188
vt 0.962961 0.828984
s 0
usemtl Material.034
f 151/242/93 152/244/93 148/236/93 147/234/93
f 147/235/94 148/237/94 146/232/94 145/230/94
f 149/238/95 151/243/95 147/235/95 145/230/95
f 152/245/96 150/240/96 146/232/96 148/237/96
f 145/231/97 146/233/97 150/241/97 149/239/97
f 151/242/93 155/250/93 156/252/93 152/244/93
f 155/251/98 153/246/98 154/248/98 156/253/98
f 149/238/99 153/246/99 155/251/99 151/243/99
f 152/245/100 156/253/100 154/248/100 150/240/100
f 153/247/97 149/239/97 150/241/97 154/249/97
o CPTrigger&Hammer
v -0.542433 1.316252 0.017364
v -0.445452 1.403785 0.017364
v -0.399438 1.261711 0.017364
v -0.320600 1.351830 0.017364
v -0.563857 1.579734 0.015930
v -0.282725 1.431483 0.017364
v -0.336300 1.532337 0.017366
v -0.290709 1.598925 0.017366
v -0.243808 1.605434 0.017366
v -0.343227 1.438786 0.017364
v -0.516884 1.603939 0.017176
v -0.442196 1.549660 0.012847
v -0.542433 1.316252 -0.018152
v -0.445452 1.403785 -0.018152
v -0.399438 1.261711 -0.018152
v -0.320600 1.351830 -0.018152
v -0.563857 1.579734 -0.016714
v -0.282725 1.431483 -0.018152
v -0.336300 1.532337 -0.018150
v -0.290709 1.598925 -0.018150
v -0.243808 1.605434 -0.018150
v -0.343227 1.438786 -0.018152
v -0.516884 1.603939 -0.017961
v -0.442196 1.549660 -0.013632
v 0.036705 0.707688 0.000856
v 0.028490 0.740147 0.000856
v -0.214517 1.058108 0.000857
v 0.060927 1.091699 0.000857
v -0.057757 0.923554 0.000857
v 0.039931 0.912357 0.000857
v -0.069289 0.790656 0.000857
v -0.021325 0.825415 0.000857
v 0.036705 0.707688 0.000856
v 0.028490 0.740147 0.000856
v -0.214517 1.058108 0.000857
v 0.060927 1.091699 0.000857
v -0.057757 0.923554 0.000857
v 0.039931 0.912357 0.000857
v -0.069289 0.790656 0.000857
v -0.021325 0.825415 0.000857
vn -0.0000 -0.0000 1.0000
vn 0.0085 -0.0679 0.9977
vn 0.7460 0.6659 -0.0000
vn 0.2400 0.9708 -0.0000
vn 0.4580 -0.8889 -0.0000
vn -0.0512 -0.0527 0.9973
vn 0.6700 -0.7423 -0.0000
vn -0.0000 -0.0000 -1.0000
vn 0.0085 -0.0679 -0.9977
vn 0.3239 -0.9461 -0.0000
vn -0.0512 -0.0526 -0.9973
vn 0.3686 0.9296 -0.0000
vn -0.8251 0.5649 -0.0000
vn 0.9759 -0.2183 -0.0000
vn -0.1375 0.9905 -0.0000
vt 0.278484 0.811185
vt 0.289524 0.861348
vt 0.275864 0.834512
vt 0.287023 0.854821
vt 0.284391 0.838281
vt 0.277293 0.851178
vt 0.271279 0.852504
vt 0.000000 0.000000
vt 0.283620 0.844395
vt 0.270933 0.857565
vt 0.290781 0.825555
vt 0.625000 0.750000
vt 0.284277 0.846947
vt 0.284316 0.841188
vt 0.283902 0.846548
vt 0.292995 0.880080
vt 0.282441 0.842635
vt 0.298222 0.890142
vt 0.625000 0.750000
vt 0.282218 0.842199
vt 0.270177 0.848072
vt 0.279212 0.828267
vt 0.274045 0.847646
vt 0.285829 0.851941
vt 0.280261 0.861491
vt 0.296713 0.872832
vt 0.282878 0.842750
vt 0.290900 0.848218
vt 0.284005 0.845747
vt 0.000000 0.000000
vt 0.290417 0.864198
vt 0.290689 0.859735
vt 0.278130 0.843414
vt 0.276895 0.833952
vt 0.288130 0.853306
vt 0.285167 0.841047
vt 0.284749 0.827485
vt 0.000000 0.000000
vt 0.284732 0.842898
vt 0.294817 0.860785
vt 0.282910 0.817668
vt 0.276665 0.841890
vt 0.625000 0.750000
vt 0.280182 0.854518
vt 0.284952 0.845130
vt 0.277226 0.863066
vt 0.283470 0.841254
vt 0.273772 0.859197
vt 0.625000 0.750000
vt 0.283221 0.840853
vt 0.279841 0.822355
vt 0.286875 0.850515
vt 0.280532 0.842929
vt 0.291974 0.863837
vt 0.284042 0.841187
vt 0.284838 0.844622
vt 0.000000 0.000000
vt 0.286957 0.856906
vt 0.496693 0.803038
vt 0.546960 0.803038
vt 0.496693 0.873148
vt 0.546960 0.873148
vt 0.496693 0.848572
vt 0.546960 0.848572
vt 0.496693 0.824477
vt 0.546960 0.824477
vt 0.496693 0.803038
vt 0.546960 0.803038
vt 0.496693 0.873148
vt 0.546960 0.873148
vt 0.496693 0.848572
vt 0.546960 0.848572
vt 0.496693 0.824477
vt 0.546960 0.824477
s 0
usemtl Material.035
f 159/258/101 160/259/101 158/256/101 157/254/101
f 161/260/102 168/281/102 167/278/102
f 166/277/103 178/305/103 180/309/103 168/282/103
f 166/274/101 158/256/101 160/259/101 162/263/101
f 163/266/101 166/275/101 162/264/101 165/271/101 164/269/101
f 173/291/104 161/261/104 168/283/104 180/310/104
f 161/262/105 173/292/105 179/308/105 167/280/105
f 167/279/106 168/284/106 166/276/106 163/267/106
f 157/255/107 169/285/107 170/288/107 158/257/107
f 171/289/108 169/286/108 170/287/108 172/290/108
f 173/293/109 179/307/109 180/311/109
f 178/304/108 174/294/108 172/290/108 170/287/108
f 175/297/108 176/299/108 177/301/108 174/295/108 178/306/108
f 178/305/110 166/277/110 158/257/110 170/288/110
f 179/307/111 175/297/111 178/306/111 180/311/111
f 163/268/112 175/298/112 179/308/112 167/280/112
f 164/270/113 176/300/113 175/298/113 163/268/113
f 165/272/114 162/265/114 174/296/114 177/302/114
f 164/270/115 165/273/115 177/303/115 176/300/115
f 185/316/101 186/317/101 184/315/101 183/314/101
f 187/318/101 188/319/101 186/317/101 185/316/101
f 181/312/101 182/313/101 188/319/101 187/318/101
f 193/324/108 191/322/108 192/323/108 194/325/108
f 195/326/108 193/324/108 194/325/108 196/327/108
f 189/320/108 195/326/108 196/327/108 190/321/108
