# Blender 3.6.5
# www.blender.org
mtllib EspadaSword.mtl
o Espada
v 0.000000 0.077365 0.006911
v 0.000000 0.719458 0.007544
v 0.000000 0.738520 0.014745
v 0.000000 0.715904 0.018362
v 0.000000 0.743420 0.018362
v 0.037823 0.715611 0.011201
v 0.040054 0.739821 0.011201
v 0.102130 0.727052 0.004901
v 0.093686 0.703798 0.004901
v 0.020026 0.738520 -0.000000
v 0.016705 0.057938 -0.000000
v 0.033750 0.719191 -0.000000
v 0.037274 0.715603 -0.000000
v 0.039405 0.739803 -0.000000
v 0.105194 0.725894 -0.000000
v 0.095776 0.703204 -0.000000
v 0.000000 0.743364 -0.000000
v 0.000000 0.715904 -0.000000
v 0.000000 0.000500 -0.000000
v 0.000000 0.893000 0.011190
v 0.011190 0.893000 -0.000000
v 0.070805 0.712626 0.006456
v 0.070805 0.712534 -0.000000
v 0.074793 0.734392 0.006456
v 0.073681 0.734184 -0.000000
v 0.000000 0.795495 0.013305
v 0.000000 0.845860 0.012136
v 0.017799 0.795495 -0.000000
v 0.015440 0.845860 -0.000000
v 0.000000 0.943864 -0.000000
v 0.000000 0.943864 0.014434
v 0.024851 0.929338 -0.000000
v 0.024851 0.929338 0.014434
v 0.024851 0.900285 -0.000000
v 0.024851 0.900285 0.014434
v 0.000000 0.885758 -0.000000
v 0.000000 0.885758 0.014434
v -0.037823 0.715611 0.011201
v -0.040054 0.739821 0.011201
v -0.102130 0.727052 0.004901
v -0.093686 0.703798 0.004901
v -0.020026 0.738520 -0.000000
v -0.016705 0.057938 -0.000000
v -0.033750 0.719191 -0.000000
v -0.037274 0.715603 -0.000000
v -0.039405 0.739803 -0.000000
v -0.105194 0.725894 -0.000000
v -0.095776 0.703204 -0.000000
v -0.011190 0.893000 -0.000000
v -0.070805 0.712626 0.006456
v -0.070805 0.712534 -0.000000
v -0.074793 0.734392 0.006456
v -0.073681 0.734184 -0.000000
v -0.017799 0.795495 -0.000000
v -0.015440 0.845860 -0.000000
v -0.024851 0.929338 -0.000000
v -0.024851 0.929338 0.014434
v -0.024851 0.900285 -0.000000
v -0.024851 0.900285 0.014434
v 0.000000 0.077365 -0.006911
v 0.000000 0.719458 -0.007545
v 0.000000 0.738520 -0.014745
v 0.000000 0.715904 -0.018363
v 0.000000 0.743420 -0.018363
v 0.037823 0.715611 -0.011201
v 0.040054 0.739821 -0.011201
v 0.102130 0.727052 -0.004901
v 0.093686 0.703798 -0.004901
v 0.000000 0.893000 -0.011190
v 0.070805 0.712626 -0.006457
v 0.074793 0.734392 -0.006457
v 0.000000 0.795495 -0.013305
v 0.000000 0.845860 -0.012136
v 0.000000 0.943864 -0.014435
v 0.024851 0.929338 -0.014435
v 0.024851 0.900285 -0.014435
v 0.000000 0.885758 -0.014435
v -0.037823 0.715611 -0.011201
v -0.040054 0.739821 -0.011201
v -0.102130 0.727052 -0.004901
v -0.093686 0.703798 -0.004901
v -0.070805 0.712626 -0.006457
v -0.074793 0.734392 -0.006457
v -0.024851 0.929338 -0.014435
v -0.024851 0.900285 -0.014435
vn 0.2075 0.9769 -0.0513
vn 0.2542 0.9644 -0.0723
vn 0.2549 0.9670 -0.0000
vn 0.2007 0.9796 -0.0000
vn 0.2740 -0.0041 0.9617
vn -0.0000 -0.0239 0.9997
vn 0.2890 -0.0639 0.9552
vn 0.0956 -0.0170 0.9953
vn 0.4962 -0.1893 0.8473
vn 0.5086 -0.1942 0.8388
vn 0.0974 -0.0171 0.9951
vn 0.9320 -0.3623 -0.0000
vn -0.0000 1.0000 -0.0000
vn -0.0000 1.0000 -0.0045
vn 0.1208 0.9926 -0.0156
vn 0.1216 0.9926 -0.0000
vn 0.1590 -0.0130 0.9872
vn -0.0000 -0.0079 1.0000
vn 0.1591 -0.0130 0.9872
vn -0.2249 -0.9744 -0.0000
vn -0.3550 -0.9349 -0.0000
vn -0.3550 -0.9348 -0.0088
vn -0.2158 -0.9764 0.0004
vn -0.0000 -1.0000 0.0004
vn -0.0000 -1.0000 -0.0000
vn -0.0477 -0.9989 -0.0000
vn -0.0460 -0.9989 0.0041
vn -0.0000 -0.0895 0.9960
vn -0.0000 0.0283 0.9996
vn -0.0000 0.0271 0.9996
vn 0.5955 0.0218 0.8031
vn 0.6015 0.0226 0.7986
vn -0.0000 0.0495 0.9988
vn -0.0000 0.0391 0.9992
vn 0.6325 0.0301 0.7740
vn 0.6584 0.0372 0.7517
vn -0.0000 0.7930 0.6092
vn 0.6870 0.3942 0.6104
vn 0.8674 0.4977 -0.0000
vn 0.6870 -0.3942 0.6104
vn 0.8674 -0.4977 -0.0000
vn -0.0000 -0.7930 0.6092
vn -0.2075 0.9769 -0.0513
vn -0.2007 0.9796 -0.0000
vn -0.2549 0.9670 -0.0000
vn -0.2542 0.9644 -0.0723
vn -0.2740 -0.0041 0.9617
vn -0.2890 -0.0639 0.9552
vn -0.0956 -0.0170 0.9953
vn -0.0974 -0.0171 0.9951
vn -0.5086 -0.1942 0.8388
vn -0.4962 -0.1893 0.8473
vn -0.9320 -0.3623 -0.0000
vn -0.1216 0.9926 -0.0000
vn -0.1208 0.9926 -0.0156
vn -0.1590 -0.0130 0.9872
vn -0.1591 -0.0130 0.9872
vn 0.2249 -0.9744 -0.0000
vn 0.2158 -0.9764 0.0004
vn 0.3550 -0.9348 -0.0088
vn 0.3550 -0.9349 -0.0000
vn 0.0460 -0.9989 0.0041
vn 0.0477 -0.9989 -0.0000
vn -0.6015 0.0226 0.7986
vn -0.5955 0.0218 0.8031
vn -0.6584 0.0372 0.7517
vn -0.6325 0.0301 0.7740
vn -0.8674 0.4977 -0.0000
vn -0.6870 0.3942 0.6104
vn -0.8674 -0.4977 -0.0000
vn -0.6870 -0.3942 0.6104
vn 0.2075 0.9769 0.0513
vn 0.2542 0.9644 0.0723
vn 0.2740 -0.0041 -0.9617
vn 0.2890 -0.0639 -0.9552
vn -0.0000 -0.0239 -0.9997
vn 0.0956 -0.0170 -0.9953
vn 0.0974 -0.0171 -0.9951
vn 0.5086 -0.1942 -0.8388
vn 0.4962 -0.1893 -0.8473
vn 0.1208 0.9926 0.0156
vn -0.0000 1.0000 0.0045
vn 0.1590 -0.0130 -0.9872
vn 0.1591 -0.0130 -0.9872
vn -0.0000 -0.0079 -1.0000
vn -0.2158 -0.9764 -0.0004
vn -0.3550 -0.9348 0.0088
vn -0.0000 -1.0000 -0.0004
vn -0.0460 -0.9989 -0.0041
vn -0.0000 -0.0895 -0.9960
vn -0.0000 0.0283 -0.9996
vn 0.6015 0.0226 -0.7986
vn 0.5955 0.0218 -0.8031
vn -0.0000 0.0271 -0.9996
vn -0.0000 0.0495 -0.9988
vn 0.6584 0.0372 -0.7517
vn 0.6325 0.0301 -0.7740
vn -0.0000 0.0391 -0.9992
vn 0.6870 0.3942 -0.6104
vn -0.0000 0.7930 -0.6092
vn 0.6870 -0.3942 -0.6104
vn -0.0000 -0.7930 -0.6092
vn -0.2075 0.9769 0.0513
vn -0.2542 0.9644 0.0723
vn -0.2740 -0.0041 -0.9617
vn -0.2890 -0.0639 -0.9552
vn -0.0956 -0.0170 -0.9953
vn -0.4962 -0.1893 -0.8473
vn -0.5086 -0.1942 -0.8388
vn -0.0974 -0.0171 -0.9951
vn -0.1208 0.9926 0.0156
vn -0.1590 -0.0130 -0.9872
vn -0.1591 -0.0130 -0.9872
vn 0.3550 -0.9348 0.0088
vn 0.2158 -0.9764 -0.0004
vn 0.0460 -0.9989 -0.0041
vn -0.5955 0.0218 -0.8031
vn -0.6015 0.0226 -0.7986
vn -0.6325 0.0301 -0.7740
vn -0.6584 0.0372 -0.7517
vn -0.6870 0.3942 -0.6104
vn -0.6870 -0.3942 -0.6104
vt 0.522200 0.760855
vt 0.546500 0.762397
vt 0.546500 0.766586
vt 0.522200 0.768128
vt 0.533439 0.753760
vt 0.501682 0.754007
vt 0.501682 0.089000
vt 0.516109 0.071016
vt 0.522200 0.758064
vt 0.546500 0.758064
vt 0.546500 0.771455
vt 0.522200 0.771455
vt 0.556516 0.771455
vt 0.556516 0.758064
vt 0.464969 0.770021
vt 0.464969 0.758962
vt 0.495546 0.759547
vt 0.495546 0.769436
vt 0.495546 0.771455
vt 0.464969 0.771455
vt 0.464969 0.758064
vt 0.495546 0.758064
vt 0.522200 0.768045
vt 0.546500 0.766538
vt 0.464969 0.769894
vt 0.495546 0.769323
vt 0.501682 0.017844
vt 0.501682 0.835208
vt 0.501682 0.774461
vt 0.522560 0.774461
vt 0.519894 0.835208
vt 0.501682 0.932168
vt 0.501682 0.890097
vt 0.515218 0.890097
vt 0.512344 0.932168
vt 0.484730 0.975243
vt 0.484730 0.957777
vt 0.519368 0.957777
vt 0.519368 0.975243
vt 0.501682 0.990203
vt 0.529559 0.974514
vt 0.529559 0.941895
vt 0.501682 0.926206
s 1
usemtl Espada_material
f 24/1/1 8/2/2 15/3/3 25/4/4
f 12/5/5 2/6/5 1/7/6 11/8/7
f 22/9/8 9/10/9 8/11/10 24/12/11
f 15/13/12 8/11/10 9/10/9 16/14/12
f 17/15/13 5/16/14 7/17/15 14/18/16
f 7/19/17 5/20/18 4/21/18 6/22/19
f 23/23/20 16/24/21 9/2/22 22/1/23
f 4/16/24 18/25/25 13/26/26 6/17/27
f 1/7/6 19/27/28 11/8/7
f 26/28/29 3/29/30 10/30/31 28/31/32
f 13/26/26 23/23/20 22/1/23 6/17/27
f 6/22/19 22/9/8 24/12/11 7/19/17
f 7/17/15 24/1/1 25/4/4 14/18/16
f 20/32/33 27/33/34 29/34/35 21/35/36
f 27/33/34 26/28/29 28/31/32 29/34/35
f 30/36/13 31/37/37 33/38/38 32/39/39
f 32/36/39 33/37/38 35/38/40 34/39/41
f 34/36/41 35/37/40 37/38/42 36/39/25
f 37/40/42 35/41/40 33/42/38 31/43/37
f 52/1/43 53/4/44 47/3/45 40/2/46
f 44/5/47 43/8/48 1/7/6 2/6/47
f 50/9/49 52/12/50 40/11/51 41/10/52
f 47/13/53 48/14/53 41/10/52 40/11/51
f 17/15/13 46/18/54 39/17/55 5/16/14
f 39/19/56 38/22/57 4/21/18 5/20/18
f 51/23/58 50/1/59 41/2/60 48/24/61
f 4/16/24 38/17/62 45/26/63 18/25/25
f 1/7/6 43/8/48 19/27/28
f 26/28/29 54/31/64 42/30/65 3/29/30
f 45/26/63 38/17/62 50/1/59 51/23/58
f 38/22/57 39/19/56 52/12/50 50/9/49
f 39/17/55 46/18/54 53/4/44 52/1/43
f 20/32/33 49/35/66 55/34/67 27/33/34
f 27/33/34 55/34/67 54/31/64 26/28/29
f 30/36/13 56/39/68 57/38/69 31/37/37
f 56/36/68 58/39/70 59/38/71 57/37/69
f 58/36/70 36/39/25 37/38/42 59/37/71
f 37/40/42 31/43/37 57/42/69 59/41/71
f 71/1/72 25/4/4 15/3/3 67/2/73
f 12/5/74 11/8/75 60/7/76 61/6/74
f 70/9/77 71/12/78 67/11/79 68/10/80
f 15/13/12 16/14/12 68/10/80 67/11/79
f 17/15/13 14/18/16 66/17/81 64/16/82
f 66/19/83 65/22/84 63/21/85 64/20/85
f 23/23/20 70/1/86 68/2/87 16/24/21
f 63/16/88 65/17/89 13/26/26 18/25/25
f 60/7/76 11/8/75 19/27/90
f 72/28/91 28/31/92 10/30/93 62/29/94
f 13/26/26 65/17/89 70/1/86 23/23/20
f 65/22/84 66/19/83 71/12/78 70/9/77
f 66/17/81 14/18/16 25/4/4 71/1/72
f 69/32/95 21/35/96 29/34/97 73/33/98
f 73/33/98 29/34/97 28/31/92 72/28/91
f 30/36/13 32/39/39 75/38/99 74/37/100
f 32/36/39 34/39/41 76/38/101 75/37/99
f 34/36/41 36/39/25 77/38/102 76/37/101
f 77/40/102 74/43/100 75/42/99 76/41/101
f 83/1/103 80/2/104 47/3/45 53/4/44
f 44/5/105 61/6/105 60/7/76 43/8/106
f 82/9/107 81/10/108 80/11/109 83/12/110
f 47/13/53 80/11/109 81/10/108 48/14/53
f 17/15/13 64/16/82 79/17/111 46/18/54
f 79/19/112 64/20/85 63/21/85 78/22/113
f 51/23/58 48/24/61 81/2/114 82/1/115
f 63/16/88 18/25/25 45/26/63 78/17/116
f 60/7/76 19/27/90 43/8/106
f 72/28/91 62/29/94 42/30/117 54/31/118
f 45/26/63 51/23/58 82/1/115 78/17/116
f 78/22/113 82/9/107 83/12/110 79/19/112
f 79/17/111 83/1/103 53/4/44 46/18/54
f 69/32/95 73/33/98 55/34/119 49/35/120
f 73/33/98 72/28/91 54/31/118 55/34/119
f 30/36/13 74/37/100 84/38/121 56/39/68
f 56/36/68 84/37/121 85/38/122 58/39/70
f 58/36/70 85/37/122 77/38/102 36/39/25
f 77/40/102 85/41/122 84/42/121 74/43/100
