# Blender 3.3.1
# www.blender.org
mtllib OverUnderShotgun.mtl
o Barrel&HandGaurd.001
v -0.609011 0.779816 0.041845
v 2.444737 0.779816 0.041845
v -0.609011 0.737350 -0.000622
v -0.609011 0.822283 -0.000622
v 2.444737 0.737350 -0.000622
v 2.444737 0.822283 -0.000622
v -0.609010 0.862656 0.041845
v 2.444737 0.862656 0.041845
v -0.609010 0.820191 -0.000622
v -0.609010 0.905124 -0.000622
v 2.444737 0.820191 -0.000622
v 2.444737 0.905124 -0.000622
v 0.630703 0.862645 0.041854
v 0.586791 0.671685 -0.000622
v 0.631803 0.737350 -0.000622
v 0.599433 0.768365 0.055073
v -0.318827 0.670431 -0.000622
v -0.392061 0.862662 0.041868
v -0.320602 0.674220 -0.000622
v -0.316623 0.765717 0.057913
v 0.630703 0.862645 0.041854
v 0.633854 0.862645 -0.000622
v -0.393835 0.866451 -0.000622
v -0.609004 0.905035 -0.000622
v 2.444829 0.904446 -0.000661
v -0.517411 0.934420 -0.000661
v 2.444829 0.934420 -0.000661
v -0.516418 0.934631 0.003002
v -0.516418 0.934631 -0.004388
v -0.609011 0.779816 -0.043089
v 2.444737 0.779816 -0.043089
v -0.609010 0.862656 -0.043089
v 2.444737 0.862656 -0.043089
v 0.630703 0.862645 -0.043098
v 0.599433 0.768365 -0.056318
v -0.392061 0.862662 -0.043112
v -0.316623 0.765717 -0.059157
v 0.630703 0.862645 -0.043098
v -0.516418 0.934631 -0.004246
v 2.444847 0.934419 -0.004246
v -0.516418 0.934631 0.003144
v 2.444847 0.934419 0.003144
v -0.609004 0.905035 -0.000622
v 2.444829 0.904446 -0.000661
v -0.517411 0.934420 -0.000661
v 2.444829 0.934420 -0.000661
v -0.516418 0.934631 -0.004246
v 2.444847 0.934419 -0.004246
v -0.516418 0.934631 0.003144
v 2.444847 0.934419 0.003144
vn -0.0000 -0.7071 0.7071
vn -0.0000 0.7071 0.7071
vn -1.0000 -0.0000 -0.0000
vn 0.8010 -0.1859 0.5691
vn -0.6421 -0.3904 0.6598
vn 0.6459 -0.4427 0.6219
vn 0.0024 -0.5115 0.8593
vn 0.0012 0.1516 0.9884
vn -0.0088 1.0000 -0.0000
vn -0.0000 -0.0000 1.0000
vn -0.0000 1.0000 -0.0000
vn -0.9971 0.0163 -0.0740
vn -0.9339 -0.3573 0.0143
vn -0.0000 0.0006 1.0000
vn -0.3045 0.9525 -0.0000
vn -0.0000 -0.7071 -0.7071
vn -0.0000 0.7071 -0.7071
vn 0.8010 -0.1859 -0.5691
vn -0.6421 -0.3904 -0.6598
vn 0.6459 -0.4427 -0.6219
vn 0.0024 -0.5115 -0.8593
vn 0.0012 0.1516 -0.9884
vn -0.9971 0.0163 0.0740
vn -0.9339 -0.3573 -0.0143
vn 0.0001 1.0000 -0.0000
vn 1.0000 -0.0000 -0.0000
vn -0.0000 -0.0006 -1.0000
vn -0.0001 -1.0000 -0.0000
vt 0.615503 0.550369
vt 0.833628 0.547528
vt 0.920567 0.290806
vt 0.847114 0.550369
vt 0.957114 0.547528
vt 0.879852 0.292419
vt 0.899204 0.193701
vt 0.615503 0.522445
vt 0.833628 0.575451
vt 0.899204 0.387911
vt 0.858574 0.575451
vt 0.847114 0.522445
vt 0.898479 0.207748
vt 0.957114 0.575451
vt 0.954760 0.575451
vt 0.898479 0.377090
vt 0.615503 0.604839
vt 0.848628 0.596316
vt 0.919805 0.290645
vt 0.847114 0.604839
vt 0.956489 0.596316
vt 0.882345 0.288604
vt 0.615503 0.576916
vt 0.899205 0.197007
vt 0.848628 0.624240
vt 0.858574 0.624240
vt 0.899205 0.384283
vt 0.847114 0.576916
vt 0.899954 0.208565
vt 0.956489 0.624240
vt 0.954760 0.624240
vt 0.899954 0.368642
vt 0.598072 0.602719
vt 0.589953 0.481609
vt 0.598081 0.512709
vt 0.598935 0.508550
vt 0.592291 0.536012
vt 0.422517 0.480555
vt 0.408977 0.602731
vt 0.422517 0.480555
vt 0.422924 0.533788
vt 0.598072 0.602719
vt 0.590971 0.616632
vt 0.599029 0.616619
vt 0.408977 0.602731
vt 0.357937 0.647408
vt 0.712005 0.607738
vt 0.958700 0.646768
vt 0.375486 0.679316
vt 0.958700 0.679316
vt 0.746994 0.620994
vt 0.686842 0.620218
vt 0.877899 0.290806
vt 0.615503 0.550369
vt 0.858574 0.547528
vt 0.847114 0.550369
vt 0.954760 0.547528
vt 0.879852 0.292419
vt 0.615503 0.604839
vt 0.858574 0.596316
vt 0.878267 0.290645
vt 0.847114 0.604839
vt 0.954760 0.596316
vt 0.882345 0.288604
vt 0.598072 0.602719
vt 0.592291 0.536012
vt 0.408977 0.602731
vt 0.422924 0.533788
vt 0.598072 0.602719
vt 0.590971 0.616632
vt 0.665789 0.606226
vt 0.839479 0.606226
vt 0.665789 0.623120
vt 0.839479 0.623120
vt 0.357937 0.647408
vt 0.958700 0.646768
vt 0.375486 0.679316
vt 0.958700 0.679316
vt 0.665789 0.606226
vt 0.839479 0.606226
vt 0.665789 0.623120
vt 0.839479 0.623120
s 1
usemtl Material.001
f 3/8/1 5/12/1 2/4/1 1/1/1
f 6/14/2 4/9/2 1/2/2 2/5/2
f 9/23/1 11/28/1 8/20/1 7/17/1
f 12/30/2 10/25/2 7/18/2 8/21/2
f 30/53/3 3/7/3 1/3/3 4/10/3
f 15/35/4 13/33/4 16/37/4
f 20/41/5 18/39/5 17/38/5
f 14/34/6 15/35/6 16/37/6
f 14/34/7 16/37/7 20/41/7 17/38/7
f 16/37/8 13/33/8 18/39/8 20/41/8
f 15/35/9 13/33/10 21/42/11
f 15/36/12 21/43/12 22/44/12
f 17/38/13 18/39/13 23/45/13 19/40/13
f 24/46/14 25/48/14 27/50/14 26/49/14
f 28/51/15 29/52/15 24/47/15
f 3/8/16 30/54/16 31/56/16 5/12/16
f 6/15/17 31/57/17 30/55/17 4/11/17
f 9/23/16 32/59/16 33/62/16 11/28/16
f 12/31/17 33/63/17 32/60/17 10/26/17
f 15/35/18 35/66/18 34/65/18
f 37/68/19 17/38/19 36/67/19
f 14/34/20 35/66/20 15/35/20
f 14/34/21 17/38/21 37/68/21 35/66/21
f 35/66/22 37/68/22 36/67/22 34/65/22
f 15/35/9 38/69/10 34/65/11
f 15/36/23 22/44/23 38/70/23
f 17/38/24 19/40/24 23/45/24 36/67/24
f 39/71/25 41/73/25 42/74/25 40/72/25
f 5/13/26 31/58/26 6/16/26 2/6/26
f 11/29/26 33/64/26 12/32/26 8/22/26
f 32/61/3 9/24/3 7/19/3 10/27/3
f 43/75/27 45/77/27 46/78/27 44/76/27
f 47/79/28 48/80/28 50/82/28 49/81/28
o Body.001
v -2.278490 0.693652 -0.000626
v -2.258302 0.180598 -0.000626
v -1.295215 0.787022 -0.000626
v -1.386063 0.513705 -0.000626
v -0.965757 0.670163 -0.000626
v -0.953139 0.847586 -0.000626
v -1.223042 0.744122 -0.000626
v -1.223042 0.427905 -0.000626
v -0.677136 0.670585 -0.000626
v -0.609174 0.863011 0.041449
v -0.605233 0.738093 -0.000626
v -0.609063 0.904961 -0.000626
v -1.101970 0.607076 -0.000626
v -1.088090 0.795854 -0.000626
v -2.268396 0.437124 0.102712
v -1.340639 0.650365 0.078650
v -0.959448 0.758876 0.054535
v -1.223041 0.586014 0.072781
v -0.603770 0.765097 0.058378
v -1.095030 0.701465 0.064564
v -0.319002 0.671086 -0.000626
v -0.391248 0.862995 0.041443
v -0.314638 0.738960 -0.000626
v -0.316776 0.766154 0.057244
v -0.890744 0.684811 0.008248
v -0.910930 0.589558 0.003986
v -0.938336 0.670454 -0.000626
v -0.916790 0.584237 -0.000626
v -0.890744 0.684811 0.008248
v -0.938336 0.670454 -0.000626
v -0.909933 0.639706 0.004805
v -0.918467 0.639801 -0.000626
v -0.858934 0.539072 0.003589
v -0.859353 0.531168 -0.000626
v -0.695545 0.564058 -0.000626
v -0.701839 0.570789 0.003589
v -0.695545 0.564058 -0.000626
v -0.701839 0.570789 0.003589
v -0.745502 0.536356 0.003589
v -0.741337 0.529625 -0.000626
v -0.701839 0.570789 0.003589
v -0.695545 0.564058 -0.000626
v -0.726355 0.670778 0.003589
v -0.716917 0.670805 -0.000626
v -0.726355 0.670778 0.003589
v -0.716917 0.670805 -0.000626
v -0.726355 0.670778 0.003589
v -0.716917 0.670805 -0.000626
v -0.726355 0.670778 0.003589
v -0.716917 0.670805 -0.000626
v -0.695385 0.627941 -0.000626
v -0.701998 0.621208 0.003589
v -0.726355 0.670778 0.003589
v -0.716917 0.670805 -0.000626
v -0.726355 0.670778 0.003589
v -0.716917 0.670805 -0.000626
v -0.726355 0.670778 0.003589
v -0.716917 0.670805 -0.000626
v -0.726355 0.670778 0.003589
v -0.716917 0.670805 -0.000626
v -0.609174 0.863011 -0.042701
v -2.268396 0.437124 -0.103964
v -1.340639 0.650365 -0.079901
v -0.959448 0.758876 -0.055786
v -1.223041 0.586014 -0.074032
v -0.603770 0.765097 -0.059630
v -1.095030 0.701465 -0.065816
v -0.391248 0.862995 -0.042694
v -0.316776 0.766154 -0.058496
v -0.890744 0.684811 -0.009500
v -0.910930 0.589558 -0.005237
v -0.890744 0.684811 -0.009500
v -0.909933 0.639706 -0.006056
v -0.858934 0.539072 -0.004840
v -0.701839 0.570789 -0.004840
v -0.701839 0.570789 -0.004840
v -0.745502 0.536356 -0.004840
v -0.701839 0.570789 -0.004840
v -0.726355 0.670778 -0.004840
v -0.726355 0.670778 -0.004840
v -0.726355 0.670778 -0.004840
v -0.726355 0.670778 -0.004840
v -0.701998 0.621208 -0.004840
v -0.726355 0.670778 -0.004840
v -0.726355 0.670778 -0.004840
v -0.726355 0.670778 -0.004840
v -0.726355 0.670778 -0.004840
vn -0.0568 0.4247 0.9035
vn 0.2600 0.4122 0.8732
vn -0.0722 0.3597 0.9303
vn -0.2718 0.4688 0.8405
vn 0.0019 0.1665 0.9860
vn -0.1173 0.7034 0.7010
vn -0.9992 -0.0393 -0.0000
vn -0.1912 0.5488 0.8138
vn 0.2698 -0.5424 0.7956
vn 0.0028 -0.5256 0.8507
vn 0.0008 -0.5284 0.8490
vn 0.0023 -0.5262 0.8504
vn 0.5227 -0.4212 0.7412
vn 0.0004 -0.5290 0.8486
vn -0.2086 -0.4243 0.8812
vn 0.1417 -0.4274 0.8929
vn -0.0005 0.3200 -0.9474
vn 0.8322 -0.2631 0.4880
vn -0.5697 -0.0100 0.8218
vn 0.2468 0.1313 0.9601
vn -0.3661 -0.3901 0.8449
vn 0.0931 0.3064 0.9473
vn -0.0000 1.0000 -0.0000
vn -0.0000 -0.0000 -1.0000
vn -0.2357 -0.0462 0.9707
vn -0.0092 -0.5009 0.8655
vn -0.3544 0.6556 0.6667
vn -0.0001 1.0000 -0.0000
vn -0.0000 -0.0000 1.0000
vn 0.9780 0.0028 0.2085
vn 0.2704 -0.3512 0.8964
vn -0.0000 1.0000 -0.0001
vn -0.6673 0.7137 -0.2129
vn 0.5468 -0.0000 0.8372
vn -0.1682 -0.0026 0.9858
vn -0.4906 0.4687 0.7346
vn 0.3908 0.1940 0.8998
vn 0.9780 0.0028 -0.2085
vn -0.0568 0.4247 -0.9035
vn 0.2600 0.4122 -0.8732
vn -0.0722 0.3597 -0.9303
vn -0.2718 0.4688 -0.8405
vn 0.0019 0.1665 -0.9860
vn -0.1173 0.7034 -0.7010
vn -0.1912 0.5488 -0.8138
vn 0.2698 -0.5424 -0.7956
vn 0.0028 -0.5256 -0.8507
vn 0.0024 -0.5261 -0.8504
vn 0.0008 -0.5284 -0.8490
vn 0.5227 -0.4212 -0.7412
vn 0.0004 -0.5290 -0.8487
vn -0.2086 -0.4243 -0.8812
vn 0.1417 -0.4274 -0.8929
vn -0.0005 0.3200 0.9474
vn 0.4679 -0.2115 -0.8581
vn 0.2469 0.1313 -0.9601
vn -0.5696 -0.0100 -0.8218
vn 0.0932 0.3064 -0.9473
vn -0.3660 -0.3900 -0.8449
vn 0.7437 -0.3975 -0.5374
vn -0.2356 -0.0462 -0.9707
vn -0.3544 0.6556 -0.6668
vn -0.0092 -0.5008 -0.8655
vn 0.9780 0.0028 0.2084
vn 0.2703 -0.3512 -0.8964
vn -0.6674 0.7137 -0.2128
vn 0.0001 1.0000 -0.0000
vn 0.5467 -0.0000 -0.8373
vn -0.4906 0.4686 -0.7346
vn -0.1683 -0.0026 -0.9857
vn 0.3908 0.1940 -0.8998
vn -0.8975 -0.4410 -0.0000
vn -0.3544 0.6556 0.6668
vn 0.9202 -0.3915 -0.0000
vn 0.8322 -0.2632 0.4881
vt 0.044560 0.421455
vt 0.125314 0.438732
vt 0.125152 0.277179
vt 0.047878 0.111383
vt 0.204966 0.484991
vt 0.211911 0.436512
vt 0.209225 0.358037
vt 0.273110 0.460834
vt 0.276367 0.573601
vt 0.240816 0.454099
vt 0.242056 0.496941
vt 0.233742 0.257018
vt 0.347426 0.461185
vt 0.359626 0.583303
vt 0.359922 0.593593
vt 0.354606 0.593593
vt 0.384831 0.489449
vt 0.395713 0.526940
vt 0.354722 0.615036
vt 0.248065 0.379699
vt 0.253117 0.521844
vt 0.132639 0.355736
vt 0.046416 0.253290
vt 0.201079 0.400093
vt 0.209016 0.339213
vt 0.217329 0.400093
vt 0.274270 0.506564
vt 0.231013 0.350823
vt 0.232254 0.393665
vt 0.360915 0.511763
vt 0.249341 0.458584
vt 0.413273 0.477229
vt 0.399990 0.593582
vt 0.412316 0.477219
vt 0.440481 0.552270
vt 0.413683 0.512647
vt 0.000000 0.000000
vt 0.375555 0.568902
vt 0.373148 0.506322
vt 0.000000 0.500000
vt 0.369030 0.558636
vt 0.372510 0.503331
vt 0.000000 0.000000
vt 0.383488 0.526160
vt 0.000000 0.500000
vt 0.373050 0.538629
vt 0.372032 0.538616
vt 0.380599 0.475136
vt 0.372855 0.493658
vt 0.380615 0.471034
vt 0.372931 0.490712
vt 1.000000 0.500000
vt 1.000000 0.000000
vt 0.393728 0.505648
vt 0.393125 0.508466
vt 0.387085 0.490723
vt 0.383488 0.526160
vt 0.387494 0.488315
vt 1.000000 0.000000
vt 0.393125 0.508466
vt 1.000000 0.500000
vt 0.393728 0.505648
vt 1.000000 0.000000
vt 0.000000 0.000000
vt 1.000000 0.500000
vt 1.000000 0.000000
vt 0.391012 0.569227
vt 0.000000 0.000000
vt 1.000000 0.500000
vt 0.392254 0.569470
vt 1.000000 0.000000
vt 0.000000 0.000000
vt 1.000000 0.500000
vt 1.000000 0.000000
vt 0.000000 0.000000
vt 1.000000 0.500000
vt 0.394682 0.542204
vt 0.393811 0.537578
vt 0.383488 0.526160
vt 1.000000 0.000000
vt 0.000000 0.000000
vt 1.000000 0.500000
vt 1.000000 0.000000
vt 0.000000 0.000000
vt 1.000000 0.500000
vt 1.000000 0.000000
vt 0.000000 0.000000
vt 1.000000 0.500000
vt 1.000000 0.000000
vt 0.383488 0.526160
vt 0.000000 0.000000
vt 1.000000 0.500000
vt 0.359626 0.583303
vt 0.359922 0.593593
vt 0.354606 0.593593
vt 0.384831 0.489449
vt 0.132639 0.355736
vt 0.046416 0.253290
vt 0.201079 0.400093
vt 0.209016 0.339213
vt 0.217329 0.400093
vt 0.274270 0.506564
vt 0.231013 0.350823
vt 0.232254 0.393665
vt 0.360915 0.511763
vt 0.249341 0.458584
vt 0.399990 0.593582
vt 0.412316 0.477219
vt 0.413683 0.512647
vt 0.000000 0.000000
vt 0.375555 0.568902
vt 0.373148 0.506322
vt 0.000000 0.000000
vt 0.373050 0.538629
vt 0.380599 0.475136
vt 0.372855 0.493658
vt 1.000000 0.000000
vt 0.393125 0.508466
vt 0.387085 0.490723
vt 0.383488 0.526160
vt 1.000000 0.000000
vt 0.393125 0.508466
vt 1.000000 0.000000
vt 1.000000 0.000000
vt 0.391012 0.569227
vt 1.000000 0.000000
vt 1.000000 0.000000
vt 0.383488 0.526160
vt 0.393811 0.537578
vt 1.000000 0.000000
vt 1.000000 0.000000
vt 1.000000 0.000000
vt 1.000000 0.000000
vt 0.383488 0.526160
s 1
usemtl Material.001
f 66/106/29 53/87/29 51/83/29 65/105/29
f 68/110/30 57/92/30 53/88/30 66/107/30
f 69/112/31 60/96/31 56/91/31 67/109/31
f 70/113/32 64/103/32 57/93/32 68/111/32
f 74/118/33 72/115/33 60/97/33 69/112/33
f 56/91/34 60/98/34 62/101/34
f 65/104/35 51/84/35 52/85/35
f 67/109/36 56/91/36 64/103/36 70/113/36
f 55/90/37 67/109/37 70/113/37 63/102/37
f 71/114/38 74/118/38 69/112/39 59/95/40
f 63/102/41 70/113/41 68/111/41 58/94/41
f 59/95/40 69/112/39 67/109/42 55/90/42
f 58/94/43 68/111/43 66/108/43 54/89/43
f 54/89/44 66/108/44 65/105/44 52/86/44
f 60/99/45 72/116/45 73/117/45 61/100/45
f 81/128/46 82/129/47 78/124/47 76/121/48
f 76/121/48 78/124/49 84/132/49 83/130/50
f 77/122/51 75/119/52 79/125/51 80/127/52
f 75/120/53 77/123/53 82/129/53 81/128/53
f 83/131/50 84/133/54 90/140/54 89/138/55
f 93/145/51 94/147/52 98/155/56 97/153/52
f 94/146/52 96/150/57 100/157/52 98/154/52
f 96/151/58 95/148/57 99/156/51 100/158/52
f 95/148/57 93/145/52 97/153/52 99/156/52
f 99/156/52 97/153/52 103/162/52 105/165/52
f 104/163/52 106/166/52 110/173/52 108/169/52
f 100/158/56 99/156/52 105/165/51 106/167/52
f 98/154/52 100/157/52 106/166/52 104/163/52
f 97/153/51 98/155/52 104/164/56 103/162/52
f 89/138/59 90/140/59 87/136/59 88/137/59
f 85/134/60 86/135/57 91/141/61 92/143/57
f 92/144/62 101/159/62 102/160/63 91/142/64
f 101/159/65 96/152/65 95/149/65 102/160/65
f 107/168/51 108/170/52 110/174/56 109/171/57
f 103/162/51 104/164/52 108/170/56 107/168/52
f 105/165/52 103/162/52 107/168/52 109/171/57
f 106/167/56 105/165/52 109/171/66 110/174/52
f 113/181/67 112/180/67 51/83/67 53/87/67
f 115/185/68 113/182/68 53/88/68 57/92/68
f 116/187/69 114/184/69 56/91/69 111/175/69
f 117/188/70 115/186/70 57/93/70 64/103/70
f 119/191/71 116/187/71 111/176/71 118/189/71
f 56/91/72 62/101/72 111/177/72
f 112/179/35 52/85/35 51/84/35
f 114/184/73 117/188/73 64/103/73 56/91/73
f 55/90/74 63/102/74 117/188/74 114/184/74
f 71/114/75 59/95/76 116/187/77 119/191/75
f 63/102/78 58/94/78 115/186/78 117/188/78
f 59/95/76 55/90/79 114/184/79 116/187/77
f 58/94/80 54/89/80 113/183/80 115/186/80
f 54/89/81 52/86/81 112/180/81 113/183/81
f 111/178/82 61/100/82 73/117/82 118/190/82
f 123/196/83 121/194/84 78/124/85 82/129/85
f 121/194/84 124/197/86 84/132/87 78/124/87
f 77/122/52 80/127/51 122/195/52 120/192/51
f 120/193/88 123/196/83 82/129/89 77/123/89
f 124/198/86 127/201/90 90/140/91 84/133/91
f 129/205/52 131/208/51 98/155/52 94/147/56
f 96/151/57 100/158/56 132/209/52 130/206/92
f 130/206/57 132/209/52 131/208/52 129/205/52
f 132/209/52 135/213/52 134/212/52 131/208/52
f 100/158/52 106/167/56 135/213/52 132/209/51
f 131/208/52 134/212/51 104/164/52 98/155/56
f 127/201/93 126/200/93 87/136/93 90/140/93
f 85/134/52 92/143/94 128/203/57 125/199/95
f 92/144/96 128/204/97 133/211/98 101/159/96
f 101/159/99 133/211/99 130/207/99 96/152/99
f 136/214/52 137/215/92 110/174/52 108/170/56
f 134/212/52 136/214/51 108/170/52 104/164/56
f 135/213/52 137/215/57 136/214/52 134/212/52
f 106/167/52 110/174/56 137/215/57 135/213/51
f 109/172/100 137/216/100 133/210/100 102/161/100
f 91/142/64 102/161/63 133/211/98 128/204/97
f 89/139/101 91/142/64 128/204/97 127/202/90
f 89/139/55 127/202/90 124/198/86 83/131/50
f 83/131/50 124/198/86 121/194/84 76/121/48
f 76/121/48 121/194/84 123/196/83 81/128/46
f 123/196/83 120/193/88 79/126/102 81/128/103
o ShellLowPolyGreen.001
v -0.551621 0.394097 0.024033
v -0.551621 0.574411 0.024033
v -0.575653 0.394097 0.000001
v -0.575653 0.574411 0.000001
v -0.527589 0.394097 0.000001
v -0.527589 0.574411 0.000001
v -0.551621 0.445161 0.024033
v -0.527589 0.445161 0.000001
v -0.575653 0.445161 0.000001
v -0.551621 0.394097 -0.024031
v -0.551621 0.574411 -0.024031
v -0.551621 0.445161 -0.024031
vn 0.7071 -0.0000 0.7071
vn -0.0000 -1.0000 -0.0000
vn -0.0000 1.0000 -0.0000
vn -0.7071 -0.0000 0.7071
vn 0.7071 -0.0000 -0.7071
vn -0.7071 -0.0000 -0.7071
vt 0.821587 0.484619
vt 0.183923 0.104482
vt 0.002034 0.104482
vt 0.625000 0.750000
vt 0.758309 0.818041
vt 0.525350 0.311899
vt 0.013595 0.105289
vt 0.875000 0.625000
vt 0.529300 0.818041
vt 0.984330 0.177612
vt 0.172362 0.103675
vt 0.987318 0.818041
vt 0.625000 0.625000
vt 0.758309 0.515532
vt 0.185638 0.466411
vt 0.003749 0.466411
vt 0.987318 0.515532
vt 0.174077 0.465604
vt 0.529300 0.515532
vt 0.015310 0.467218
vt 0.821587 0.484619
vt 0.183923 0.104482
vt 0.002034 0.104482
vt 0.625000 0.750000
vt 0.758309 0.818041
vt 0.758309 0.515532
vt 0.185638 0.466411
vt 0.003749 0.466411
s 1
usemtl Material.002
f 145/233/104 143/228/104 139/221/104 144/230/104
f 140/222/105 142/226/105 138/217/105
f 143/229/106 141/224/106 139/220/106
f 144/230/107 139/221/107 141/225/107 146/235/107
f 138/218/107 144/231/107 146/236/107 140/223/107
f 142/227/104 145/234/104 144/232/104 138/219/104
f 145/233/108 149/242/108 148/241/108 143/228/108
f 140/222/105 147/237/105 142/226/105
f 143/229/106 148/240/106 141/224/106
f 149/242/109 146/235/109 141/225/109 148/241/109
f 147/238/109 140/223/109 146/236/109 149/243/109
f 142/227/108 147/239/108 149/244/108 145/234/108
o ShellLowPolyRed.001
v -0.491991 0.574482 -0.024249
v -0.491991 0.393914 -0.024249
v -0.467740 0.574482 0.000001
v -0.467740 0.393914 0.000001
v -0.516241 0.574482 0.000001
v -0.516241 0.393914 0.000001
v -0.491991 0.444956 -0.024249
v -0.516241 0.444956 0.000001
v -0.467740 0.444956 0.000001
v -0.491991 0.574482 0.024252
v -0.491991 0.393914 0.024252
v -0.491991 0.444956 0.024252
vn -0.7071 -0.0000 -0.7071
vn -0.0000 1.0000 -0.0000
vn -0.0000 -1.0000 -0.0000
vn 0.7071 -0.0000 -0.7071
vn -0.7071 -0.0000 0.7071
vn 0.7071 -0.0000 0.7071
vt 0.238621 1.001621
vt 0.248625 0.890355
vt 0.018398 0.466638
vt 0.761304 0.001869
vt 0.020464 0.121861
vt 0.495392 0.936879
vt 0.495386 0.890355
vt 0.994736 0.241086
vt 0.231272 0.121861
vt 0.008178 0.941105
vt 0.001864 0.890355
vt 0.229197 0.468648
vt 0.519943 0.238291
vt 0.021755 0.114614
vt 0.020464 0.473901
vt 0.248625 0.511575
vt 0.232554 0.116624
vt 0.001864 0.511575
vt 0.231272 0.473901
vt 0.495386 0.511575
vt 0.238621 1.001621
vt 0.248625 0.890355
vt 0.018398 0.466638
vt 0.761304 0.001869
vt 0.020464 0.121861
vt 0.021755 0.114614
vt 0.020464 0.473901
vt 0.248625 0.511575
s 1
usemtl Material.003
f 157/261/110 156/258/110 151/247/110 155/256/110
f 152/250/111 150/245/111 154/254/111
f 155/257/112 151/248/112 153/252/112
f 156/259/113 158/263/113 153/253/113 151/249/113
f 150/246/113 152/251/113 158/264/113 156/260/113
f 154/255/110 150/246/110 156/260/110 157/262/110
f 157/261/114 155/256/114 160/267/114 161/270/114
f 152/250/111 154/254/111 159/265/111
f 155/257/112 153/252/112 160/268/112
f 161/271/115 160/269/115 153/253/115 158/263/115
f 159/266/115 161/272/115 158/264/115 152/251/115
f 154/255/114 157/262/114 161/272/114 159/266/114
o Trigger&Lever.001
v -0.862734 0.569659 0.000001
v -0.856897 0.653230 0.000001
v -0.867449 0.671436 0.000001
v -0.808487 0.698686 0.000001
v -0.875290 0.613330 0.000001
v -0.882028 0.607000 0.000001
v -0.862248 0.862923 0.010922
v -0.878334 0.876187 0.000001
v -0.672517 0.894688 0.000001
v -0.862248 0.862923 0.000001
v -0.823709 0.876623 0.000001
v -0.862948 0.861822 -0.011533
v -0.862734 0.569659 0.000001
v -0.856897 0.653230 0.000001
v -0.867449 0.671436 0.000001
v -0.808487 0.698686 0.000001
v -0.875290 0.613330 0.000001
v -0.882028 0.607000 0.000001
vn -0.0000 -0.0000 1.0000
vn -0.6362 -0.7716 -0.0000
vn -0.0654 0.7281 0.6824
vn -0.0642 0.7137 -0.6975
vn -0.6322 -0.7667 0.1116
vn -0.0000 -0.0000 -1.0000
vt 0.374037 0.478224
vt 0.374479 0.506993
vt 0.373680 0.513260
vt 0.378145 0.522641
vt 0.373086 0.493257
vt 0.372576 0.491078
vt 0.374074 0.579179
vt 0.372856 0.583744
vt 0.388443 0.590113
vt 0.357500 0.500000
vt 0.374074 0.579179
vt 0.377652 0.584436
vt 0.365178 0.541872
vt 0.374074 0.579179
vt 0.374037 0.478224
vt 0.374479 0.506993
vt 0.373680 0.513260
vt 0.378145 0.522641
vt 0.373086 0.493257
vt 0.372576 0.491078
s 1
usemtl Material.004
f 162/273/116 166/277/116 167/278/116
f 167/278/116 166/277/116 163/274/116 165/276/116 164/275/116
f 168/279/117 169/280/117 171/283/117
f 170/281/118 172/284/118 169/280/118 168/279/118
f 169/280/119 172/285/119 170/282/119 173/286/119
f 171/283/120 169/280/120 173/286/120
f 174/287/121 179/292/121 178/291/121
f 179/292/121 176/289/121 177/290/121 175/288/121 178/291/121
