# Blender 3.6.5
# www.blender.org
mtllib Building6.mtl
o TCom_Shops0285_S
v -1.906383 -0.050000 5.000000
v 1.906383 -0.050000 5.000000
v -1.906383 3.450000 5.000000
v 1.906383 3.450000 5.000000
v 1.906383 2.856015 5.000000
v -1.906383 2.856015 5.000000
v 1.507789 -0.050000 5.000000
v -1.507789 -0.050000 5.000000
v 1.507789 2.856015 5.000000
v -1.507789 2.856015 5.000000
v 1.507789 -0.050000 4.826957
v 1.507789 2.856015 4.826957
v -1.507789 -0.050000 4.826957
v -1.507789 2.856015 4.826957
v 0.441410 2.856015 5.000000
v 0.441410 -0.050000 4.826957
v 0.441410 2.856015 4.826957
v -1.906383 2.313447 5.000000
v 1.906383 2.313447 5.000000
v 1.507789 2.313447 5.000000
v -1.507789 2.313447 5.000000
v 1.507789 2.313447 4.826957
v -1.507789 2.313447 4.826957
v 0.441410 2.313447 4.826957
v 1.436084 -0.050000 4.826957
v 1.436084 2.856015 5.000000
v 1.436084 2.856015 4.826957
v 1.436084 2.313447 4.826957
v -1.906383 0.099485 5.000000
v -1.507789 0.099485 5.000000
v -1.507789 0.099485 4.826957
v 0.441410 0.099485 4.826957
v 1.906383 0.099485 5.000000
v 1.507789 0.099485 5.000000
v 1.507789 0.099485 4.826957
v 1.436084 0.099485 4.826957
v 0.441410 0.099485 4.964922
v 0.441410 -0.050000 4.964922
v 1.436084 -0.050000 4.964922
v 1.436084 0.099485 4.964922
v 1.436084 2.313447 4.763515
v 0.441410 2.313447 4.763515
v 0.441410 0.099485 4.763515
v 1.436084 0.099485 4.763515
v 1.906383 3.153008 5.000000
v -1.507789 3.153008 5.000000
v -1.906383 3.153008 5.000000
v 1.507789 3.153008 5.000000
v 0.441410 3.153008 5.000000
v 1.436084 3.153008 5.000000
v 1.906383 3.153008 5.250058
v 1.906383 3.450000 5.250058
v 1.507789 3.153008 5.250058
v 1.507789 3.450000 5.250058
v 0.441410 3.450000 5.250058
v -1.507789 3.450000 5.250058
v -1.906383 3.450000 5.250058
v 1.436084 3.450000 5.250058
v -1.507789 3.153008 5.250058
v -1.906383 3.153008 5.250058
v 0.441410 3.153008 5.250058
v 1.436084 3.153008 5.250058
vn -0.0000 -1.0000 -0.0000
vn -0.0000 -0.0000 1.0000
vn 1.0000 -0.0000 -0.0000
vn -1.0000 -0.0000 -0.0000
vn -0.0000 1.0000 -0.0000
vt 0.771813 0.828300
vt 0.838990 0.828300
vt 0.838990 0.874209
vt 0.771813 0.874209
vt 0.876761 0.666984
vt 0.976360 0.666984
vt 0.976360 0.814674
vt 0.876761 0.814674
vt 0.592093 0.828300
vt 0.759729 0.828300
vt 0.759729 0.874209
vt 0.592093 0.874209
vt 0.096216 0.842020
vt 0.096216 0.848623
vt 0.089200 0.848623
vt 0.089200 0.842020
vt 0.023640 0.666984
vt 0.123239 0.666984
vt 0.123239 0.814674
vt 0.023640 0.814674
vt 0.610298 0.666984
vt 0.610298 0.814674
vt 0.123239 0.666984
vt 0.096216 0.563114
vt 0.096216 0.587078
vt 0.089200 0.587078
vt 0.089200 0.563114
vt 0.096216 0.634178
vt 0.096216 0.720270
vt 0.089200 0.720270
vt 0.089200 0.634178
vt 0.096216 0.590245
vt 0.089200 0.590245
vt 0.858843 0.666984
vt 0.858843 0.814674
vt 0.196412 0.828300
vt 0.263588 0.828300
vt 0.263588 0.874209
vt 0.196412 0.874209
vt 0.610298 0.064331
vt 0.096216 0.465328
vt 0.089200 0.465328
vt 0.123239 0.064331
vt 0.023640 0.064331
vt 0.123239 0.064331
vt 0.096216 0.744234
vt 0.089200 0.744234
vt 0.876761 0.064331
vt 0.976360 0.064331
vt 0.876761 0.064331
vt 0.876761 0.666984
vt 0.858843 0.064331
vt 0.000000 0.000000
vt 0.876761 0.023640
vt 0.858843 0.023640
vt 0.976360 0.023640
vt 0.023640 0.023640
vt 0.123239 0.023640
vt 0.610298 0.023640
vt 0.096216 0.458725
vt 0.089200 0.458725
vt 0.371816 0.036929
vt 0.555410 0.036929
vt 0.555410 0.064670
vt 0.371816 0.064670
vt 0.214010 0.048167
vt 0.532827 0.048167
vt 0.532827 0.070319
vt 0.214010 0.070319
vt 0.876761 0.895517
vt 0.858843 0.895517
vt 0.610298 0.895517
vt 0.610298 0.814674
vt 0.976360 0.895517
vt 0.123239 0.895517
vt 0.023640 0.895517
vt 0.123239 0.976360
vt 0.023640 0.976360
vt 0.610298 0.976360
vt 0.976360 0.976360
vt 0.876761 0.976360
vt 0.858843 0.976360
s 0
usemtl TCom_Shops0285_S
f 48/1/1 45/2/1 51/3/1 53/4/1
f 20/5/2 19/6/2 5/7/2 9/8/2
f 49/9/1 50/10/1 62/11/1 61/12/1
f 30/13/3 8/14/3 13/15/3 31/16/3
f 18/17/2 21/18/2 10/19/2 6/20/2
f 24/21/2 17/22/2 14/19/2 23/23/2
f 20/24/4 9/25/4 12/26/4 22/27/4
f 15/28/1 10/29/1 14/30/1 17/31/1
f 26/32/1 15/28/1 17/31/1 27/33/1
f 28/34/2 27/35/2 17/22/2 24/21/2
f 47/36/1 46/37/1 59/38/1 60/39/1
f 24/21/3 32/40/3 43/40/3 42/21/3
f 34/41/4 20/24/4 22/27/4 35/42/4
f 32/40/2 24/21/2 23/23/2 31/43/2
f 29/44/2 30/45/2 21/18/2 18/17/2
f 10/29/3 21/46/3 23/47/3 14/30/3
f 34/48/2 33/49/2 19/6/2 20/5/2
f 35/50/2 22/51/2 28/34/2 36/52/2
f 45/53/3 4/53/3 52/53/3 51/53/3
f 22/51/2 12/8/2 27/35/2 28/34/2
f 9/25/1 26/32/1 27/33/1 12/26/1
f 11/54/2 35/50/2 36/52/2 25/55/2
f 7/54/2 2/56/2 33/49/2 34/48/2
f 1/57/2 8/58/2 30/45/2 29/44/2
f 16/59/2 32/40/2 31/43/2 13/58/2
f 7/60/4 34/41/4 35/42/4 11/61/4
f 16/53/1 25/53/1 39/53/1 38/53/1
f 21/46/3 30/13/3 31/16/3 23/47/3
f 39/55/2 40/52/2 37/40/2 38/59/2
f 36/62/5 32/63/5 37/64/5 40/65/5
f 32/40/4 16/59/4 38/59/4 37/40/4
f 25/55/3 36/52/3 40/52/3 39/55/3
f 44/52/2 41/34/2 42/21/2 43/40/2
f 32/66/5 36/67/5 44/68/5 43/69/5
f 28/34/1 24/21/1 42/21/1 41/34/1
f 36/52/4 28/34/4 41/34/4 44/52/4
f 9/8/2 48/70/2 50/71/2 26/35/2
f 26/35/2 50/71/2 49/72/2 15/73/2
f 9/8/2 5/7/2 45/74/2 48/70/2
f 15/73/2 49/72/2 46/75/2 10/19/2
f 6/20/2 10/19/2 46/75/2 47/76/2
f 60/76/2 59/75/2 56/77/2 57/78/2
f 61/72/2 55/79/2 56/77/2 59/75/2
f 53/70/2 51/74/2 52/80/2 54/81/2
f 62/71/2 58/82/2 55/79/2 61/72/2
f 53/70/2 54/81/2 58/82/2 62/71/2
f 3/53/4 47/53/4 60/53/4 57/53/4
f 46/37/1 49/9/1 61/12/1 59/38/1
f 50/10/1 48/1/1 53/4/1 62/11/1
o TCom_BuildingsVarious0097_1_S
v -1.902236 -0.055362 4.993514
v -1.902237 -0.055361 -4.509161
v -1.902236 3.396782 4.993514
v -1.902237 3.396782 -4.509161
v -1.902237 1.046438 -4.509161
v -1.902236 1.046438 4.993514
v -1.902236 -0.055361 1.971501
v -1.902236 -0.055361 3.793953
v -1.902236 3.396782 3.793953
v -1.902236 3.396782 1.971501
v -1.902236 1.046438 1.971501
v -1.902236 1.046438 3.793953
v -1.902237 2.518956 -4.509161
v -1.902236 2.518955 3.793953
v -1.902236 2.518955 4.993514
v -1.902236 2.518955 1.971501
v -1.599486 3.116361 0.034108
v -1.599487 3.116361 -3.234037
v -1.599487 0.449033 -3.234037
v -1.599487 0.449033 0.034108
v -1.902237 1.046438 -0.697863
v -1.902237 1.046438 -2.502066
v -1.902237 -0.055361 -2.502066
v -1.902237 -0.055361 -0.697863
v -1.902236 3.396782 -0.697863
v -1.902236 3.396782 -2.502066
v -1.902237 2.518955 -2.502066
v -1.902236 2.518955 -0.697863
v -1.861267 0.449033 -3.234037
v -1.861267 3.116361 -3.234037
v -1.861267 3.116361 0.034108
v -1.861267 0.449033 0.034108
v -1.751330 1.079822 -0.732984
v -1.751330 1.079822 -2.537187
v -1.751330 2.552340 -2.537187
v -1.751330 2.552340 -0.732983
v -1.719968 1.046438 1.971501
v -1.719968 1.046438 3.793953
v -1.719968 2.518955 3.793953
v -1.719968 2.518955 1.971501
v -1.599486 3.116361 4.280023
v -1.599487 3.116361 1.011878
v -1.599487 0.449033 1.011878
v -1.599487 0.449033 4.280023
v -1.861267 0.449033 1.011878
v -1.861267 3.116361 1.011878
v -1.861267 3.116361 4.280023
v -1.861267 0.449033 4.280023
v 1.902236 -0.055361 4.993514
v 1.902236 -0.055361 -4.509161
v 1.902236 3.396782 4.993514
v 1.902236 3.396782 -4.509161
v 1.902236 1.046438 -4.509161
v 1.902236 1.046437 4.993514
v 1.902236 -0.055361 1.971501
v 1.902236 -0.055361 3.793952
v 1.902236 3.396782 3.793952
v 1.902236 3.396782 1.971501
v 1.902236 1.046438 1.971501
v 1.902236 1.046437 3.793952
v 1.902236 2.518956 -4.509161
v 1.902236 2.518955 3.793952
v 1.902236 2.518955 4.993514
v 1.902236 2.518955 1.971501
v 1.599486 3.116361 0.034108
v 1.599486 3.116361 -3.234037
v 1.599487 0.449033 -3.234037
v 1.599486 0.449033 0.034108
v 1.902236 1.046438 -0.697863
v 1.902236 1.046438 -2.502066
v 1.902236 -0.055361 -2.502066
v 1.902236 -0.055361 -0.697863
v 1.902236 3.396782 -0.697863
v 1.902236 3.396782 -2.502066
v 1.902236 2.518955 -2.502066
v 1.902236 2.518955 -0.697863
v 1.861267 0.449033 -3.234037
v 1.861267 3.116361 -3.234037
v 1.861266 3.116361 0.034108
v 1.861267 0.449033 0.034108
v 1.751329 1.079822 -0.732984
v 1.751329 1.079822 -2.537187
v 1.751330 2.552340 -2.537187
v 1.751329 2.552340 -0.732984
v 1.719968 1.046438 1.971501
v 1.719968 1.046437 3.793952
v 1.719968 2.518955 3.793952
v 1.719968 2.518955 1.971501
v 1.599486 3.116361 4.280023
v 1.599486 3.116361 1.011878
v 1.599486 0.449033 1.011878
v 1.599486 0.449033 4.280023
v 1.861267 0.449033 1.011878
v 1.861266 3.116361 1.011878
v 1.861267 3.116361 4.280023
v 1.861267 0.449033 4.280023
vn -1.0000 -0.0000 -0.0000
vn -0.0000 -1.0000 -0.0000
vn 0.2160 -0.9764 -0.0000
vn -0.0000 1.0000 -0.0000
vn -0.0000 -0.0000 1.0000
vn -0.0000 -0.0000 -1.0000
vn -0.2160 0.9764 -0.0000
vn -0.2267 -0.0000 -0.9740
vn 0.2267 -0.0000 0.9740
vn 1.0000 -0.0000 -0.0000
vn -0.2160 -0.9764 -0.0000
vn 0.2160 0.9764 -0.0000
vn 0.2267 -0.0000 -0.9740
vn -0.2267 -0.0000 0.9740
vt 0.000000 0.745715
vt 0.000000 1.000000
vt 0.126234 1.000000
vt 0.126234 0.745715
vt 0.318017 0.745715
vt 0.318017 1.000000
vt 0.598924 1.000000
vt 0.598924 0.745715
vt 0.788786 0.745715
vt 0.318017 0.000000
vt 0.126234 0.000000
vt 0.126234 0.319164
vt 0.318017 0.319164
vt 0.000000 0.000000
vt 0.000000 0.319164
vt 0.598924 0.319164
vt 0.788786 0.319164
vt 0.788786 0.000000
vt 1.000000 0.319164
vt 1.000000 0.000000
vt 0.788786 1.000000
vt 1.000000 1.000000
vt 1.000000 0.745716
vt 0.598924 0.000000
s 0
usemtl TCom_BuildingsVarious0097_1_S
f 77/83/6 65/84/6 71/85/6 76/86/6
f 78/87/6 72/88/6 87/89/6 90/90/6
f 78/87/6 76/86/6 71/85/6 72/88/6
f 80/91/7 79/90/7 93/90/7 92/91/7
f 69/92/6 70/93/6 74/94/6 73/95/6
f 63/96/6 68/97/6 74/94/6 70/93/6
f 73/95/6 78/87/6 90/90/6 83/98/6
f 81/99/6 82/98/6 79/90/6 80/91/6
f 68/97/6 77/83/6 76/86/6 74/94/6
f 85/100/6 84/99/6 67/101/6 64/102/6
f 89/91/6 88/103/6 66/104/6 75/105/6
f 84/99/6 89/91/6 75/105/6 67/101/6
f 90/90/8 89/91/8 97/91/8 98/90/8
f 89/91/6 90/90/6 87/89/6 88/103/6
f 85/100/6 86/106/6 83/98/6 84/99/6
f 69/92/6 73/95/6 83/98/6 86/106/6
f 82/98/9 81/99/9 91/99/9 94/98/9
f 81/99/10 80/91/10 92/91/10 91/99/10
f 79/90/11 82/98/11 94/98/11 93/90/11
f 84/99/12 83/98/12 95/98/12 96/99/12
f 83/98/13 90/90/13 98/90/13 95/98/13
f 89/91/14 84/99/14 96/99/14 97/91/14
f 76/86/7 78/87/7 102/87/7 101/86/7
f 78/87/10 73/95/10 99/95/10 102/87/10
f 74/94/11 76/86/11 101/86/11 100/94/11
f 73/95/9 74/94/9 100/94/9 99/95/9
f 104/91/7 103/90/7 109/90/7 108/91/7
f 105/99/6 106/98/6 103/90/6 104/91/6
f 106/98/9 105/99/9 107/99/9 110/98/9
f 105/99/10 104/91/10 108/91/10 107/99/10
f 103/90/11 106/98/11 110/98/11 109/90/11
f 125/83/15 124/86/15 119/85/15 113/84/15
f 126/87/15 138/90/15 135/89/15 120/88/15
f 126/87/15 120/88/15 119/85/15 124/86/15
f 128/91/7 140/91/7 141/90/7 127/90/7
f 117/92/15 121/95/15 122/94/15 118/93/15
f 111/96/15 118/93/15 122/94/15 116/97/15
f 121/95/15 131/98/15 138/90/15 126/87/15
f 129/99/15 128/91/15 127/90/15 130/98/15
f 116/97/15 122/94/15 124/86/15 125/83/15
f 133/100/15 112/102/15 115/101/15 132/99/15
f 137/91/15 123/105/15 114/104/15 136/103/15
f 132/99/15 115/101/15 123/105/15 137/91/15
f 138/90/16 146/90/16 145/91/16 137/91/16
f 137/91/15 136/103/15 135/89/15 138/90/15
f 133/100/15 132/99/15 131/98/15 134/106/15
f 117/92/15 134/106/15 131/98/15 121/95/15
f 130/98/9 142/98/9 139/99/9 129/99/9
f 129/99/10 139/99/10 140/91/10 128/91/10
f 127/90/11 141/90/11 142/98/11 130/98/11
f 132/99/17 144/99/17 143/98/17 131/98/17
f 131/98/18 143/98/18 146/90/18 138/90/18
f 137/91/19 145/91/19 144/99/19 132/99/19
f 124/86/7 149/86/7 150/87/7 126/87/7
f 126/87/10 150/87/10 147/95/10 121/95/10
f 122/94/11 148/94/11 149/86/11 124/86/11
f 121/95/9 147/95/9 148/94/9 122/94/9
f 152/91/7 156/91/7 157/90/7 151/90/7
f 153/99/15 152/91/15 151/90/15 154/98/15
f 154/98/9 158/98/9 155/99/9 153/99/9
f 153/99/10 155/99/10 156/91/10 152/91/10
f 151/90/11 157/90/11 158/98/11 154/98/11
o TCom_Shops0244_S
v -1.886844 2.925000 -4.496734
v 1.902925 -0.050000 -4.496735
v 1.902925 2.925000 -4.496735
v 1.902925 3.450000 -4.496735
v -1.886844 -0.050000 -4.496734
v -1.886844 3.450000 -4.496734
v -1.886844 2.925000 -4.687185
v 1.902925 2.925000 -4.687186
v 1.902925 3.450000 -4.687186
v -1.886844 3.450000 -4.687185
vn -0.0000 -0.0000 -1.0000
vn -1.0000 -0.0000 -0.0000
vn -0.0000 -1.0000 -0.0000
vn -0.0000 1.0000 -0.0000
vn 1.0000 -0.0000 -0.0000
vt 0.287219 0.000000
vt 0.963964 0.000000
vt 0.963964 0.850000
vt 0.287219 0.850000
vt 0.000000 0.000000
vt 0.963964 1.000000
vt 0.287219 1.000000
s 0
usemtl TCom_Shops0244_S
f 160/107/20 163/108/20 159/109/20 161/110/20
f 159/111/21 164/111/21 168/111/21 165/111/21
f 166/110/20 165/109/20 168/112/20 167/113/20
f 161/110/22 159/109/22 165/109/22 166/110/22
f 164/111/23 162/111/23 167/111/23 168/111/23
f 162/111/24 161/111/24 166/111/24 167/111/24
o Building6_-col
v -1.915952 -0.101158 4.999776
v -1.915952 3.730746 4.999776
v -1.915952 -0.101158 -4.583998
v -1.915952 3.730746 -4.583998
v 1.915952 -0.101158 4.999776
v 1.915952 3.730746 4.999776
v 1.915952 -0.101158 -4.583998
v 1.915952 3.730746 -4.583998
v -1.915952 -0.101158 -2.188055
v -1.915952 -0.101158 0.207889
v -1.915952 -0.101158 2.603833
v -1.915952 0.856818 4.999776
v -1.915952 1.814794 4.999776
v -1.915952 2.772770 4.999776
v -1.915952 3.730746 2.603833
v -1.915952 3.730746 0.207889
v -1.915952 3.730746 -2.188055
v -1.915952 2.772770 -4.583998
v -1.915952 1.814794 -4.583998
v -1.915952 0.856818 -4.583998
v 0.957976 -0.101158 -4.583998
v 0.000000 -0.101158 -4.583998
v -0.957976 -0.101158 -4.583998
v -0.957976 3.730746 -4.583998
v 0.000000 3.730746 -4.583998
v 0.957976 3.730746 -4.583998
v 1.915952 2.772770 -4.583998
v 1.915952 1.814794 -4.583998
v 1.915952 0.856818 -4.583998
v 1.915952 -0.101158 2.603833
v 1.915952 -0.101158 0.207889
v 1.915952 -0.101158 -2.188055
v 1.915952 3.730746 -2.188055
v 1.915952 3.730746 0.207889
v 1.915952 3.730746 2.603833
v 1.915952 2.772770 4.999776
v 1.915952 1.814794 4.999776
v 1.915952 0.856818 4.999776
v -0.957976 -0.101158 4.999776
v 0.000000 -0.101158 4.999776
v 0.957976 -0.101158 4.999776
v 0.957976 3.730746 4.999776
v 0.000000 3.730746 4.999776
v -0.957976 3.730746 4.999776
v 0.957976 3.730746 -2.188055
v 0.957976 3.730746 0.207889
v 0.957976 3.730746 2.603833
v 0.000000 3.730746 -2.188055
v 0.000000 3.730746 0.207889
v 0.000000 3.730746 2.603833
v -0.957976 3.730746 -2.188055
v -0.957976 3.730746 0.207889
v -0.957976 3.730746 2.603833
v -0.957976 -0.101158 -2.188055
v -0.957976 -0.101158 0.207889
v -0.957976 -0.101158 2.603833
v 0.000000 -0.101158 -2.188055
v 0.000000 -0.101158 0.207889
v 0.000000 -0.101158 2.603833
v 0.957976 -0.101158 -2.188055
v 0.957976 -0.101158 0.207889
v 0.957976 -0.101158 2.603833
v 0.957976 0.856818 4.999776
v 0.000000 0.856818 4.999776
v -0.957976 0.856818 4.999776
v 0.957976 1.814794 4.999776
v 0.000000 1.814794 4.999776
v -0.957976 1.814794 4.999776
v 0.957976 2.772770 4.999776
v 0.000000 2.772770 4.999776
v -0.957976 2.772770 4.999776
v 1.915952 0.856818 -2.188055
v 1.915952 0.856818 0.207889
v 1.915952 0.856818 2.603833
v 1.915952 1.814794 -2.188055
v 1.915952 1.814794 0.207889
v 1.915952 1.814794 2.603833
v 1.915952 2.772770 -2.188055
v 1.915952 2.772770 0.207889
v 1.915952 2.772770 2.603833
v -0.957976 0.856818 -4.583998
v 0.000000 0.856818 -4.583998
v 0.957976 0.856818 -4.583998
v -0.957976 1.814794 -4.583998
v 0.000000 1.814794 -4.583998
v 0.957976 1.814794 -4.583998
v -0.957976 2.772770 -4.583998
v 0.000000 2.772770 -4.583998
v 0.957976 2.772770 -4.583998
v -1.915952 0.856818 2.603833
v -1.915952 0.856818 0.207889
v -1.915952 0.856818 -2.188055
v -1.915952 1.814794 2.603833
v -1.915952 1.814794 0.207889
v -1.915952 1.814794 -2.188055
v -1.915952 2.772770 2.603833
v -1.915952 2.772770 0.207889
v -1.915952 2.772770 -2.188055
vn -1.0000 -0.0000 -0.0000
vn -0.0000 -0.0000 -1.0000
vn 1.0000 -0.0000 -0.0000
vn -0.0000 -0.0000 1.0000
vn -0.0000 -1.0000 -0.0000
vn -0.0000 1.0000 -0.0000
vt 0.562500 0.187500
vt 0.625000 0.187500
vt 0.625000 0.250000
vt 0.562500 0.250000
vt 0.562500 0.437500
vt 0.625000 0.437500
vt 0.625000 0.500000
vt 0.562500 0.500000
vt 0.562500 0.687500
vt 0.625000 0.687500
vt 0.625000 0.750000
vt 0.562500 0.750000
vt 0.562500 0.937500
vt 0.625000 0.937500
vt 0.625000 1.000000
vt 0.562500 1.000000
vt 0.312500 0.687500
vt 0.375000 0.687500
vt 0.375000 0.750000
vt 0.312500 0.750000
vt 0.812500 0.687500
vt 0.875000 0.687500
vt 0.875000 0.750000
vt 0.812500 0.750000
vt 0.687500 0.687500
vt 0.687500 0.750000
vt 0.750000 0.687500
vt 0.750000 0.750000
vt 0.687500 0.500000
vt 0.687500 0.562500
vt 0.625000 0.562500
vt 0.687500 0.625000
vt 0.625000 0.625000
vt 0.750000 0.500000
vt 0.750000 0.562500
vt 0.750000 0.625000
vt 0.812500 0.500000
vt 0.812500 0.562500
vt 0.812500 0.625000
vt 0.875000 0.500000
vt 0.875000 0.562500
vt 0.875000 0.625000
vt 0.125000 0.687500
vt 0.187500 0.687500
vt 0.187500 0.750000
vt 0.125000 0.750000
vt 0.250000 0.687500
vt 0.250000 0.750000
vt 0.125000 0.500000
vt 0.187500 0.500000
vt 0.187500 0.562500
vt 0.125000 0.562500
vt 0.187500 0.625000
vt 0.125000 0.625000
vt 0.250000 0.500000
vt 0.250000 0.562500
vt 0.250000 0.625000
vt 0.312500 0.500000
vt 0.312500 0.562500
vt 0.312500 0.625000
vt 0.375000 0.500000
vt 0.375000 0.562500
vt 0.375000 0.625000
vt 0.375000 0.937500
vt 0.437500 0.937500
vt 0.437500 1.000000
vt 0.375000 1.000000
vt 0.500000 0.937500
vt 0.500000 1.000000
vt 0.437500 0.750000
vt 0.437500 0.812500
vt 0.375000 0.812500
vt 0.437500 0.875000
vt 0.375000 0.875000
vt 0.500000 0.750000
vt 0.500000 0.812500
vt 0.500000 0.875000
vt 0.562500 0.812500
vt 0.562500 0.875000
vt 0.625000 0.812500
vt 0.625000 0.875000
vt 0.437500 0.687500
vt 0.500000 0.687500
vt 0.437500 0.500000
vt 0.437500 0.562500
vt 0.437500 0.625000
vt 0.500000 0.500000
vt 0.500000 0.562500
vt 0.500000 0.625000
vt 0.562500 0.562500
vt 0.562500 0.625000
vt 0.375000 0.437500
vt 0.437500 0.437500
vt 0.500000 0.437500
vt 0.375000 0.250000
vt 0.437500 0.250000
vt 0.437500 0.312500
vt 0.375000 0.312500
vt 0.437500 0.375000
vt 0.375000 0.375000
vt 0.500000 0.250000
vt 0.500000 0.312500
vt 0.500000 0.375000
vt 0.562500 0.312500
vt 0.562500 0.375000
vt 0.625000 0.312500
vt 0.625000 0.375000
vt 0.375000 0.187500
vt 0.437500 0.187500
vt 0.500000 0.187500
vt 0.375000 0.000000
vt 0.437500 0.000000
vt 0.437500 0.062500
vt 0.375000 0.062500
vt 0.437500 0.125000
vt 0.375000 0.125000
vt 0.500000 0.000000
vt 0.500000 0.062500
vt 0.500000 0.125000
vt 0.562500 0.000000
vt 0.562500 0.062500
vt 0.562500 0.125000
vt 0.625000 0.000000
vt 0.625000 0.062500
vt 0.625000 0.125000
s 0
f 266/114/25 185/115/25 172/116/25 186/117/25
f 257/118/26 194/119/26 176/120/26 195/121/26
f 248/122/27 203/123/27 174/124/27 204/125/27
f 239/126/28 212/127/28 170/128/28 182/129/28
f 230/130/29 198/131/29 173/132/29 209/133/29
f 221/134/30 183/135/30 170/136/30 212/137/30
f 203/123/30 215/138/30 210/139/30 174/124/30
f 215/138/30 218/140/30 211/141/30 210/139/30
f 218/140/30 221/134/30 212/137/30 211/141/30
f 176/120/30 194/142/30 213/143/30 201/144/30
f 201/144/30 213/143/30 214/145/30 202/146/30
f 202/146/30 214/145/30 215/138/30 203/123/30
f 194/142/30 193/147/30 216/148/30 213/143/30
f 213/143/30 216/148/30 217/149/30 214/145/30
f 214/145/30 217/149/30 218/140/30 215/138/30
f 193/147/30 192/150/30 219/151/30 216/148/30
f 216/148/30 219/151/30 220/152/30 217/149/30
f 217/149/30 220/152/30 221/134/30 218/140/30
f 192/150/30 172/153/30 185/154/30 219/151/30
f 219/151/30 185/154/30 184/155/30 220/152/30
f 220/152/30 184/155/30 183/135/30 221/134/30
f 179/156/29 224/157/29 207/158/29 169/159/29
f 224/157/29 227/160/29 208/161/29 207/158/29
f 227/160/29 230/130/29 209/133/29 208/161/29
f 171/162/29 191/163/29 222/164/29 177/165/29
f 177/165/29 222/164/29 223/166/29 178/167/29
f 178/167/29 223/166/29 224/157/29 179/156/29
f 191/163/29 190/168/29 225/169/29 222/164/29
f 222/164/29 225/169/29 226/170/29 223/166/29
f 223/166/29 226/170/29 227/160/29 224/157/29
f 190/168/29 189/171/29 228/172/29 225/169/29
f 225/169/29 228/172/29 229/173/29 226/170/29
f 226/170/29 229/173/29 230/130/29 227/160/29
f 189/171/29 175/174/29 200/175/29 228/172/29
f 228/172/29 200/175/29 199/176/29 229/173/29
f 229/173/29 199/176/29 198/131/29 230/130/29
f 207/177/28 233/178/28 180/179/28 169/180/28
f 233/178/28 236/181/28 181/182/28 180/179/28
f 236/181/28 239/126/28 182/129/28 181/182/28
f 173/132/28 206/183/28 231/184/28 209/185/28
f 209/185/28 231/184/28 232/186/28 208/187/28
f 208/187/28 232/186/28 233/178/28 207/177/28
f 206/183/28 205/188/28 234/189/28 231/184/28
f 231/184/28 234/189/28 235/190/28 232/186/28
f 232/186/28 235/190/28 236/181/28 233/178/28
f 205/188/28 204/125/28 237/191/28 234/189/28
f 234/189/28 237/191/28 238/192/28 235/190/28
f 235/190/28 238/192/28 239/126/28 236/181/28
f 204/125/28 174/124/28 210/193/28 237/191/28
f 237/191/28 210/193/28 211/194/28 238/192/28
f 238/192/28 211/194/28 212/127/28 239/126/28
f 198/131/27 242/195/27 206/183/27 173/132/27
f 242/195/27 245/196/27 205/188/27 206/183/27
f 245/196/27 248/122/27 204/125/27 205/188/27
f 175/174/27 197/197/27 240/198/27 200/175/27
f 200/175/27 240/198/27 241/199/27 199/176/27
f 199/176/27 241/199/27 242/195/27 198/131/27
f 197/197/27 196/200/27 243/201/27 240/198/27
f 240/198/27 243/201/27 244/202/27 241/199/27
f 241/199/27 244/202/27 245/196/27 242/195/27
f 196/200/27 195/121/27 246/203/27 243/201/27
f 243/201/27 246/203/27 247/204/27 244/202/27
f 244/202/27 247/204/27 248/122/27 245/196/27
f 195/121/27 176/120/27 201/144/27 246/203/27
f 246/203/27 201/144/27 202/146/27 247/204/27
f 247/204/27 202/146/27 203/123/27 248/122/27
f 189/205/26 251/206/26 197/197/26 175/174/26
f 251/206/26 254/207/26 196/200/26 197/197/26
f 254/207/26 257/118/26 195/121/26 196/200/26
f 171/208/26 188/209/26 249/210/26 191/211/26
f 191/211/26 249/210/26 250/212/26 190/213/26
f 190/213/26 250/212/26 251/206/26 189/205/26
f 188/209/26 187/214/26 252/215/26 249/210/26
f 249/210/26 252/215/26 253/216/26 250/212/26
f 250/212/26 253/216/26 254/207/26 251/206/26
f 187/214/26 186/117/26 255/217/26 252/215/26
f 252/215/26 255/217/26 256/218/26 253/216/26
f 253/216/26 256/218/26 257/118/26 254/207/26
f 186/117/26 172/116/26 192/219/26 255/217/26
f 255/217/26 192/219/26 193/220/26 256/218/26
f 256/218/26 193/220/26 194/119/26 257/118/26
f 177/221/25 260/222/25 188/209/25 171/208/25
f 260/222/25 263/223/25 187/214/25 188/209/25
f 263/223/25 266/114/25 186/117/25 187/214/25
f 169/224/25 180/225/25 258/226/25 179/227/25
f 179/227/25 258/226/25 259/228/25 178/229/25
f 178/229/25 259/228/25 260/222/25 177/221/25
f 180/225/25 181/230/25 261/231/25 258/226/25
f 258/226/25 261/231/25 262/232/25 259/228/25
f 259/228/25 262/232/25 263/223/25 260/222/25
f 181/230/25 182/233/25 264/234/25 261/231/25
f 261/231/25 264/234/25 265/235/25 262/232/25
f 262/232/25 265/235/25 266/114/25 263/223/25
f 182/233/25 170/236/25 183/237/25 264/234/25
f 264/234/25 183/237/25 184/238/25 265/235/25
f 265/235/25 184/238/25 185/115/25 266/114/25
