# Blender 3.6.5
# www.blender.org
mtllib Building5.mtl
o TCom_Shops0148_S
v -2.476421 0.000000 0.000000
v 2.476421 0.000000 0.000000
v -2.476421 4.000000 -0.000000
v 2.476421 4.000000 -0.000000
v 2.476421 3.303523 -0.000000
v -2.476421 3.303523 -0.000000
v 0.355986 0.000000 0.000000
v -0.640834 0.000000 0.000000
v -0.640834 4.000000 -0.000000
v 0.355986 4.000000 -0.000000
v 0.355986 3.303523 -0.000000
v -0.640834 3.303523 -0.000000
v 0.355986 0.000000 -0.284100
v 0.355986 3.303523 -0.284100
v -0.640834 0.000000 -0.284100
v -0.640834 3.303523 -0.284100
v -2.476421 0.810596 0.000000
v 2.476421 0.810596 0.000000
v 0.355986 0.810596 0.000000
v -0.640834 0.810596 0.000000
v 0.355986 0.810596 -0.284100
v -0.640834 0.810596 -0.284100
v -2.354950 0.000000 0.000000
v -2.354950 4.000000 -0.000000
v -2.354950 3.303523 -0.000000
v -2.354950 0.810596 0.000000
v 2.128479 3.303523 -0.000000
v 2.128479 0.000000 0.000000
v 2.128479 4.000000 -0.000000
v 2.128479 0.810596 0.000000
v 2.476421 0.897537 0.000000
v 0.355986 0.897537 0.000000
v 0.355986 0.897537 -0.284100
v -2.476421 0.897537 0.000000
v -0.640834 0.897537 0.000000
v -0.640834 0.897537 -0.284100
v -2.354950 0.897537 0.000000
v 2.128479 0.897537 0.000000
v -0.640834 0.897537 0.090451
v -0.640834 0.810596 0.090451
v 2.128479 0.810596 0.090451
v 0.355986 0.810596 0.090451
v -2.354950 0.810596 0.090451
v 0.355986 0.897537 0.090451
v -2.354950 0.897537 0.090451
v 2.128479 0.897537 0.090451
vn -0.0000 -0.0000 1.0000
vn 1.0000 -0.0000 -0.0000
vn -1.0000 -0.0000 -0.0000
vn -0.0000 -1.0000 -0.0000
vn -0.0000 1.0000 -0.0000
vt 0.024525 0.825881
vt 0.370613 0.825881
vt 0.370613 1.000000
vt 0.024525 1.000000
vt 0.929749 0.224384
vt 1.000000 0.224384
vt 1.000000 0.825881
vt 0.929749 0.825881
vt 0.571875 0.825881
vt 0.571875 1.000000
vt 1.000000 1.000000
vt 0.929749 1.000000
vt 0.024525 0.224384
vt 0.370613 0.224384
vt 0.571875 0.224384
vt 0.370613 0.224384
vt 0.932828 0.237309
vt 0.932828 0.000000
vt 1.000000 0.000000
vt 1.000000 0.237309
vt 1.000000 0.262762
vt 1.000000 0.967137
vt 0.932828 0.967137
vt 0.932828 0.262762
vt 0.582157 0.907491
vt 0.398019 0.907491
vt 0.398019 0.842509
vt 0.582157 0.842509
vt 1.000000 0.262762
vt 0.571875 0.000000
vt 0.571875 0.202649
vt 0.370613 0.202649
vt 0.370613 0.000000
vt 0.024525 0.000000
vt 0.024525 0.202649
vt 0.929749 0.000000
vt 1.000000 0.202649
vt 0.929749 0.202649
vt 0.000000 0.000000
vt 0.000000 0.202649
vt 0.000000 0.224384
vt 0.000000 0.825881
vt 0.000000 1.000000
s 0
usemtl TCom_Shops0148_S
f 25/1/1 12/2/1 9/3/1 24/4/1
f 38/5/1 31/6/1 5/7/1 27/8/1
f 11/9/1 10/10/1 9/3/1 12/2/1
f 27/8/1 5/7/1 4/11/1 29/12/1
f 37/13/1 35/14/1 12/2/1 25/1/1
f 33/15/1 14/9/1 16/2/1 36/16/1
f 20/17/2 8/18/2 15/19/2 22/20/2
f 32/21/3 11/22/3 14/23/3 33/24/3
f 11/25/4 12/26/4 16/27/4 14/28/4
f 7/19/3 19/20/3 21/17/3 13/18/3
f 35/24/2 20/17/2 22/20/2 36/29/2
f 13/30/1 21/31/1 22/32/1 15/33/1
f 23/34/1 8/33/1 20/32/1 26/35/1
f 28/36/1 2/19/1 18/37/1 30/38/1
f 1/39/1 23/34/1 26/35/1 17/40/1
f 34/41/1 37/13/1 25/1/1 6/42/1
f 6/42/1 25/1/1 24/4/1 3/43/1
f 7/30/1 28/36/1 30/38/1 19/31/1
f 11/9/1 27/8/1 29/12/1 10/10/1
f 32/15/1 38/5/1 27/8/1 11/9/1
f 38/5/5 32/15/5 44/15/5 46/5/5
f 17/40/1 26/35/1 37/13/1 34/41/1
f 12/23/2 35/24/2 36/29/2 16/22/2
f 19/20/3 32/21/3 33/24/3 21/17/3
f 21/31/1 33/15/1 36/16/1 22/32/1
f 32/21/3 19/20/3 42/20/3 44/21/3
f 30/38/1 18/37/1 31/6/1 38/5/1
f 42/31/1 41/38/1 46/5/1 44/15/1
f 43/35/1 40/32/1 39/14/1 45/13/1
f 37/13/3 26/35/3 43/35/3 45/13/3
f 35/14/5 37/13/5 45/13/5 39/14/5
f 20/17/2 35/24/2 39/24/2 40/17/2
f 26/35/4 20/32/4 40/32/4 43/35/4
f 30/38/2 38/5/2 46/5/2 41/38/2
f 19/31/4 30/38/4 41/38/4 42/31/4
o TCom_Shops0220_S
v 2.478040 0.000000 -0.001267
v 2.478040 0.000000 -5.980829
v 2.478040 4.000000 -0.001267
v 2.478040 4.000000 -5.980829
v 2.478040 3.460000 -4.924086
v 2.478040 3.460000 -5.320024
v 2.478040 3.460000 -5.980829
v 2.478040 3.460000 -0.001267
v 2.478040 0.000000 -5.320024
v 2.478040 0.000000 -4.924086
v 2.478040 0.000000 -0.825605
v 2.478040 0.000000 -0.429667
v 2.478040 4.000000 -0.429667
v 2.478040 4.000000 -0.825605
v 2.478040 4.000000 -4.924086
v 2.478040 4.000000 -5.320024
v 2.478040 3.460000 -0.429667
v 2.478040 3.460000 -0.825605
v 2.549236 3.460000 -5.980829
v 2.549236 4.000000 -5.980829
v 2.549236 3.460000 -0.429667
v 2.549236 3.460000 -0.825605
v 2.549236 3.460000 -4.924086
v 2.549236 0.000000 -5.320024
v 2.549236 3.460000 -5.320024
v 2.549236 4.000000 -0.429667
v 2.549236 0.000000 -0.825605
v 2.549236 4.000000 -0.001267
v 2.549236 3.460000 -0.001267
v 2.549236 4.000000 -4.924086
v 2.549236 0.000000 -4.924086
v 2.549236 4.000000 -5.320024
v 2.549236 4.000000 -0.825605
v 2.549236 0.000000 -0.429667
v 2.625491 3.460000 -5.980829
v 2.625491 4.000000 -5.980829
v 2.625491 3.460000 -0.429667
v 2.625491 3.460000 -0.825605
v 2.625491 3.460000 -4.924086
v 2.625491 4.000000 -0.429667
v 2.625491 4.000000 -0.001267
v 2.625491 3.460000 -0.001267
v 2.625491 4.000000 -4.924086
v 2.625491 3.460000 -5.320024
v 2.625491 4.000000 -5.320024
v 2.625491 4.000000 -0.825605
v -2.478040 0.000000 -0.001267
v -2.478039 0.000000 -5.980829
v -2.478040 4.000000 -0.001267
v -2.478040 4.000000 -5.980829
v -2.478040 3.460000 -4.924086
v -2.478040 3.460000 -5.320024
v -2.478040 3.460000 -5.980829
v -2.478040 3.460000 -0.001267
v -2.478039 0.000000 -5.320024
v -2.478039 0.000000 -4.924086
v -2.478040 0.000000 -0.825605
v -2.478040 0.000000 -0.429667
v -2.478040 4.000000 -0.429667
v -2.478040 4.000000 -0.825605
v -2.478040 4.000000 -4.924086
v -2.478040 4.000000 -5.320024
v -2.478040 3.460000 -0.429667
v -2.478040 3.460000 -0.825605
v -2.549236 3.460000 -5.980829
v -2.549236 4.000000 -5.980829
v -2.549236 3.460000 -0.429667
v -2.549236 3.460000 -0.825605
v -2.549236 3.460000 -4.924086
v -2.549236 0.000000 -5.320024
v -2.549236 3.460000 -5.320024
v -2.549237 4.000000 -0.429667
v -2.549236 0.000000 -0.825605
v -2.549237 4.000000 -0.001267
v -2.549237 3.460000 -0.001267
v -2.549236 4.000000 -4.924086
v -2.549236 0.000000 -4.924086
v -2.549236 4.000000 -5.320024
v -2.549236 4.000000 -0.825605
v -2.549236 0.000000 -0.429667
v -2.625491 3.460000 -5.980829
v -2.625491 4.000000 -5.980829
v -2.625491 3.460000 -0.429667
v -2.625491 3.460000 -0.825605
v -2.625491 3.460000 -4.924086
v -2.625491 4.000000 -0.429667
v -2.625491 4.000000 -0.001267
v -2.625491 3.460000 -0.001267
v -2.625491 4.000000 -4.924086
v -2.625491 3.460000 -5.320024
v -2.625491 4.000000 -5.320024
v -2.625491 4.000000 -0.825605
vn 1.0000 -0.0000 -0.0000
vn -0.0000 -0.0000 -1.0000
vn -0.0000 1.0000 -0.0000
vn -0.0000 -0.0000 1.0000
vn -0.0000 -1.0000 -0.0000
vn -1.0000 -0.0000 -0.0000
vt 0.823274 0.000000
vt 0.823274 0.865000
vt 0.137859 0.865000
vt 0.137859 0.000000
vt 0.000000 0.000000
vt 0.071644 0.865000
vt 0.071644 0.000000
vt 0.000000 0.865000
vt 0.889489 0.000000
vt 1.000000 0.000000
vt 1.000000 0.865000
vt 0.889489 0.865000
vt 1.000000 1.000000
vt 0.889489 1.000000
vt 0.071644 1.000000
vt 0.000000 1.000000
vt 0.823274 1.000000
vt 0.137859 1.000000
s 0
usemtl TCom_Shops0220_S
f 56/44/6 51/45/6 64/46/6 57/47/6
f 53/48/7 50/48/7 66/48/7 65/48/7
f 59/48/8 49/48/8 74/48/8 72/48/8
f 63/49/9 58/50/9 80/50/9 67/49/9
f 49/48/9 54/48/9 75/48/9 74/48/9
f 60/48/8 59/48/8 72/48/8 79/48/8
f 50/48/8 62/48/8 78/48/8 66/48/8
f 57/47/7 64/46/7 68/46/7 73/47/7
f 47/48/6 58/50/6 63/49/6 54/51/6
f 55/52/6 48/53/6 53/54/6 52/55/6
f 65/48/7 66/48/7 82/48/7 81/48/7
f 78/48/8 76/48/8 89/48/8 91/48/8
f 75/51/10 67/49/10 83/49/10 88/51/10
f 67/49/6 80/50/6 73/47/6 68/46/6
f 74/48/9 75/48/9 88/48/9 87/48/9
f 76/48/8 79/48/8 92/48/8 89/48/8
f 70/52/6 71/55/6 69/45/6 77/44/6
f 58/48/10 57/48/10 73/48/10 80/48/10
f 56/48/10 55/48/10 70/48/10 77/48/10
f 54/51/10 63/49/10 67/49/10 75/51/10
f 64/46/10 51/45/10 69/45/10 68/46/10
f 52/55/10 53/54/10 65/54/10 71/55/10
f 55/52/7 52/55/7 71/55/7 70/52/7
f 61/48/8 60/48/8 79/48/8 76/48/8
f 62/48/8 61/48/8 76/48/8 78/48/8
f 51/45/9 56/44/9 77/44/9 69/45/9
f 90/55/6 81/54/6 82/56/6 91/57/6
f 88/51/6 83/49/6 86/58/6 87/59/6
f 90/55/6 91/57/6 89/60/6 85/45/6
f 85/45/6 89/60/6 92/61/6 84/46/6
f 86/58/6 83/49/6 84/46/6 92/61/6
f 66/48/8 78/48/8 91/48/8 82/48/8
f 71/55/10 65/54/10 81/54/10 90/55/10
f 72/48/8 74/48/8 87/48/8 86/48/8
f 67/49/10 68/46/10 84/46/10 83/49/10
f 79/48/8 72/48/8 86/48/8 92/48/8
f 69/45/10 71/55/10 90/55/10 85/45/10
f 68/46/10 69/45/10 85/45/10 84/46/10
f 102/44/11 103/47/11 110/46/11 97/45/11
f 99/48/7 111/48/7 112/48/7 96/48/7
f 105/48/8 118/48/8 120/48/8 95/48/8
f 109/49/9 113/49/9 126/50/9 104/50/9
f 95/48/9 120/48/9 121/48/9 100/48/9
f 106/48/8 125/48/8 118/48/8 105/48/8
f 96/48/8 112/48/8 124/48/8 108/48/8
f 103/47/7 119/47/7 114/46/7 110/46/7
f 93/48/11 100/51/11 109/49/11 104/50/11
f 101/52/11 98/55/11 99/54/11 94/53/11
f 111/48/7 127/48/7 128/48/7 112/48/7
f 124/48/8 137/48/8 135/48/8 122/48/8
f 121/51/10 134/51/10 129/49/10 113/49/10
f 113/49/11 114/46/11 119/47/11 126/50/11
f 120/48/9 133/48/9 134/48/9 121/48/9
f 122/48/8 135/48/8 138/48/8 125/48/8
f 116/52/11 123/44/11 115/45/11 117/55/11
f 104/48/10 126/48/10 119/48/10 103/48/10
f 102/48/10 123/48/10 116/48/10 101/48/10
f 100/51/10 121/51/10 113/49/10 109/49/10
f 110/46/10 114/46/10 115/45/10 97/45/10
f 98/55/10 117/55/10 111/54/10 99/54/10
f 101/52/7 116/52/7 117/55/7 98/55/7
f 107/48/8 122/48/8 125/48/8 106/48/8
f 108/48/8 124/48/8 122/48/8 107/48/8
f 97/45/9 115/45/9 123/44/9 102/44/9
f 136/55/11 137/57/11 128/56/11 127/54/11
f 134/51/11 133/59/11 132/58/11 129/49/11
f 136/55/11 131/45/11 135/60/11 137/57/11
f 131/45/11 130/46/11 138/61/11 135/60/11
f 132/58/11 138/61/11 130/46/11 129/49/11
f 112/48/8 128/48/8 137/48/8 124/48/8
f 117/55/10 136/55/10 127/54/10 111/54/10
f 118/48/8 132/48/8 133/48/8 120/48/8
f 113/49/10 129/49/10 130/46/10 114/46/10
f 125/48/8 138/48/8 132/48/8 118/48/8
f 115/45/10 131/45/10 136/55/10 117/55/10
f 114/46/10 130/46/10 131/45/10 115/45/10
o Building5_-col
v -2.517688 -0.001527 0.007460
v -2.517688 3.944384 0.007460
v -2.517688 -0.001527 -6.007460
v -2.517688 3.944384 -6.007460
v 2.517688 -0.001527 0.007460
v 2.517688 3.944384 0.007460
v 2.517688 -0.001527 -6.007460
v 2.517688 3.944384 -6.007460
v -2.517688 -0.001527 -4.503730
v -2.517688 -0.001527 -3.000000
v -2.517688 -0.001527 -1.496270
v -2.517688 0.984951 0.007460
v -2.517688 1.971428 0.007460
v -2.517688 2.957906 0.007460
v -2.517688 3.944384 -1.496270
v -2.517688 3.944384 -3.000000
v -2.517688 3.944384 -4.503730
v -2.517688 2.957906 -6.007460
v -2.517688 1.971428 -6.007460
v -2.517688 0.984951 -6.007460
v 1.258844 -0.001527 -6.007460
v 0.000000 -0.001527 -6.007460
v -1.258844 -0.001527 -6.007460
v -1.258844 3.944384 -6.007460
v 0.000000 3.944384 -6.007460
v 1.258844 3.944384 -6.007460
v 2.517688 2.957906 -6.007460
v 2.517688 1.971428 -6.007460
v 2.517688 0.984951 -6.007460
v 2.517688 -0.001527 -1.496270
v 2.517688 -0.001527 -3.000000
v 2.517688 -0.001527 -4.503730
v 2.517688 3.944384 -4.503730
v 2.517688 3.944384 -3.000000
v 2.517688 3.944384 -1.496270
v 2.517688 2.957906 0.007460
v 2.517688 1.971428 0.007460
v 2.517688 0.984951 0.007460
v -1.258844 -0.001527 0.007460
v 0.000000 -0.001527 0.007460
v 1.258844 -0.001527 0.007460
v 1.258844 3.944384 0.007460
v 0.000000 3.944384 0.007460
v -1.258844 3.944384 0.007460
v 1.258844 3.944384 -4.503730
v 1.258844 3.944384 -3.000000
v 1.258844 3.944384 -1.496270
v 0.000000 3.944384 -4.503730
v 0.000000 3.944384 -3.000000
v 0.000000 3.944384 -1.496270
v -1.258844 3.944384 -4.503730
v -1.258844 3.944384 -3.000000
v -1.258844 3.944384 -1.496270
v -1.258844 -0.001527 -4.503730
v -1.258844 -0.001527 -3.000000
v -1.258844 -0.001527 -1.496270
v 0.000000 -0.001527 -4.503730
v 0.000000 -0.001527 -3.000000
v 0.000000 -0.001527 -1.496270
v 1.258844 -0.001527 -4.503730
v 1.258844 -0.001527 -3.000000
v 1.258844 -0.001527 -1.496270
v 1.258844 0.984951 0.007460
v 0.000000 0.984951 0.007460
v -1.258844 0.984951 0.007460
v 1.258844 1.971428 0.007460
v 0.000000 1.971428 0.007460
v -1.258844 1.971428 0.007460
v 1.258844 2.957906 0.007460
v 0.000000 2.957906 0.007460
v -1.258844 2.957906 0.007460
v 2.517688 0.984951 -4.503730
v 2.517688 0.984951 -3.000000
v 2.517688 0.984951 -1.496270
v 2.517688 1.971428 -4.503730
v 2.517688 1.971428 -3.000000
v 2.517688 1.971428 -1.496270
v 2.517688 2.957906 -4.503730
v 2.517688 2.957906 -3.000000
v 2.517688 2.957906 -1.496270
v -1.258844 0.984951 -6.007460
v 0.000000 0.984951 -6.007460
v 1.258844 0.984951 -6.007460
v -1.258844 1.971428 -6.007460
v 0.000000 1.971428 -6.007460
v 1.258844 1.971428 -6.007460
v -1.258844 2.957906 -6.007460
v 0.000000 2.957906 -6.007460
v 1.258844 2.957906 -6.007460
v -2.517688 0.984951 -1.496270
v -2.517688 0.984951 -3.000000
v -2.517688 0.984951 -4.503730
v -2.517688 1.971428 -1.496270
v -2.517688 1.971428 -3.000000
v -2.517688 1.971428 -4.503730
v -2.517688 2.957906 -1.496270
v -2.517688 2.957906 -3.000000
v -2.517688 2.957906 -4.503730
vn -1.0000 -0.0000 -0.0000
vn -0.0000 -0.0000 -1.0000
vn 1.0000 -0.0000 -0.0000
vn -0.0000 -0.0000 1.0000
vn -0.0000 -1.0000 -0.0000
vn -0.0000 1.0000 -0.0000
vt 0.562500 0.187500
vt 0.625000 0.187500
vt 0.625000 0.250000
vt 0.562500 0.250000
vt 0.562500 0.437500
vt 0.625000 0.437500
vt 0.625000 0.500000
vt 0.562500 0.500000
vt 0.562500 0.687500
vt 0.625000 0.687500
vt 0.625000 0.750000
vt 0.562500 0.750000
vt 0.562500 0.937500
vt 0.625000 0.937500
vt 0.625000 1.000000
vt 0.562500 1.000000
vt 0.312500 0.687500
vt 0.375000 0.687500
vt 0.375000 0.750000
vt 0.312500 0.750000
vt 0.812500 0.687500
vt 0.875000 0.687500
vt 0.875000 0.750000
vt 0.812500 0.750000
vt 0.687500 0.687500
vt 0.687500 0.750000
vt 0.750000 0.687500
vt 0.750000 0.750000
vt 0.687500 0.500000
vt 0.687500 0.562500
vt 0.625000 0.562500
vt 0.687500 0.625000
vt 0.625000 0.625000
vt 0.750000 0.500000
vt 0.750000 0.562500
vt 0.750000 0.625000
vt 0.812500 0.500000
vt 0.812500 0.562500
vt 0.812500 0.625000
vt 0.875000 0.500000
vt 0.875000 0.562500
vt 0.875000 0.625000
vt 0.125000 0.687500
vt 0.187500 0.687500
vt 0.187500 0.750000
vt 0.125000 0.750000
vt 0.250000 0.687500
vt 0.250000 0.750000
vt 0.125000 0.500000
vt 0.187500 0.500000
vt 0.187500 0.562500
vt 0.125000 0.562500
vt 0.187500 0.625000
vt 0.125000 0.625000
vt 0.250000 0.500000
vt 0.250000 0.562500
vt 0.250000 0.625000
vt 0.312500 0.500000
vt 0.312500 0.562500
vt 0.312500 0.625000
vt 0.375000 0.500000
vt 0.375000 0.562500
vt 0.375000 0.625000
vt 0.375000 0.937500
vt 0.437500 0.937500
vt 0.437500 1.000000
vt 0.375000 1.000000
vt 0.500000 0.937500
vt 0.500000 1.000000
vt 0.437500 0.750000
vt 0.437500 0.812500
vt 0.375000 0.812500
vt 0.437500 0.875000
vt 0.375000 0.875000
vt 0.500000 0.750000
vt 0.500000 0.812500
vt 0.500000 0.875000
vt 0.562500 0.812500
vt 0.562500 0.875000
vt 0.625000 0.812500
vt 0.625000 0.875000
vt 0.437500 0.687500
vt 0.500000 0.687500
vt 0.437500 0.500000
vt 0.437500 0.562500
vt 0.437500 0.625000
vt 0.500000 0.500000
vt 0.500000 0.562500
vt 0.500000 0.625000
vt 0.562500 0.562500
vt 0.562500 0.625000
vt 0.375000 0.437500
vt 0.437500 0.437500
vt 0.500000 0.437500
vt 0.375000 0.250000
vt 0.437500 0.250000
vt 0.437500 0.312500
vt 0.375000 0.312500
vt 0.437500 0.375000
vt 0.375000 0.375000
vt 0.500000 0.250000
vt 0.500000 0.312500
vt 0.500000 0.375000
vt 0.562500 0.312500
vt 0.562500 0.375000
vt 0.625000 0.312500
vt 0.625000 0.375000
vt 0.375000 0.187500
vt 0.437500 0.187500
vt 0.500000 0.187500
vt 0.375000 0.000000
vt 0.437500 0.000000
vt 0.437500 0.062500
vt 0.375000 0.062500
vt 0.437500 0.125000
vt 0.375000 0.125000
vt 0.500000 0.000000
vt 0.500000 0.062500
vt 0.500000 0.125000
vt 0.562500 0.000000
vt 0.562500 0.062500
vt 0.562500 0.125000
vt 0.625000 0.000000
vt 0.625000 0.062500
vt 0.625000 0.125000
s 0
f 236/62/12 155/63/12 142/64/12 156/65/12
f 227/66/13 164/67/13 146/68/13 165/69/13
f 218/70/14 173/71/14 144/72/14 174/73/14
f 209/74/15 182/75/15 140/76/15 152/77/15
f 200/78/16 168/79/16 143/80/16 179/81/16
f 191/82/17 153/83/17 140/84/17 182/85/17
f 173/71/17 185/86/17 180/87/17 144/72/17
f 185/86/17 188/88/17 181/89/17 180/87/17
f 188/88/17 191/82/17 182/85/17 181/89/17
f 146/68/17 164/90/17 183/91/17 171/92/17
f 171/92/17 183/91/17 184/93/17 172/94/17
f 172/94/17 184/93/17 185/86/17 173/71/17
f 164/90/17 163/95/17 186/96/17 183/91/17
f 183/91/17 186/96/17 187/97/17 184/93/17
f 184/93/17 187/97/17 188/88/17 185/86/17
f 163/95/17 162/98/17 189/99/17 186/96/17
f 186/96/17 189/99/17 190/100/17 187/97/17
f 187/97/17 190/100/17 191/82/17 188/88/17
f 162/98/17 142/101/17 155/102/17 189/99/17
f 189/99/17 155/102/17 154/103/17 190/100/17
f 190/100/17 154/103/17 153/83/17 191/82/17
f 149/104/16 194/105/16 177/106/16 139/107/16
f 194/105/16 197/108/16 178/109/16 177/106/16
f 197/108/16 200/78/16 179/81/16 178/109/16
f 141/110/16 161/111/16 192/112/16 147/113/16
f 147/113/16 192/112/16 193/114/16 148/115/16
f 148/115/16 193/114/16 194/105/16 149/104/16
f 161/111/16 160/116/16 195/117/16 192/112/16
f 192/112/16 195/117/16 196/118/16 193/114/16
f 193/114/16 196/118/16 197/108/16 194/105/16
f 160/116/16 159/119/16 198/120/16 195/117/16
f 195/117/16 198/120/16 199/121/16 196/118/16
f 196/118/16 199/121/16 200/78/16 197/108/16
f 159/119/16 145/122/16 170/123/16 198/120/16
f 198/120/16 170/123/16 169/124/16 199/121/16
f 199/121/16 169/124/16 168/79/16 200/78/16
f 177/125/15 203/126/15 150/127/15 139/128/15
f 203/126/15 206/129/15 151/130/15 150/127/15
f 206/129/15 209/74/15 152/77/15 151/130/15
f 143/80/15 176/131/15 201/132/15 179/133/15
f 179/133/15 201/132/15 202/134/15 178/135/15
f 178/135/15 202/134/15 203/126/15 177/125/15
f 176/131/15 175/136/15 204/137/15 201/132/15
f 201/132/15 204/137/15 205/138/15 202/134/15
f 202/134/15 205/138/15 206/129/15 203/126/15
f 175/136/15 174/73/15 207/139/15 204/137/15
f 204/137/15 207/139/15 208/140/15 205/138/15
f 205/138/15 208/140/15 209/74/15 206/129/15
f 174/73/15 144/72/15 180/141/15 207/139/15
f 207/139/15 180/141/15 181/142/15 208/140/15
f 208/140/15 181/142/15 182/75/15 209/74/15
f 168/79/14 212/143/14 176/131/14 143/80/14
f 212/143/14 215/144/14 175/136/14 176/131/14
f 215/144/14 218/70/14 174/73/14 175/136/14
f 145/122/14 167/145/14 210/146/14 170/123/14
f 170/123/14 210/146/14 211/147/14 169/124/14
f 169/124/14 211/147/14 212/143/14 168/79/14
f 167/145/14 166/148/14 213/149/14 210/146/14
f 210/146/14 213/149/14 214/150/14 211/147/14
f 211/147/14 214/150/14 215/144/14 212/143/14
f 166/148/14 165/69/14 216/151/14 213/149/14
f 213/149/14 216/151/14 217/152/14 214/150/14
f 214/150/14 217/152/14 218/70/14 215/144/14
f 165/69/14 146/68/14 171/92/14 216/151/14
f 216/151/14 171/92/14 172/94/14 217/152/14
f 217/152/14 172/94/14 173/71/14 218/70/14
f 159/153/13 221/154/13 167/145/13 145/122/13
f 221/154/13 224/155/13 166/148/13 167/145/13
f 224/155/13 227/66/13 165/69/13 166/148/13
f 141/156/13 158/157/13 219/158/13 161/159/13
f 161/159/13 219/158/13 220/160/13 160/161/13
f 160/161/13 220/160/13 221/154/13 159/153/13
f 158/157/13 157/162/13 222/163/13 219/158/13
f 219/158/13 222/163/13 223/164/13 220/160/13
f 220/160/13 223/164/13 224/155/13 221/154/13
f 157/162/13 156/65/13 225/165/13 222/163/13
f 222/163/13 225/165/13 226/166/13 223/164/13
f 223/164/13 226/166/13 227/66/13 224/155/13
f 156/65/13 142/64/13 162/167/13 225/165/13
f 225/165/13 162/167/13 163/168/13 226/166/13
f 226/166/13 163/168/13 164/67/13 227/66/13
f 147/169/12 230/170/12 158/157/12 141/156/12
f 230/170/12 233/171/12 157/162/12 158/157/12
f 233/171/12 236/62/12 156/65/12 157/162/12
f 139/172/12 150/173/12 228/174/12 149/175/12
f 149/175/12 228/174/12 229/176/12 148/177/12
f 148/177/12 229/176/12 230/170/12 147/169/12
f 150/173/12 151/178/12 231/179/12 228/174/12
f 228/174/12 231/179/12 232/180/12 229/176/12
f 229/176/12 232/180/12 233/171/12 230/170/12
f 151/178/12 152/181/12 234/182/12 231/179/12
f 231/179/12 234/182/12 235/183/12 232/180/12
f 232/180/12 235/183/12 236/62/12 233/171/12
f 152/181/12 140/184/12 153/185/12 234/182/12
f 234/182/12 153/185/12 154/186/12 235/183/12
f 235/183/12 154/186/12 155/63/12 236/62/12
o TCom_Shops0148_S.001
v 2.476421 0.000000 -5.967333
v -2.476421 0.000000 -5.967331
v 2.476421 4.000000 -5.967332
v -2.476421 4.000000 -5.967331
v -2.476421 3.303523 -5.967331
v 2.476421 3.303523 -5.967332
v -0.355986 0.000000 -5.967332
v 0.640834 0.000000 -5.967332
v 0.640834 4.000000 -5.967332
v -0.355986 4.000000 -5.967331
v -0.355986 3.303523 -5.967332
v 0.640834 3.303523 -5.967332
v -0.355986 0.000000 -5.683232
v -0.355986 3.303523 -5.683232
v 0.640834 0.000000 -5.683232
v 0.640834 3.303523 -5.683232
v 2.476421 0.810596 -5.967333
v -2.476421 0.810596 -5.967331
v -0.355986 0.810596 -5.967332
v 0.640834 0.810596 -5.967332
v -0.355986 0.810596 -5.683232
v 0.640834 0.810596 -5.683232
v 2.354950 0.000000 -5.967333
v 2.354950 4.000000 -5.967332
v 2.354950 3.303523 -5.967332
v 2.354950 0.810596 -5.967333
v -2.128479 3.303523 -5.967331
v -2.128479 0.000000 -5.967331
v -2.128479 4.000000 -5.967331
v -2.128479 0.810596 -5.967331
v -2.476421 0.897537 -5.967331
v -0.355986 0.897537 -5.967332
v -0.355986 0.897537 -5.683232
v 2.476421 0.897537 -5.967333
v 0.640834 0.897537 -5.967332
v 0.640834 0.897537 -5.683232
v 2.354950 0.897537 -5.967333
v -2.128479 0.897537 -5.967331
v 0.640834 0.897537 -6.057783
v 0.640834 0.810596 -6.057783
v -2.128479 0.810596 -6.057782
v -0.355986 0.810596 -6.057783
v 2.354950 0.810596 -6.057784
v -0.355986 0.897537 -6.057783
v 2.354950 0.897537 -6.057784
v -2.128479 0.897537 -6.057782
vn -0.0000 -0.0000 -1.0000
vn -1.0000 -0.0000 -0.0000
vn 1.0000 -0.0000 -0.0000
vn -0.0000 -1.0000 -0.0000
vn -0.0000 1.0000 -0.0000
vt 0.024525 0.825881
vt 0.370613 0.825881
vt 0.370613 1.000000
vt 0.024525 1.000000
vt 0.929749 0.224384
vt 1.000000 0.224384
vt 1.000000 0.825881
vt 0.929749 0.825881
vt 0.571875 0.825881
vt 0.571875 1.000000
vt 1.000000 1.000000
vt 0.929749 1.000000
vt 0.024525 0.224384
vt 0.370613 0.224384
vt 0.571875 0.224384
vt 0.370613 0.224384
vt 0.932828 0.237309
vt 0.932828 0.000000
vt 1.000000 0.000000
vt 1.000000 0.237309
vt 1.000000 0.262762
vt 1.000000 0.967137
vt 0.932828 0.967137
vt 0.932828 0.262762
vt 0.582157 0.907491
vt 0.398019 0.907491
vt 0.398019 0.842509
vt 0.582157 0.842509
vt 1.000000 0.262762
vt 0.571875 0.000000
vt 0.571875 0.202649
vt 0.370613 0.202649
vt 0.370613 0.000000
vt 0.024525 0.000000
vt 0.024525 0.202649
vt 0.929749 0.000000
vt 1.000000 0.202649
vt 0.929749 0.202649
vt 0.000000 0.000000
vt 0.000000 0.202649
vt 0.000000 0.224384
vt 0.000000 0.825881
vt 0.000000 1.000000
s 0
usemtl TCom_Shops0148_S
f 261/187/18 248/188/18 245/189/18 260/190/18
f 274/191/18 267/192/18 241/193/18 263/194/18
f 247/195/18 246/196/18 245/189/18 248/188/18
f 263/194/18 241/193/18 240/197/18 265/198/18
f 273/199/18 271/200/18 248/188/18 261/187/18
f 269/201/18 250/195/18 252/188/18 272/202/18
f 256/203/19 244/204/19 251/205/19 258/206/19
f 268/207/20 247/208/20 250/209/20 269/210/20
f 247/211/21 248/212/21 252/213/21 250/214/21
f 243/205/20 255/206/20 257/203/20 249/204/20
f 271/210/19 256/203/19 258/206/19 272/215/19
f 249/216/18 257/217/18 258/218/18 251/219/18
f 259/220/18 244/219/18 256/218/18 262/221/18
f 264/222/18 238/205/18 254/223/18 266/224/18
f 237/225/18 259/220/18 262/221/18 253/226/18
f 270/227/18 273/199/18 261/187/18 242/228/18
f 242/228/18 261/187/18 260/190/18 239/229/18
f 243/216/18 264/222/18 266/224/18 255/217/18
f 247/195/18 263/194/18 265/198/18 246/196/18
f 268/201/18 274/191/18 263/194/18 247/195/18
f 274/191/22 268/201/22 280/201/22 282/191/22
f 253/226/18 262/221/18 273/199/18 270/227/18
f 248/209/19 271/210/19 272/215/19 252/208/19
f 255/206/20 268/207/20 269/210/20 257/203/20
f 257/217/18 269/201/18 272/202/18 258/218/18
f 268/207/20 255/206/20 278/206/20 280/207/20
f 266/224/18 254/223/18 267/192/18 274/191/18
f 278/217/18 277/224/18 282/191/18 280/201/18
f 279/221/18 276/218/18 275/200/18 281/199/18
f 273/199/20 262/221/20 279/221/20 281/199/20
f 271/200/22 273/199/22 281/199/22 275/200/22
f 256/203/19 271/210/19 275/210/19 276/203/19
f 262/221/21 256/218/21 276/218/21 279/221/21
f 266/224/19 274/191/19 282/191/19 277/224/19
f 255/217/21 266/224/21 277/224/21 278/217/21
